<?xml version="1.0" encoding="utf-8"?>
<!-- Generator: Adobe Illustrator 22.1.0, SVG Export Plug-In . SVG Version: 6.00 Build 0)  -->
<svg version="1.1" id="Layer_1" xmlns="http://www.w3.org/2000/svg" xmlns:xlink="http://www.w3.org/1999/xlink" x="0px" y="0px"
	 viewBox="0 0 878 481" style="enable-background:new 0 0 878 481;" xml:space="preserve">
<style type="text/css">
	.st0{opacity:0.25;fill:#B3DBFA;}
	.st1{fill:#2DA5E8;}
	.st2{fill:#B3DBFA;}
	.st3{fill:#333333;}
	.st4{fill:#FFFFFF;}
	.st5{opacity:0.25;}
	.st6{fill:#DCF1FF;}
	.st7{fill:#95BFDB;}
	.st8{opacity:0.15;fill:#333333;}
	.st9{fill:#EF7C15;}
	.st10{fill:#B2B2B2;}
	.st11{fill:#89C0E5;}
	.st12{fill:#FFA561;}
	.st13{fill:#D16C28;}
	.st14{clip-path:url(#SVGID_2_);}
	.st15{clip-path:url(#SVGID_4_);fill:#F9EFD0;}
	.st16{clip-path:url(#SVGID_4_);fill:#EF7C15;}
	.st17{clip-path:url(#SVGID_4_);fill:#17517E;}
	.st18{opacity:0.25;fill:#EF7C15;}
	.st19{fill:#336791;}
	.st20{fill:none;stroke:#FFFFFF;stroke-width:0.4505;stroke-linecap:round;stroke-linejoin:round;}
</style>
<path class="st0" d="M858,382.1H195.5c-7.7,0-14-6.3-14-14V19.5c0-7.7,6.3-14,14-14H858c7.7,0,14,6.3,14,14v348.6
	C872,375.8,865.7,382.1,858,382.1z"/>
<path class="st1" d="M210,335c-1.5,0-2.7-1.2-2.7-2.7v-3.5c0-1.5,1.2-2.7,2.7-2.7s2.7,1.2,2.7,2.7v3.5
	C212.6,333.8,211.4,335,210,335z M210,317.2c-1.5,0-2.7-1.2-2.7-2.7V311c0-1.5,1.2-2.7,2.7-2.7s2.7,1.2,2.7,2.7v3.5
	C212.6,316,211.4,317.2,210,317.2z M210,299.5c-1.5,0-2.7-1.2-2.7-2.7v-3.5c0-1.5,1.2-2.7,2.7-2.7s2.7,1.2,2.7,2.7v3.5
	C212.6,298.3,211.4,299.5,210,299.5z M210,281.7c-1.5,0-2.7-1.2-2.7-2.7v-3.5c0-1.5,1.2-2.7,2.7-2.7s2.7,1.2,2.7,2.7v3.5
	C212.6,280.5,211.4,281.7,210,281.7z M210,264c-1.5,0-2.7-1.2-2.7-2.7v-3.5c0-1.5,1.2-2.7,2.7-2.7s2.7,1.2,2.7,2.7v3.5
	C212.6,262.8,211.4,264,210,264z M210,246.2c-1.5,0-2.7-1.2-2.7-2.7V240c0-1.5,1.2-2.7,2.7-2.7s2.7,1.2,2.7,2.7v3.6
	C212.6,245,211.4,246.2,210,246.2z M210,228.5c-1.5,0-2.7-1.2-2.7-2.7v-3.6c0-1.5,1.2-2.7,2.7-2.7s2.7,1.2,2.7,2.7v3.6
	C212.6,227.3,211.4,228.5,210,228.5z M210,210.7c-1.5,0-2.7-1.2-2.7-2.7v-3.5c0-1.5,1.2-2.7,2.7-2.7s2.7,1.2,2.7,2.7v3.5
	C212.6,209.5,211.4,210.7,210,210.7z M234,195.7h-3.5c-1.5,0-2.7-1.2-2.7-2.7s1.2-2.7,2.7-2.7h3.5c1.5,0,2.7,1.2,2.7,2.7
	S235.4,195.7,234,195.7z M216.2,195.7h-3.5c-1.5,0-2.7-1.2-2.7-2.7s1.2-2.7,2.7-2.7h3.5c1.5,0,2.7,1.2,2.7,2.7
	S217.7,195.7,216.2,195.7z"/>
<path class="st2" d="M245.1,448h-135v-98.8c0-3.4,2.7-6.1,6.1-6.1H239c3.4,0,6.1,2.7,6.1,6.1V448z"/>
<path class="st3" d="M232.8,381.5H110.1c-1.4,0-2.5-1.1-2.5-2.5s1.1-2.5,2.5-2.5h122.7c1.4,0,2.5,1.1,2.5,2.5
	S234.2,381.5,232.8,381.5z"/>
<path class="st3" d="M232.8,416H110.1c-1.4,0-2.5-1.1-2.5-2.5s1.1-2.5,2.5-2.5h122.7c1.4,0,2.5,1.1,2.5,2.5S234.2,416,232.8,416z"/>
<circle class="st1" cx="125.4" cy="360" r="4"/>
<circle class="st1" cx="125.4" cy="395.6" r="4"/>
<circle class="st1" cx="125.4" cy="428.9" r="4"/>
<path class="st3" d="M224.9,363.5h-79.6c-1,0-1.8-0.8-1.8-1.8s0.8-1.8,1.8-1.8h79.6c1,0,1.8,0.8,1.8,1.8S225.8,363.5,224.9,363.5z"
	/>
<path class="st3" d="M224.9,398h-79.6c-1,0-1.8-0.8-1.8-1.8s0.8-1.8,1.8-1.8h79.6c1,0,1.8,0.8,1.8,1.8S225.8,398,224.9,398z"/>
<path class="st3" d="M224.9,432.6h-79.6c-1,0-1.8-0.8-1.8-1.8s0.8-1.8,1.8-1.8h79.6c1,0,1.8,0.8,1.8,1.8S225.8,432.6,224.9,432.6z"
	/>
<path class="st4" d="M796.7,321H254.8c-5.7,0-10.3-4.6-10.3-10.3V76.8c0-5.7,4.6-10.3,10.3-10.3h541.8c5.7,0,10.3,4.6,10.3,10.3
	v233.9C806.9,316.4,802.3,321,796.7,321z"/>
<g class="st5">
	<path class="st3" d="M796.5,66.5c5.7,0,10.4,4.7,10.4,10.4v233.7c0,5.7-4.7,10.4-10.4,10.4H254.9c-5.7,0-10.4-4.7-10.4-10.4V76.9
		c0-5.7,4.7-10.4,10.4-10.4H796.5 M796.5,61.5H254.9c-8.5,0-15.4,6.9-15.4,15.4v233.7c0,8.5,6.9,15.4,15.4,15.4h541.6
		c8.5,0,15.4-6.9,15.4-15.4V76.9C811.9,68.4,805,61.5,796.5,61.5L796.5,61.5z"/>
</g>
<g>
	<polygon class="st2" points="288.6,132 313.1,126.2 341.6,126.2 356.5,126.8 371.2,130.8 376.1,135.5 377,145.6 377,200.5 
		370.8,207.5 346.2,212.1 316,211.3 294.6,206.7 286.6,198.8 	"/>
</g>
<g>
	<ellipse class="st6" cx="328.2" cy="131.6" rx="36.1" ry="4.9"/>
</g>
<path class="st3" d="M332.2,144.8c-12.6,0-24.2-0.9-32.6-2.5c-10-1.9-14.6-4.6-14.6-8.4s4.6-6.5,14.6-8.4c8.4-1.6,20-2.5,32.6-2.5
	c12.6,0,24.2,0.9,32.6,2.5c10,1.9,14.6,4.6,14.6,8.4s-4.6,6.5-14.6,8.4C356.4,143.9,344.8,144.8,332.2,144.8z M290.1,133.9
	c2.1,2.2,15.8,5.9,42.1,5.9s40-3.7,42.1-5.9c-2.1-2.2-15.8-5.9-42.1-5.9S292.2,131.7,290.1,133.9z"/>
<path class="st3" d="M332.2,167.8c-22.6,0-46.5-4-46.5-11.4c0-1,0.8-1.8,1.8-1.8s1.8,0.8,1.8,1.8c0.2,2.4,15.1,7.9,43,7.9
	c27.9,0,42.8-5.5,43-7.9c0-1,0.8-1.8,1.8-1.8s1.8,0.8,1.8,1.8C378.7,163.8,354.8,167.8,332.2,167.8z"/>
<path class="st6" d="M332.2,170.2c-22.6,0-46-4.1-46-10.9c0-0.7,0.5-1.2,1.2-1.2s1.2,0.5,1.2,1.2c0,2.9,15.4,8.5,43.6,8.5
	s43.6-5.6,43.6-8.5c0-0.7,0.5-1.2,1.2-1.2s1.2,0.5,1.2,1.2C378.2,166.2,354.8,170.2,332.2,170.2z"/>
<path class="st7" d="M332.2,164.5c-22.6,0-46-4.1-46-10.9c0-0.7,0.5-1.2,1.2-1.2s1.2,0.5,1.2,1.2c0,2.9,15.4,8.5,43.6,8.5
	s43.6-5.6,43.6-8.5c0-0.7,0.5-1.2,1.2-1.2s1.2,0.5,1.2,1.2C378.2,160.5,354.8,164.5,332.2,164.5z"/>
<path class="st3" d="M332.2,191.4c-25.2,0-46.5-5.8-46.5-12.7c0-1,0.8-1.8,1.8-1.8s1.8,0.8,1.8,1.8c0.1,2.3,15.1,9.1,43,9.1
	c27.9,0,42.9-6.8,43-9.1c0.1-1,0.9-1.8,1.8-1.7c1,0,1.7,0.8,1.7,1.7C378.7,185.6,357.4,191.4,332.2,191.4z"/>
<path class="st7" d="M332.2,187.9c-24.5,0-46-5.7-46-12.1c0-0.7,0.5-1.2,1.2-1.2s1.2,0.5,1.2,1.2c0,2.8,15.3,9.7,43.6,9.7
	s43.6-6.9,43.6-9.7c0-0.7,0.5-1.2,1.2-1.2s1.2,0.5,1.2,1.2C378.2,182.3,356.7,187.9,332.2,187.9z"/>
<path class="st6" d="M332.2,193.9c-24.5,0-46-5.7-46-12.1c0-0.7,0.5-1.2,1.2-1.2s1.2,0.5,1.2,1.2c0,2.8,15.3,9.7,43.6,9.7
	c28.3,0,43.6-6.9,43.6-9.7c0-0.7,0.5-1.2,1.2-1.2s1.2,0.5,1.2,1.2C378.2,188.2,356.7,193.9,332.2,193.9z"/>
<path class="st3" d="M332.2,214.6c-22.7,0-47.3-5.1-47.3-13.4h5c0-0.1,0-0.2,0-0.2c1.1,2.6,16.7,8.6,42.3,8.6
	c25.5,0,41.2-6,42.3-8.6c0,0,0,0.1,0,0.2h5C379.5,209.5,354.9,214.6,332.2,214.6z"/>
<path class="st7" d="M331.7,209c-24.5,0-46-5.7-46-12.1c0-0.7,0.5-1.2,1.2-1.2s1.2,0.5,1.2,1.2c0,2.8,15.3,9.7,43.6,9.7
	s43.6-6.9,43.6-9.7c0-0.7,0.5-1.2,1.2-1.2s1.2,0.5,1.2,1.2C377.7,203.4,356.2,209,331.7,209z"/>
<path class="st8" d="M355.5,213.1l10.7-1l13.4-43.3v-5.9c0,0-12.9,5.7-20.3,21.3c-7.4,15.6-6.5,28.9-6.5,28.9H355.5z"/>
<rect x="374.5" y="133.9" class="st3" width="5" height="67.3"/>
<g>
	<path class="st9" d="M574.6,179.2l-18.1-10.4v7.4h-38.2c-1.6,0-3,1.3-3,3s1.3,3,3,3h38.2v7.4L574.6,179.2z"/>
</g>
<g>
	<circle class="st4" cx="409.3" cy="209.8" r="51.3"/>
	<path class="st10" d="M409.3,161.6c26.5,0,48.1,21.6,48.1,48.1s-21.6,48.1-48.1,48.1s-48.1-21.6-48.1-48.1S382.7,161.6,409.3,161.6
		 M409.3,158.5c-28.3,0-51.3,23-51.3,51.3s23,51.3,51.3,51.3c28.3,0,51.3-23,51.3-51.3S437.6,158.5,409.3,158.5L409.3,158.5z"/>
</g>
<path class="st6" d="M239.4,451c-1.7,0-3-1.3-3-3v-94.1c0-4.3-3.5-7.8-7.8-7.8c-1.7,0-3-1.3-3-3s1.3-3,3-3c7.6,0,13.8,6.2,13.8,13.8
	V448C242.4,449.7,241.1,451,239.4,451z"/>
<path class="st11" d="M218.4,410.9H110.3c-1.4,0-2.5-1.1-2.5-2.5s1.1-2.5,2.5-2.5h108.2c1.4,0,2.5,1.1,2.5,2.5
	S219.8,410.9,218.4,410.9z"/>
<path class="st11" d="M218.4,445.5H110.3c-1.4,0-2.5-1.1-2.5-2.5s1.1-2.5,2.5-2.5h108.2c1.4,0,2.5,1.1,2.5,2.5
	S219.8,445.5,218.4,445.5z"/>
<path class="st11" d="M218.4,376.4H110.3c-1.4,0-2.5-1.1-2.5-2.5s1.1-2.5,2.5-2.5h108.2c1.4,0,2.5,1.1,2.5,2.5
	S219.8,376.4,218.4,376.4z"/>
<path class="st3" d="M245.1,450.5h-135c-1.4,0-2.5-1.1-2.5-2.5v-98.8c0-4.7,3.9-8.6,8.6-8.6H239c4.7,0,8.6,3.9,8.6,8.6V448
	C247.6,449.4,246.5,450.5,245.1,450.5z M112.6,445.5h130v-96.3c0-2-1.6-3.6-3.6-3.6H116.2c-2,0-3.6,1.6-3.6,3.6V445.5z"/>
<path class="st8" d="M241.6,367.9c-21.3,6.6-36.8,27.4-36.8,52.1c0,8.8,2,17.1,5.5,24.5h32L241.6,367.9z"/>
<path class="st9" d="M508.5,182.1h-10.3c-1.7,0-3-1.3-3-3s1.3-3,3-3h10.3c1.7,0,3,1.3,3,3S510.1,182.1,508.5,182.1z"/>
<path class="st9" d="M488.1,182.2h-3.9c-1.7,0-3-1.3-3-3s1.3-3,3-3h3.9c1.7,0,3,1.3,3,3S489.7,182.2,488.1,182.2z"/>
<g>
	<circle class="st4" cx="261.3" cy="420.7" r="51.3"/>
	<path class="st10" d="M261.3,372.6c26.5,0,48.1,21.6,48.1,48.1s-21.6,48.1-48.1,48.1s-48.1-21.6-48.1-48.1S234.7,372.6,261.3,372.6
		 M261.3,369.4c-28.3,0-51.3,23-51.3,51.3c0,28.3,23,51.3,51.3,51.3s51.3-23,51.3-51.3C312.5,392.4,289.6,369.4,261.3,369.4
		L261.3,369.4z"/>
</g>
<rect x="284.9" y="133.9" class="st3" width="5" height="68.1"/>
<g>
	<polygon class="st9" points="604.5,132 629,126.2 657.6,126.2 672.5,126.8 687.2,130.8 692.1,135.5 692.9,145.6 692.9,200.5 
		686.8,207.5 662.1,212.1 631.9,211.3 610.6,206.7 602.6,198.8 	"/>
</g>
<g>
	<ellipse class="st12" cx="644.4" cy="131.6" rx="36.4" ry="4.9"/>
</g>
<path class="st3" d="M648.1,144.8c-12.6,0-24.2-0.9-32.6-2.5c-10-1.9-14.6-4.6-14.6-8.4s4.6-6.5,14.6-8.4c8.4-1.6,20-2.5,32.6-2.5
	c12.6,0,24.2,0.9,32.6,2.5c10,1.9,14.6,4.6,14.6,8.4s-4.6,6.5-14.6,8.4C672.4,143.9,660.8,144.8,648.1,144.8z M606,133.9
	c2.1,2.2,15.8,5.9,42.1,5.9c26.3,0,40-3.7,42.1-5.9c-2.1-2.2-15.8-5.9-42.1-5.9C621.8,128,608.2,131.7,606,133.9z"/>
<path class="st3" d="M648.1,167.8c-22.6,0-46.5-4-46.5-11.4c0-1,0.8-1.8,1.8-1.8s1.8,0.8,1.8,1.8c0.2,2.4,15.1,7.9,43,7.9
	c27.9,0,42.8-5.5,43-7.9c0-1,0.8-1.8,1.8-1.8s1.8,0.8,1.8,1.8C694.7,163.8,670.7,167.8,648.1,167.8z"/>
<path class="st12" d="M648.1,170.2c-22.6,0-46-4.1-46-10.9c0-0.7,0.5-1.2,1.2-1.2s1.2,0.5,1.2,1.2c0,2.9,15.4,8.5,43.6,8.5
	c28.2,0,43.6-5.6,43.6-8.5c0-0.7,0.5-1.2,1.2-1.2s1.2,0.5,1.2,1.2C694.1,166.2,670.7,170.2,648.1,170.2z"/>
<path class="st13" d="M648.1,164.5c-22.6,0-46-4.1-46-10.9c0-0.7,0.5-1.2,1.2-1.2s1.2,0.5,1.2,1.2c0,2.9,15.4,8.5,43.6,8.5
	c28.2,0,43.6-5.6,43.6-8.5c0-0.7,0.5-1.2,1.2-1.2s1.2,0.5,1.2,1.2C694.1,160.5,670.7,164.5,648.1,164.5z"/>
<path class="st3" d="M648.1,191.4c-25.2,0-46.5-5.8-46.5-12.7c0-1,0.8-1.8,1.8-1.8s1.8,0.8,1.8,1.8c0.1,2.3,15.1,9.1,43,9.1
	s42.9-6.8,43-9.1c0.1-0.9,0.8-1.7,1.8-1.7c0,0,0,0,0,0c1,0,1.7,0.8,1.7,1.7C694.7,185.6,673.4,191.4,648.1,191.4z"/>
<path class="st13" d="M648.2,187.9c-24.5,0-46-5.7-46-12.1c0-0.7,0.5-1.2,1.2-1.2s1.2,0.5,1.2,1.2c0,2.8,15.3,9.7,43.6,9.7
	s43.6-6.9,43.6-9.7c0-0.7,0.5-1.2,1.2-1.2s1.2,0.5,1.2,1.2C694.1,182.3,672.7,187.9,648.2,187.9z"/>
<path class="st12" d="M648.1,193.9c-24.5,0-46-5.7-46-12.1c0-0.7,0.5-1.2,1.2-1.2s1.2,0.5,1.2,1.2c0,2.8,15.3,9.7,43.6,9.7
	s43.6-6.9,43.6-9.7c0-0.7,0.5-1.2,1.2-1.2s1.2,0.5,1.2,1.2C694.1,188.2,672.6,193.9,648.1,193.9z"/>
<path class="st3" d="M648.1,214.6c-22.7,0-47.3-5.1-47.3-13.4h5c0-0.1,0-0.2,0-0.2c1.1,2.6,16.7,8.6,42.3,8.6s41.2-6,42.3-8.6
	c0,0,0,0.1,0,0.2h5C695.4,209.5,670.9,214.6,648.1,214.6z"/>
<path class="st13" d="M647.7,209c-24.5,0-46-5.7-46-12.1c0-0.7,0.5-1.2,1.2-1.2s1.2,0.5,1.2,1.2c0,2.8,15.3,9.7,43.6,9.7
	s43.6-6.9,43.6-9.7c0-0.7,0.5-1.2,1.2-1.2s1.2,0.5,1.2,1.2C693.6,203.4,672.2,209,647.7,209z"/>
<path class="st8" d="M671.4,213.1l10.7-1l13.4-43.3v-5.9c0,0-12.9,5.7-20.3,21.3c-7.4,15.6-6.5,28.9-6.5,28.9H671.4z"/>
<rect x="690.4" y="133.9" class="st3" width="5" height="67.3"/>
<g>
	<circle class="st4" cx="725.2" cy="209.8" r="51.3"/>
	<path class="st10" d="M725.2,161.6c26.5,0,48.1,21.6,48.1,48.1s-21.6,48.1-48.1,48.1s-48.1-21.6-48.1-48.1S698.7,161.6,725.2,161.6
		 M725.2,158.5c-28.3,0-51.3,23-51.3,51.3s23,51.3,51.3,51.3c28.3,0,51.3-23,51.3-51.3S753.5,158.5,725.2,158.5L725.2,158.5z"/>
</g>
<rect x="600.9" y="133.9" class="st3" width="5" height="68.1"/>
<g id="Mark__x28_full_color_x29__14_">
	<g>
		<defs>
			<rect id="SVGID_1_" x="689.1" y="173.6" width="72.2" height="72.2"/>
		</defs>
		<clipPath id="SVGID_2_">
			<use xlink:href="#SVGID_1_"  style="overflow:visible;"/>
		</clipPath>
		<g class="st14">
			<defs>
				<rect id="SVGID_3_" x="689.1" y="173.6" width="72.2" height="72.2"/>
			</defs>
			<clipPath id="SVGID_4_">
				<use xlink:href="#SVGID_3_"  style="overflow:visible;"/>
			</clipPath>
			<path class="st15" d="M755.7,229.1c10.7-16.8,5.7-39.2-11.1-49.8c-16.8-10.7-39.2-5.7-49.8,11.1c-10.7,16.8-5.7,39.2,11.1,49.8
				C722.7,250.9,745,246,755.7,229.1"/>
			<path class="st16" d="M751,209.2c0-14.2-11.5-25.7-25.7-25.7c-14.2,0-25.7,11.5-25.7,25.7c0,14.2,11.5,25.7,25.7,25.7
				C739.4,235,751,223.5,751,209.2"/>
			<path class="st15" d="M731.6,202.3c-1.5,3.8-0.4,7.8,2.5,9c2.9,1.2,6.6-0.9,8.1-4.6c1.5-3.8,0.4-7.8-2.5-9
				C736.8,196.5,733.2,198.6,731.6,202.3"/>
			<path class="st15" d="M717.9,233.2c0,4.4,3.3,8,7.4,8c4.1,0,7.4-3.6,7.4-8s-3.3-8-7.4-8C721.2,225.2,717.9,228.8,717.9,233.2"/>
			<path class="st15" d="M708.4,206.7c-1.5-3.8-0.4-7.8,2.5-9c2.9-1.2,6.6,0.9,8.1,4.6c1.5,3.8,0.4,7.8-2.5,9
				C713.6,212.5,710,210.5,708.4,206.7"/>
			<path class="st17" d="M738.3,234c8-4.3,13.6-12.3,14.6-21.7l4.5,5.1c-2.5,10.1-9.6,18.4-19,22.5c0.1-0.8,0.1-1.7,0.1-2.7
				C738.4,236.1,738.4,235,738.3,234 M716.2,235.8c2.8,0.9,5.8,1.5,8.9,1.5c3.3,0,6.4-0.6,9.3-1.6c-0.6,2.4-1.6,4.6-2.8,6.2
				c-2.1,0.4-4.3,0.6-6.5,0.6c-2.1,0-4.1-0.2-6.1-0.6C717.8,240.4,716.9,238.2,716.2,235.8 M712.2,234.1c-8.1-4.3-13.8-12.4-14.7-22
				l-4.3,5.7c2.6,10,9.7,18.2,19.1,22.1c-0.1-0.8-0.1-1.8-0.1-2.8C712.1,236.1,712.1,235.1,712.2,234.1 M747.5,192.9l3.2-4.5
				c-2.2-2.7-4.9-5-7.9-6.9l-5.3,3.1C741.4,186.5,744.9,189.3,747.5,192.9 M707.9,181.2c-3.1,1.9-5.9,4.3-8.2,7.1l3.6,4
				c2.6-3.3,5.9-6,9.7-7.9L707.9,181.2z"/>
			<path class="st17" d="M706.9,209.3c0-8.3,5.6-15.4,13.2-17.6c0.3-1,0.8-1.8,1.3-2.5c-9.4,1.8-16.6,10.1-16.6,20.1
				c0,7.1,3.6,13.3,9,17c0.2-0.7,0.5-1.4,0.8-2C709.9,220.9,706.9,215.4,706.9,209.3"/>
			<path class="st17" d="M710.5,203.1l1.6,0.4c1.4-3.2,3.9-5.8,7.1-7.3c0-0.6,0.1-1.2,0.2-1.8C715.3,196,712.1,199.1,710.5,203.1"/>
			<path class="st17" d="M711,211.5h-1.6c0.6,4.3,2.9,8,6.2,10.5c0.3-0.5,0.5-0.9,0.8-1.3C713.6,218.5,711.6,215.2,711,211.5"/>
			<path class="st17" d="M738.4,203.6l1.5-0.4c-1.8-4.5-5.7-8-10.4-9.3c0.1,0.6,0.2,1.1,0.3,1.7
				C733.7,196.9,736.8,199.9,738.4,203.6"/>
			<polygon class="st17" points="741.2,207.3 739.5,205.5 734,206.4 733.2,208.9 735.7,210.6 740.3,208.9 			"/>
			<polygon class="st17" points="709.5,207.3 711.1,205.5 716.6,206.4 717.5,208.9 714.9,210.6 710.3,208.9 			"/>
			<path class="st17" d="M740.4,214.1c0.3-0.8,0.5-1.7,0.6-2.6h-1.6c-0.1,0.5-0.2,1-0.3,1.4C739.6,213.4,740,213.7,740.4,214.1"/>
			<path class="st17" d="M735.4,219.4c-0.4,0.4-0.8,0.8-1.3,1.2c0.3,0.4,0.6,0.9,0.9,1.3c0.7-0.5,1.4-1.1,2-1.8
				C736.4,219.9,735.9,219.7,735.4,219.4"/>
			<path class="st17" d="M743.6,209.3c0,2.4-0.5,4.7-1.3,6.8c0.6,0.7,1.1,1.4,1.4,2.1c1.3-2.7,2-5.7,2-8.9c0-10.6-8-19.3-18.3-20.3
				c0.5,0.6,1,1.4,1.3,2.3C737.2,192.9,743.6,200.3,743.6,209.3"/>
			<path class="st17" d="M739.4,221c-1,1.2-2.1,2.3-3.3,3.2c0.3,0.6,0.6,1.3,0.8,2c1.9-1.3,3.6-3,5-4.8
				C741.1,221.3,740.3,221.2,739.4,221"/>
			<path class="st17" d="M727,206.8L727,206.8C727,206.8,727,206.8,727,206.8l-1.8-18h-1.6l-1.5,18.1l0,0c0,0,0,0.1,0,0.1
				c0,0.3,0,0.6,0.1,0.9c0,0.3,0.1,0.6,0.3,0.9c0.3,0.8,0.8,1.4,1.4,1.7c0.1,0.1,0.3,0.2,0.4,0.3c0,0,0.1,0,0.1,0.1l0,0l17.9,9.8
				l0.9-1.3L727,206.8z"/>
			<path class="st17" d="M729.3,231.4c-1.4,0-2.6-0.9-2.9-2.2l6.6-2.5l-1.6-3.9l-6.2,2.5l-6.2-2.5l-1.6,3.9l6.5,2.6
				c-0.4,1.3-1.5,2.2-2.9,2.2c-0.1,0-0.2,0-0.3,0l-1.3,1.9c0.5,0.2,1,0.3,1.6,0.3c1.7,0,3.1-0.8,4.1-2c0.9,1.2,2.4,2,4.1,2
				c0.6,0,1.2-0.1,1.8-0.3l-1.3-1.8C729.6,231.3,729.4,231.4,729.3,231.4"/>
			<path class="st17" d="M745.8,193.7l-2.1,2.4c2.6,3.7,4.2,8.2,4.2,13c0,8-4.1,15-10.4,19c0.3,1.1,0.5,2.2,0.7,3.3
				c7.7-4.5,12.8-12.8,12.8-22.3C751,203.4,749,198.1,745.8,193.7"/>
			<path class="st17" d="M702.6,209.2c0-4.9,1.5-9.3,4.1-13l-2.1-2.4c-3.2,4.3-5.2,9.7-5.2,15.5c0,9.6,5.2,17.9,13,22.4
				c0.2-1.1,0.4-2.2,0.7-3.3C706.8,224.3,702.6,217.3,702.6,209.2"/>
			<path class="st17" d="M725.2,183.5c-4,0-7.7,0.9-11,2.5l1.6,2.8c2.9-1.3,6.1-2.1,9.5-2.1c3.4,0,6.6,0.7,9.5,2.1l1.6-2.8
				C732.9,184.4,729.2,183.5,725.2,183.5"/>
		</g>
	</g>
</g>
<path class="st18" d="M552.7,112.4C552.7,112.4,552.7,112.4,552.7,112.4c-1,0-1.8-0.8-1.8-1.8c0-6.3-5.7-6.6-6-6.6
	c-1,0-1.7-0.8-1.7-1.8c0-1,0.8-1.7,1.8-1.7c5.7,0,5.9-5.3,5.9-5.9c0-1,0.8-1.8,1.8-1.8c0,0,0,0,0,0c1,0,1.8,0.8,1.8,1.8
	c0,6,5.5,6.2,5.8,6.2c1,0,1.7,0.8,1.7,1.8s-0.8,1.7-1.8,1.7c-5.4,0-5.7,6-5.7,6.3C554.4,111.6,553.6,112.4,552.7,112.4z
	 M550.6,102.4c0.8,0.6,1.6,1.3,2.2,2.2c0.5-0.8,1.2-1.5,1.9-2.1c-0.8-0.6-1.5-1.2-2.1-2.1C552.1,101.2,551.4,101.9,550.6,102.4z"/>
<path class="st18" d="M528.7,152.2C528.7,152.2,528.7,152.2,528.7,152.2c-1,0-1.8-0.8-1.8-1.8c0-6.3-5.7-6.6-6-6.6
	c-1,0-1.7-0.8-1.7-1.8c0-1,0.8-1.7,1.8-1.7c5.7,0,5.9-5.3,5.9-5.9c0-1,0.8-1.8,1.8-1.8c0,0,0,0,0,0c1,0,1.8,0.8,1.8,1.8
	c0,6,5.5,6.2,5.8,6.2c1,0,1.7,0.8,1.7,1.8s-0.8,1.7-1.8,1.7c-5.4,0-5.7,6-5.7,6.3C530.4,151.5,529.6,152.2,528.7,152.2z
	 M526.6,142.3c0.8,0.6,1.6,1.3,2.2,2.2c0.5-0.8,1.2-1.5,1.9-2.1c-0.8-0.6-1.5-1.2-2.1-2.1C528.1,141,527.4,141.7,526.6,142.3z"/>
<path class="st18" d="M571.6,255.2C571.6,255.2,571.6,255.2,571.6,255.2c-1,0-1.8-0.8-1.8-1.8c0-6.3-5.7-6.6-6-6.6
	c-1,0-1.7-0.8-1.7-1.8c0-1,0.8-1.7,1.8-1.7c5.7,0,5.9-5.3,5.9-5.9c0-1,0.8-1.8,1.8-1.8c0,0,0,0,0,0c1,0,1.8,0.8,1.8,1.8
	c0,5.8,5.2,6.2,5.8,6.2c1,0,1.7,0.9,1.7,1.8c0,1-0.8,1.7-1.8,1.7c-5.3,0-5.7,5.7-5.7,6.3C573.4,254.5,572.6,255.2,571.6,255.2z
	 M569.6,245.3c0.8,0.6,1.6,1.3,2.2,2.2c0.5-0.8,1.2-1.5,1.9-2.1c-0.8-0.6-1.5-1.2-2.1-2.1C571,244,570.4,244.7,569.6,245.3z"/>
<path class="st18" d="M493.4,249.1C493.4,249.1,493.4,249.1,493.4,249.1c-1,0-1.8-0.8-1.8-1.8c0-6.3-5.7-6.6-6-6.6
	c-1,0-1.7-0.8-1.7-1.8c0-1,0.8-1.7,1.8-1.7c5.7,0,5.9-5.3,5.9-5.9c0-1,0.8-1.8,1.8-1.8c1,0,1.8,0.8,1.8,1.8c0,6,5.5,6.2,5.8,6.2
	c1,0,1.7,0.8,1.7,1.8c0,1-0.8,1.7-1.8,1.7c-5.4,0-5.7,6-5.7,6.3C495.2,248.3,494.4,249.1,493.4,249.1z M491.4,239.1
	c0.8,0.6,1.6,1.3,2.2,2.2c0.5-0.8,1.2-1.5,1.9-2.1c-0.8-0.6-1.5-1.2-2.1-2.1C492.8,237.9,492.2,238.5,491.4,239.1z"/>
<path class="st18" d="M488.2,128.4C488.2,128.4,488.2,128.4,488.2,128.4c-1,0-1.8-0.8-1.8-1.8c0-6.3-5.7-6.6-6-6.6
	c-1,0-1.7-0.8-1.7-1.8c0-1,0.8-1.7,1.8-1.7c5.7,0,5.9-5.3,5.9-5.9c0-1,0.8-1.8,1.8-1.8c0,0,0,0,0,0c1,0,1.8,0.8,1.8,1.8
	c0,5.8,5.2,6.2,5.8,6.2c1,0,1.7,0.9,1.7,1.8c0,1-0.8,1.7-1.8,1.7c-5.3,0-5.7,5.7-5.7,6.3C489.9,127.7,489.1,128.4,488.2,128.4z
	 M486.1,118.5c0.8,0.6,1.6,1.3,2.2,2.2c0.5-0.8,1.2-1.5,1.9-2.1c-0.8-0.6-1.5-1.2-2.1-2.1C487.6,117.2,486.9,117.9,486.1,118.5z"/>
<path class="st18" d="M531.7,228.5C531.7,228.5,531.6,228.5,531.7,228.5c-1,0-1.8-0.8-1.8-1.8c0-6.3-5.7-6.6-6-6.6
	c-1,0-1.7-0.8-1.7-1.8c0-1,0.8-1.7,1.8-1.7c5.7,0,5.9-5.3,5.9-5.9c0-1,0.8-1.8,1.8-1.8c0,0,0,0,0,0c1,0,1.8,0.8,1.8,1.8
	c0,6,5.5,6.2,5.8,6.2c1,0,1.7,0.8,1.7,1.8s-0.8,1.7-1.8,1.7c-5.3,0-5.7,5.7-5.7,6.3C533.4,227.8,532.6,228.5,531.7,228.5z
	 M529.6,218.5c0.8,0.6,1.6,1.3,2.2,2.2c0.5-0.8,1.2-1.5,1.9-2.1c-0.8-0.6-1.5-1.2-2.1-2.1C531.1,217.3,530.4,218,529.6,218.5z"/>
<g id="Layer_x0020_3">
	<g>
		<path d="M277.1,438.3c0.4-3.5,0.3-4.1,2.9-3.5l0.7,0.1c2,0.1,4.7-0.3,6.2-1.1c3.4-1.6,5.3-4.2,2-3.5c-7.6,1.6-8.1-1-8.1-1
			c8-11.8,11.3-26.9,8.4-30.5c-7.8-10-21.4-5.3-21.7-5.2l-0.1,0c-1.5-0.3-3.2-0.5-5-0.5c-3.4-0.1-6,0.9-8,2.4c0,0-24.2-10-23.1,12.6
			c0.2,4.8,6.9,36.3,14.8,26.8c2.9-3.5,5.7-6.4,5.7-6.4c1.4,0.9,3,1.4,4.8,1.2l0.1-0.1c0,0.4,0,0.9,0.1,1.4c-2,2.3-1.4,2.7-5.5,3.5
			c-4.1,0.8-1.7,2.4-0.1,2.8c1.9,0.5,6.4,1.2,9.4-3l-0.1,0.5c0.8,0.6,0.7,4.6,0.9,7.4c0.1,2.8,0.3,5.5,0.9,7
			c0.6,1.6,1.3,5.6,6.6,4.4C273.4,452.5,276.8,451.1,277.1,438.3"/>
		<path d="M267.1,456.5c-3.5,0-6-2-7.3-6c-0.1-0.2-0.1-0.3-0.1-0.4c-0.7-1.8-0.9-4.5-1.1-7.9c0-0.5,0-1-0.1-1.6c0-0.3,0-0.7,0-1.1
			c-2.3,1-5,1.2-7.9,0.5c-1.3-0.3-2.6-1-3.5-2c-2.3,1.9-4.5,1.6-5.7,1.2c-8.6-2.9-12.7-28.7-12.8-30.9c-0.4-7.1,1.6-12.2,5.7-15.1
			c6.5-4.6,16.2-2,19.8-0.7c2.4-1.4,5.2-2.1,8.4-2.1c1.7,0,3.3,0.2,4.8,0.4c4-1.3,16.5-3.5,24.2,6.3c4,5.1-0.1,20-6.5,31
			c0.8,0,1.9-0.1,3.4-0.4c3.7-0.8,4.7,1.4,4.9,2.1c1.1,3.4-3.7,6-5.2,6.7c-1.9,0.9-5,1.4-7.6,1.3l-0.6,0c0,0.1,0,0.2,0,0.3l-0.1,0.5
			c-0.3,13.1-3.9,16.3-10.4,17.7C268.6,456.4,267.8,456.5,267.1,456.5z M262.3,432.4c1.6,1.3,1.7,3.6,1.9,8c0,0.5,0,1,0,1.5
			c0.1,1.4,0.2,4.8,0.7,6.2c0.1,0.2,0.1,0.4,0.2,0.6c0.6,1.8,0.8,2.5,3.2,2c3.3-0.7,5.7-1.2,6-12.5l0-0.3l0.1-0.6
			c0.2-2.1,0.4-3.7,1.9-4.8c0.9-0.7,2-0.8,2.9-0.7c-0.8-0.8-1-1.6-1.1-1.9l-0.2-1.2l0.7-1c7.9-11.8,10.1-25.2,8.5-27.2
			c-6.2-8-17.1-4.7-18.3-4.3l-0.2,0.1l-1,0.2l-0.6-0.1c-1.4-0.3-2.9-0.4-4.5-0.5c-2.5-0.1-4.6,0.6-6.2,1.8l-1.3,1l-1.5-0.6
			c-2.9-1.2-11.4-3.6-15.9-0.4c-2.5,1.7-3.6,5.2-3.3,10.2c0.1,1.7,1.3,8.3,3.2,14.6c2.7,8.8,5.1,11.1,5.8,11.3c0,0,0.3-0.1,0.8-0.8
			c2.9-3.5,5.7-6.4,5.8-6.6l1.6-1.7l2,1.3c0.7,0.4,1.4,0.7,2.2,0.8l4.7-4l-0.7,6.9c0,0.1,0,0.3,0,0.6l0.2,1.3l-0.9,1c0,0,0,0,0,0
			l2.2,1L262.3,432.4z"/>
	</g>
	<path class="st19" d="M289,430.3c-7.6,1.6-8.1-1-8.1-1c8-11.8,11.3-26.9,8.4-30.5c-7.8-10-21.4-5.3-21.7-5.2l-0.1,0
		c-1.5-0.3-3.2-0.5-5-0.5c-3.4-0.1-6,0.9-8,2.4c0,0-24.2-10-23.1,12.6c0.2,4.8,6.9,36.3,14.8,26.8c2.9-3.5,5.7-6.4,5.7-6.4
		c1.4,0.9,3,1.4,4.8,1.2l0.1-0.1c0,0.4,0,0.9,0.1,1.4c-2,2.3-1.4,2.7-5.5,3.5c-4.1,0.8-1.7,2.4-0.1,2.8c1.9,0.5,6.4,1.2,9.4-3
		l-0.1,0.5c0.8,0.6,1.4,4.2,1.3,7.4c-0.1,3.2-0.2,5.4,0.5,7.1c0.6,1.7,1.3,5.6,6.6,4.4c4.5-1,6.8-3.4,7.1-7.6
		c0.2-2.9,0.7-2.5,0.8-5.1l0.4-1.2c0.5-4,0.1-5.3,2.8-4.7l0.7,0.1c2,0.1,4.7-0.3,6.2-1.1C290.3,432.2,292.3,429.6,289,430.3
		L289,430.3z"/>
	<path class="st4" d="M267.4,454.7c-4.5,0-5.9-3.6-6.5-5c-0.9-2.1-1-10.1-0.8-17.1c0-0.5,0.4-0.9,1-0.9c0.5,0,0.9,0.4,0.9,1
		c-0.2,7.8,0.1,14.8,0.7,16.4c1,2.4,2.4,4.5,6.6,3.6c4-0.9,5.4-2.3,6.1-6.2c0.5-3,1.5-11.4,1.6-13c0-0.5,0.5-0.9,1-0.9
		c0.5,0,0.9,0.5,0.9,1c-0.1,1.7-1.1,10.1-1.7,13.2c-0.8,4.6-2.8,6.7-7.5,7.7C268.8,454.6,268.1,454.7,267.4,454.7z"/>
	<path class="st4" d="M243.2,437.5c-0.4,0-0.8-0.1-1.2-0.2c-7-2.3-11.4-26.3-11.5-29.3c-0.3-6.4,1.3-11,4.9-13.5
		c7.1-5,19-0.2,19.5,0c0.5,0.2,0.7,0.7,0.5,1.2c-0.2,0.5-0.7,0.7-1.2,0.5c-0.1,0-11.5-4.6-17.7-0.2c-3,2.1-4.4,6.1-4.1,11.9
		c0.2,4.2,4.9,25.8,10.3,27.6c0.3,0.1,1.4,0.5,2.9-1.3c2.9-3.5,5.5-6.2,5.6-6.3c0.4-0.4,1-0.4,1.3,0c0.4,0.4,0.4,1,0,1.3
		c0,0-2.6,2.7-5.5,6.2C245.6,437,244.3,437.5,243.2,437.5z"/>
	<path class="st4" d="M280.9,430.2c-0.2,0-0.4-0.1-0.5-0.2c-0.4-0.3-0.5-0.9-0.3-1.3c8-11.9,10.9-26.4,8.5-29.4
		c-7.2-9.2-19.4-5.3-20.5-4.9c0,0-0.1,0-0.1,0.1c-0.5,0.1-1-0.1-1.2-0.5c-0.2-0.4,0-0.9,0.4-1.2c0,0,0.1,0,0.2-0.1l0,0
		c0,0,0.1,0,0.1,0c2.3-0.8,15-4.2,22.5,5.5c3.4,4.4-0.8,20.4-8.4,31.6C281.5,430,281.2,430.2,280.9,430.2z"/>
	<path class="st4" d="M281.3,435.7c-1.4,0-2.6-0.2-3.4-0.6c-0.8-0.5-0.9-1.1-1-1.5c-0.2-3.6,1.7-4.3,2.8-4.6
		c-0.1-0.2-0.3-0.4-0.5-0.6c-0.6-0.7-1.4-1.8-2.1-3.3c-0.1-0.2-0.4-0.8-0.8-1.4c-1.9-3.5-6-10.8-3.4-14.5c1.2-1.7,3.6-2.4,7.1-2.1
		c-1.1-3.2-6.1-12.9-17.6-13.1c-3.5,0-6.4,1-8.5,3.2c-4.8,4.9-4.7,13.7-4.7,13.8c0,0.5-0.4,0.9-0.9,1c-0.5,0-0.9-0.4-1-0.9
		c0-0.4-0.2-9.7,5.2-15.2c2.5-2.6,5.9-3.8,9.9-3.8c14.4,0.2,19.5,13.9,19.7,15.7c0.1,1-0.7,1.2-0.8,1.2l-0.3,0
		c-2.4-0.4-5.4-0.5-6.5,1.1c-1.9,2.8,1.9,9.6,3.5,12.5c0.4,0.7,0.7,1.3,0.9,1.6c0.5,1.3,1.2,2.2,1.8,2.9c0.5,0.6,0.9,1.2,1.1,1.8
		c0.1,0.1,1.1,1.6,7,0.3c1.5-0.3,2.5,0,2.8,0.8c0.6,1.7-2.5,3.6-4.2,4.4C285.8,435.2,283.4,435.7,281.3,435.7z M278.8,433.4
		c0.7,0.7,5.2,0.6,7.7-0.6c1.3-0.6,2.1-1.2,2.7-1.7c0,0,0,0,0,0c-3.8,0.8-6.6,0.7-8.1-0.3c-0.1-0.1-0.2-0.1-0.3-0.2
		c-0.2,0.1-0.3,0.1-0.4,0.1C279.5,431,278.7,431.2,278.8,433.4z"/>
	<path class="st4" d="M254,438.4c-1,0-1.9-0.1-3-0.4c-0.3-0.1-2.9-0.8-2.9-2.4c0-1.5,2.2-2,3-2.1c2.9-0.6,3.1-0.8,4-2
		c0.3-0.3,0.6-0.8,1-1.3l0,0c1.5-1.7,2.9-1.1,3.5-0.8c0.9,0.4,1.7,1.3,2.1,2.5c0.3,1,0.2,2-0.4,2.8C259.6,437.1,257,438.4,254,438.4
		z M250.2,435.6c0.3,0.2,0.7,0.4,1.2,0.5c2.5,0.6,6,0.7,8.4-2.7c0.3-0.4,0.2-0.9,0.1-1.2c-0.2-0.6-0.6-1.1-1-1.3
		c-0.5-0.2-0.8-0.3-1.4,0.4h0c-0.4,0.5-0.7,0.8-1,1.2c-1.1,1.5-1.7,1.9-5.1,2.6C250.9,435.4,250.5,435.5,250.2,435.6z M256.9,430.8
		L256.9,430.8L256.9,430.8z"/>
	<path class="st4" d="M256.7,431.7c-0.5,0-0.9-0.3-0.9-0.8c0-0.1,0-0.2,0-0.4c-2.2-0.1-4.3-1-5.9-2.7c-2.1-2.1-3-5.1-2.6-8.2
		c0.5-3.3,0.3-6.2,0.2-7.7c0-0.4,0-0.8,0-1c0-0.3,0-1,2.5-2.3c0.9-0.4,2.6-1.2,4.5-1.4c3.2-0.3,5.3,1.1,5.9,4
		c1.7,7.7,0.1,11.2-1,13.7c-0.2,0.5-0.4,0.9-0.6,1.3l-0.1,0.4c-0.6,1.6-1.1,2.9-0.9,4c0.1,0.5-0.3,1-0.8,1.1
		C256.8,431.7,256.8,431.7,256.7,431.7z M249.3,411.3c0,0.2,0,0.4,0,0.6c0.1,1.6,0.3,4.6-0.2,8.1c-0.3,2.5,0.4,4.9,2.1,6.6
		c1.3,1.4,3,2.1,4.8,2.1c0.2-0.8,0.5-1.7,0.9-2.6l0.1-0.4c0.2-0.5,0.4-0.9,0.6-1.4c1.1-2.4,2.4-5.4,0.9-12.5c-0.3-1.4-1-2.2-2.2-2.5
		C253.7,408.6,250.1,410.6,249.3,411.3z M249.2,411.4L249.2,411.4L249.2,411.4z"/>
	<g>
		<path class="st4" d="M254.5,410.9c0,0.3,0.6,1.1,1.3,1.2c0.8,0.1,1.5-0.5,1.5-0.8c0-0.3-0.6-0.6-1.3-0.8
			C255.2,410.4,254.5,410.6,254.5,410.9L254.5,410.9z"/>
		<path class="st4" d="M256,412.4c-0.1,0-0.1,0-0.2,0c-0.5-0.1-1-0.4-1.3-0.8c-0.1-0.2-0.3-0.5-0.3-0.8c0-0.1,0.1-0.3,0.2-0.4
			c0.3-0.2,0.9-0.3,1.6-0.2c0.7,0.1,1.2,0.3,1.5,0.7c0.1,0.2,0.1,0.3,0.1,0.4c0,0.3-0.3,0.6-0.6,0.8
			C256.7,412.3,256.3,412.4,256,412.4z M254.8,410.9c0,0.2,0.5,0.8,1.1,0.9c0.6,0.1,1.1-0.4,1.1-0.6c0-0.1-0.4-0.3-1.1-0.4
			C255.3,410.7,254.9,410.8,254.8,410.9z"/>
	</g>
	<g>
		<path class="st4" d="M278.4,410.2c0,0.3-0.6,1.1-1.3,1.2c-0.8,0.1-1.5-0.5-1.5-0.8c0-0.3,0.6-0.6,1.3-0.8
			C277.7,409.8,278.4,409.9,278.4,410.2L278.4,410.2z"/>
		<path class="st4" d="M276.9,411.6c-0.8,0-1.4-0.6-1.5-1c-0.1-0.5,0.7-0.8,1.5-0.9c0.4-0.1,0.8,0,1.1,0c0.4,0.1,0.6,0.2,0.6,0.5
			l0,0c0,0.2-0.2,0.5-0.2,0.6c-0.3,0.4-0.8,0.7-1.2,0.8C277,411.6,276.9,411.6,276.9,411.6z M277.4,410c-0.1,0-0.3,0-0.5,0
			c-0.8,0.1-1.2,0.4-1.2,0.6c0,0.2,0.6,0.8,1.3,0.7c0.4-0.1,0.8-0.4,1-0.7c0.2-0.2,0.2-0.4,0.2-0.4l0,0c0-0.1-0.1-0.1-0.4-0.2
			C277.8,410,277.6,410,277.4,410z"/>
	</g>
	<path class="st4" d="M279.5,427.9c-0.2,0-0.4-0.1-0.5-0.2c-0.4-0.3-0.5-0.9-0.3-1.3c1.8-2.7,1.5-5.5,1.2-8.2
		c-0.1-1.2-0.3-2.4-0.2-3.5c0-1.2,0.2-2.2,0.3-3.1c0.2-1.1,0.3-2.2,0.3-3.4c0-0.5,0.4-1,0.9-1c0.5,0,1,0.4,1,0.9
		c0.1,1.4-0.1,2.6-0.3,3.8c-0.1,0.9-0.3,1.8-0.3,2.9c0,1,0.1,2.1,0.2,3.2c0.3,2.9,0.7,6.2-1.5,9.5
		C280.1,427.7,279.8,427.9,279.5,427.9z"/>
	<path class="st20" d="M228.6,398.6"/>
</g>
<g id="Layer_x0020_3_1_">
	<g>
		<path d="M425,227.3c0.4-3.5,0.3-4.1,2.9-3.5l0.7,0.1c2,0.1,4.7-0.3,6.2-1.1c3.4-1.6,5.3-4.2,2-3.5c-7.6,1.6-8.1-1-8.1-1
			c8-11.8,11.3-26.9,8.4-30.5c-7.8-10-21.4-5.3-21.7-5.2l-0.1,0c-1.5-0.3-3.2-0.5-5-0.5c-3.4-0.1-6,0.9-8,2.4c0,0-24.2-10-23.1,12.6
			c0.2,4.8,6.9,36.3,14.8,26.8c2.9-3.5,5.7-6.4,5.7-6.4c1.4,0.9,3,1.4,4.8,1.2l0.1-0.1c0,0.4,0,0.9,0.1,1.4c-2,2.3-1.4,2.7-5.5,3.5
			c-4.1,0.8-1.7,2.4-0.1,2.8c1.9,0.5,6.4,1.2,9.4-3l-0.1,0.5c0.8,0.6,0.7,4.6,0.9,7.4c0.1,2.8,0.3,5.5,0.9,7
			c0.6,1.6,1.3,5.6,6.6,4.4C421.3,241.6,424.7,240.2,425,227.3"/>
		<path d="M415,245.5c-3.5,0-6-2-7.3-6c-0.1-0.2-0.1-0.3-0.1-0.4c-0.7-1.8-0.9-4.5-1.1-7.9c0-0.5,0-1-0.1-1.6c0-0.3,0-0.7,0-1.1
			c-2.3,1-5,1.2-7.9,0.5c-1.3-0.3-2.6-1-3.5-2c-2.3,1.9-4.5,1.6-5.7,1.2c-8.6-2.9-12.7-28.7-12.8-30.9c-0.4-7.1,1.6-12.2,5.7-15.1
			c6.5-4.6,16.2-2,19.8-0.7c2.4-1.4,5.2-2.1,8.4-2.1c1.7,0,3.3,0.2,4.8,0.4c4-1.3,16.5-3.5,24.2,6.3c4,5.1-0.1,20-6.5,31
			c0.8,0,1.9-0.1,3.4-0.4c3.7-0.8,4.7,1.4,4.9,2.1c1.1,3.4-3.7,6-5.2,6.7c-1.9,0.9-5,1.4-7.6,1.3l-0.6,0c0,0.1,0,0.2,0,0.3l-0.1,0.5
			c-0.3,13.1-3.9,16.3-10.4,17.7C416.5,245.4,415.7,245.5,415,245.5z M410.2,221.5c1.6,1.3,1.7,3.6,1.9,8c0,0.5,0,1,0,1.5
			c0.1,1.4,0.2,4.8,0.7,6.2c0.1,0.2,0.1,0.4,0.2,0.6c0.6,1.8,0.8,2.5,3.2,2c3.3-0.7,5.7-1.2,6-12.5l0-0.3l0.1-0.6
			c0.2-2.1,0.4-3.7,1.9-4.8c0.9-0.7,2-0.8,2.9-0.7c-0.8-0.8-1-1.6-1.1-1.9l-0.2-1.2l0.7-1c7.9-11.8,10.1-25.2,8.5-27.2
			c-6.2-8-17.1-4.7-18.3-4.3l-0.2,0.1l-1,0.2l-0.6-0.1c-1.4-0.3-2.9-0.4-4.5-0.5c-2.5,0-4.6,0.6-6.2,1.8l-1.3,1l-1.5-0.6
			c-2.9-1.2-11.4-3.6-15.9-0.4c-2.5,1.7-3.6,5.2-3.3,10.2c0.1,1.7,1.3,8.3,3.2,14.6c2.7,8.8,5.1,11.1,5.8,11.3c0,0,0.3-0.1,0.8-0.8
			c2.9-3.5,5.7-6.4,5.8-6.6l1.6-1.7l2,1.3c0.7,0.4,1.4,0.7,2.2,0.8l4.7-4l-0.7,6.9c0,0.1,0,0.3,0,0.7l0.2,1.3l-0.9,1c0,0,0,0,0,0
			l2.2,1L410.2,221.5z"/>
	</g>
	<path class="st19" d="M436.9,219.4c-7.6,1.6-8.1-1-8.1-1c8-11.8,11.3-26.9,8.4-30.5c-7.8-10-21.4-5.3-21.7-5.2l-0.1,0
		c-1.5-0.3-3.2-0.5-5-0.5c-3.4-0.1-6,0.9-8,2.4c0,0-24.2-10-23.1,12.6c0.2,4.8,6.9,36.3,14.8,26.8c2.9-3.5,5.7-6.4,5.7-6.4
		c1.4,0.9,3,1.4,4.8,1.2l0.1-0.1c0,0.4,0,0.9,0.1,1.4c-2,2.3-1.4,2.7-5.5,3.5c-4.1,0.8-1.7,2.4-0.1,2.8c1.9,0.5,6.4,1.2,9.4-3
		l-0.1,0.5c0.8,0.6,1.4,4.2,1.3,7.4c-0.1,3.2-0.2,5.4,0.5,7.1c0.6,1.7,1.3,5.6,6.6,4.4c4.5-1,6.8-3.4,7.1-7.6
		c0.2-2.9,0.7-2.5,0.8-5.1l0.4-1.2c0.5-4,0.1-5.3,2.8-4.7l0.7,0.1c2,0.1,4.7-0.3,6.2-1.1C438.2,221.3,440.2,218.7,436.9,219.4
		L436.9,219.4z"/>
	<path class="st4" d="M415.3,243.8c-4.5,0-5.9-3.6-6.5-5c-0.9-2.1-1-10.1-0.8-17.1c0-0.5,0.4-0.9,1-0.9c0.5,0,0.9,0.4,0.9,1
		c-0.2,7.8,0.1,14.8,0.7,16.4c1,2.4,2.4,4.5,6.6,3.6c4-0.9,5.4-2.3,6.1-6.2c0.5-2.9,1.5-11.4,1.6-13c0-0.5,0.5-0.9,1-0.9
		c0.5,0,0.9,0.5,0.9,1c-0.1,1.7-1.1,10.1-1.7,13.2c-0.8,4.6-2.8,6.7-7.5,7.7C416.7,243.7,416,243.8,415.3,243.8z"/>
	<path class="st4" d="M391.1,226.5c-0.4,0-0.8-0.1-1.2-0.2c-7-2.3-11.4-26.3-11.5-29.2c-0.3-6.4,1.3-11,4.9-13.5
		c7.1-5,19-0.2,19.5,0c0.5,0.2,0.7,0.7,0.5,1.2c-0.2,0.5-0.7,0.7-1.2,0.5c-0.1,0-11.5-4.6-17.7-0.2c-3,2.1-4.4,6.1-4.1,11.9
		c0.2,4.2,4.9,25.8,10.3,27.6c0.3,0.1,1.4,0.5,2.9-1.3c2.9-3.5,5.5-6.2,5.6-6.3c0.4-0.4,1-0.4,1.3,0c0.4,0.4,0.4,1,0,1.3
		c0,0-2.6,2.7-5.5,6.2C393.5,226,392.2,226.5,391.1,226.5z"/>
	<path class="st4" d="M428.8,219.2c-0.2,0-0.4-0.1-0.5-0.2c-0.4-0.3-0.5-0.9-0.3-1.3c8-11.9,10.9-26.4,8.5-29.4
		c-7.2-9.2-19.4-5.3-20.5-4.9c0,0-0.1,0-0.1,0.1c-0.5,0.1-1-0.1-1.2-0.5c-0.2-0.4,0-0.9,0.4-1.2c0,0,0.1,0,0.2-0.1l0,0
		c0,0,0.1,0,0.1,0c2.3-0.8,14.9-4.2,22.5,5.5c3.4,4.4-0.8,20.4-8.4,31.6C429.4,219.1,429.1,219.2,428.8,219.2z"/>
	<path class="st4" d="M429.2,224.8c-1.4,0-2.6-0.2-3.4-0.6c-0.8-0.5-0.9-1.1-1-1.5c-0.2-3.6,1.7-4.3,2.8-4.6
		c-0.1-0.2-0.3-0.4-0.5-0.6c-0.6-0.7-1.4-1.8-2.1-3.3c-0.1-0.2-0.4-0.8-0.8-1.4c-1.9-3.5-6-10.8-3.4-14.5c1.2-1.7,3.6-2.4,7.1-2.1
		c-1.1-3.2-6.1-12.9-17.6-13.1c-3.5-0.1-6.4,1-8.5,3.2c-4.8,4.9-4.7,13.7-4.7,13.8c0,0.5-0.4,0.9-0.9,1c-0.5,0-0.9-0.4-1-0.9
		c0-0.4-0.2-9.7,5.2-15.2c2.5-2.6,5.9-3.8,9.9-3.8c14.4,0.2,19.5,13.9,19.7,15.7c0.1,1-0.7,1.2-0.8,1.2l-0.3,0
		c-2.4-0.4-5.4-0.5-6.5,1.1c-1.9,2.8,1.9,9.6,3.5,12.5c0.4,0.7,0.7,1.3,0.9,1.6c0.5,1.3,1.2,2.2,1.8,2.9c0.5,0.6,0.9,1.2,1.1,1.8
		c0.1,0.1,1.1,1.5,7,0.3c1.5-0.3,2.5,0,2.8,0.8c0.6,1.7-2.5,3.6-4.2,4.4C433.7,224.3,431.3,224.8,429.2,224.8z M426.7,222.5
		c0.7,0.7,5.2,0.6,7.7-0.6c1.3-0.6,2.1-1.2,2.7-1.7c0,0,0,0,0,0c-3.8,0.8-6.6,0.7-8.1-0.3c-0.1-0.1-0.2-0.1-0.3-0.2
		c-0.2,0.1-0.3,0.1-0.4,0.1C427.4,220,426.6,220.3,426.7,222.5z"/>
	<path class="st4" d="M401.9,227.4c-1,0-1.9-0.1-3-0.4c-0.3-0.1-2.9-0.8-2.9-2.4c0-1.5,2.2-2,3-2.1c2.9-0.6,3.1-0.8,4-2
		c0.3-0.3,0.6-0.8,1-1.3l0,0c1.5-1.7,2.9-1.1,3.5-0.8c0.9,0.4,1.7,1.3,2.1,2.5c0.3,1,0.2,2-0.4,2.8
		C407.5,226.1,404.9,227.4,401.9,227.4z M398.1,224.7c0.3,0.2,0.7,0.4,1.2,0.5c2.5,0.6,6,0.7,8.4-2.7c0.3-0.4,0.2-0.9,0.1-1.2
		c-0.2-0.6-0.6-1.1-1-1.3c-0.5-0.2-0.8-0.3-1.4,0.4c0,0,0,0,0,0c-0.4,0.5-0.7,0.8-1,1.2c-1.1,1.5-1.7,1.9-5.1,2.6
		C398.8,224.4,398.4,224.6,398.1,224.7z M404.8,219.8L404.8,219.8L404.8,219.8z"/>
	<path class="st4" d="M404.7,220.7c-0.5,0-0.9-0.3-0.9-0.8c0-0.1,0-0.2,0-0.4c-2.2-0.1-4.3-1-5.9-2.7c-2.1-2.1-3-5.1-2.6-8.2
		c0.5-3.3,0.3-6.2,0.2-7.7c0-0.4,0-0.8,0-1c0-0.3,0-1,2.5-2.3c0.9-0.4,2.6-1.2,4.5-1.4c3.2-0.3,5.3,1.1,5.9,4
		c1.7,7.7,0.1,11.2-1,13.7c-0.2,0.5-0.4,0.9-0.6,1.3l-0.1,0.4c-0.6,1.6-1.1,2.9-0.9,4c0.1,0.5-0.3,1-0.8,1.1
		C404.8,220.7,404.7,220.7,404.7,220.7z M397.2,200.3c0,0.2,0,0.4,0,0.6c0.1,1.6,0.3,4.6-0.2,8.1c-0.3,2.5,0.4,4.9,2.1,6.6
		c1.3,1.4,3,2.1,4.8,2.1c0.2-0.8,0.5-1.7,0.9-2.6l0.1-0.4c0.2-0.5,0.4-0.9,0.6-1.4c1.1-2.4,2.4-5.4,0.9-12.5c-0.3-1.4-1-2.2-2.2-2.4
		C401.6,197.7,398,199.6,397.2,200.3z M397.1,200.4L397.1,200.4L397.1,200.4z"/>
	<g>
		<path class="st4" d="M402.4,199.9c0,0.3,0.6,1.1,1.3,1.2c0.8,0.1,1.5-0.5,1.5-0.8c0-0.3-0.6-0.6-1.3-0.8
			C403.1,199.5,402.4,199.6,402.4,199.9L402.4,199.9z"/>
		<path class="st4" d="M403.9,201.5c-0.1,0-0.1,0-0.2,0c-0.5-0.1-1-0.4-1.3-0.8c-0.1-0.2-0.3-0.5-0.3-0.8c0-0.1,0.1-0.3,0.2-0.4
			c0.3-0.2,0.9-0.3,1.6-0.2c0.8,0.1,1.7,0.5,1.6,1.1c0,0.3-0.3,0.6-0.6,0.8C404.6,201.4,404.3,201.5,403.9,201.5z M402.7,200
			c0,0.2,0.5,0.8,1.1,0.9c0.6,0.1,1.1-0.4,1.1-0.6c0-0.1-0.4-0.3-1.1-0.4C403.2,199.8,402.8,199.9,402.7,200z M402.7,200L402.7,200
			L402.7,200L402.7,200z"/>
	</g>
	<g>
		<path class="st4" d="M426.3,199.3c0,0.3-0.6,1.1-1.3,1.2c-0.8,0.1-1.5-0.5-1.5-0.8c0-0.3,0.6-0.6,1.3-0.8
			C425.6,198.8,426.3,199,426.3,199.3L426.3,199.3z"/>
		<path class="st4" d="M424.8,200.7c-0.8,0-1.4-0.6-1.5-1c-0.1-0.5,0.7-0.8,1.5-0.9c0.4-0.1,0.8,0,1.1,0c0.4,0.1,0.6,0.2,0.6,0.5
			l0,0c0.1,0.4-0.6,1.3-1.5,1.4C424.9,200.7,424.9,200.7,424.8,200.7z M425.3,199.1c-0.1,0-0.3,0-0.5,0c-0.8,0.1-1.2,0.4-1.2,0.6
			c0,0.2,0.6,0.8,1.3,0.7c0.7-0.1,1.2-0.8,1.2-1.1l0,0c0-0.1-0.1-0.1-0.4-0.2C425.7,199.1,425.5,199.1,425.3,199.1z"/>
	</g>
	<path class="st4" d="M427.5,216.9c-0.2,0-0.4-0.1-0.5-0.2c-0.4-0.3-0.5-0.9-0.3-1.3c1.8-2.7,1.5-5.5,1.2-8.2
		c-0.1-1.2-0.3-2.4-0.2-3.5c0-1.2,0.2-2.2,0.3-3.1c0.2-1.1,0.3-2.2,0.3-3.4c0-0.5,0.4-1,0.9-1c0.5,0,1,0.4,1,0.9
		c0.1,1.4-0.1,2.6-0.3,3.8c-0.1,0.9-0.3,1.8-0.3,2.9c0,1,0.1,2.1,0.2,3.2c0.3,2.9,0.7,6.2-1.5,9.5
		C428.1,216.8,427.8,216.9,427.5,216.9z"/>
	<path class="st20" d="M376.5,187.7"/>
</g>
<g>
	<g>
		<path class="st9" d="M9.4,403.6l2.7-3.3c1.3,1,2.9,1.8,4.3,1.8c1.5,0,2.1-0.5,2.1-1.3c0-0.9-0.9-1.1-2.5-1.8l-2.3-1
			c-2-0.8-3.7-2.4-3.7-5.1c0-3.1,2.8-5.7,6.8-5.7c2.1,0,4.4,0.8,6,2.4l-2.4,3c-1.2-0.9-2.3-1.3-3.6-1.3c-1.2,0-1.9,0.4-1.9,1.2
			c0,0.9,1,1.2,2.7,1.8l2.2,0.9c2.3,0.9,3.6,2.5,3.6,5c0,3.1-2.6,5.8-7.1,5.8C14,406.2,11.3,405.3,9.4,403.6z"/>
		<path class="st9" d="M24.6,398.8c0-4.5,3.3-7.3,6.7-7.3c4.1,0,6.1,3,6.1,6.8c0,0.8-0.1,1.7-0.2,2h-8c0.4,1.7,1.7,2.2,3.2,2.2
			c1,0,1.8-0.3,2.9-0.8l1.6,2.9c-1.5,1.1-3.5,1.6-5.1,1.6C27.7,406.2,24.6,403.5,24.6,398.8z M33.3,397.2c0-1.1-0.4-2-1.9-2
			c-1.1,0-2,0.6-2.2,2H33.3z"/>
		<path class="st9" d="M39.5,391.8h3.9l0.3,2.4h0.1c1-1.9,2.6-2.7,4-2.7c0.9,0,1.3,0.1,1.7,0.3l-0.8,4.1c-0.5-0.1-1-0.2-1.6-0.2
			c-1,0-2.2,0.6-2.9,2.4v7.8h-4.8V391.8z"/>
		<path class="st9" d="M49.9,391.8h4.8l1.5,6.1c0.3,1.4,0.7,2.9,1,4.4h0.1c0.3-1.5,0.7-3,1-4.4l1.5-6.1h4.6l-4.4,14h-5.5L49.9,391.8
			z"/>
		<path class="st9" d="M64.9,398.8c0-4.5,3.3-7.3,6.7-7.3c4.1,0,6.1,3,6.1,6.8c0,0.8-0.1,1.7-0.2,2h-8c0.4,1.7,1.7,2.2,3.2,2.2
			c1,0,1.8-0.3,2.9-0.8l1.6,2.9c-1.5,1.1-3.5,1.6-5.1,1.6C68,406.2,64.9,403.5,64.9,398.8z M73.6,397.2c0-1.1-0.4-2-1.9-2
			c-1.1,0-2,0.6-2.2,2H73.6z"/>
		<path class="st9" d="M79.8,391.8h3.9l0.3,2.4h0.1c1-1.9,2.6-2.7,4-2.7c0.9,0,1.3,0.1,1.7,0.3l-0.8,4.1c-0.5-0.1-1-0.2-1.6-0.2
			c-1,0-2.2,0.6-2.9,2.4v7.8h-4.8V391.8z"/>
	</g>
</g>
<g>
	<g>
		<path class="st9" d="M473.1,279.3h5.4c5.5,0,9.4,2.6,9.4,9c0,6.4-3.8,9.2-9.1,9.2h-5.7V279.3z M478.2,293.7c2.6,0,4.7-1.1,4.7-5.3
			s-2.1-5.2-4.7-5.2h-0.3v10.5H478.2z"/>
		<path class="st9" d="M489.6,293.6c0-2.9,2.2-4.5,7.6-5.1c-0.1-1-0.7-1.5-2-1.5c-1,0-2.1,0.4-3.5,1.2l-1.7-3.1c2-1.2,4-1.8,6.2-1.8
			c3.6,0,5.8,2,5.8,6.6v7.8h-3.9l-0.3-1.3h-0.1c-1.1,1-2.4,1.7-3.9,1.7C491.1,297.9,489.6,295.9,489.6,293.6z M497.2,293.2v-1.9
			c-2.3,0.3-3,1.1-3,1.8c0,0.6,0.4,1,1.3,1C496.2,294.2,496.7,293.8,497.2,293.2z"/>
		<path class="st9" d="M504.6,292.2v-4.9h-1.8v-3.6l2.1-0.2l0.6-3.6h4v3.6h3.2v3.8h-3.2v4.8c0,1.5,0.8,2,1.7,2
			c0.4,0,0.9-0.1,1.2-0.2l0.7,3.5c-0.7,0.2-1.8,0.5-3.3,0.5C506.2,297.9,504.6,295.6,504.6,292.2z"/>
		<path class="st9" d="M513.5,293.6c0-2.9,2.2-4.5,7.6-5.1c-0.1-1-0.7-1.5-2-1.5c-1,0-2.1,0.4-3.5,1.2l-1.7-3.1c2-1.2,4-1.8,6.2-1.8
			c3.6,0,5.8,2,5.8,6.6v7.8h-3.9l-0.3-1.3h-0.1c-1.1,1-2.4,1.7-3.9,1.7C515.1,297.9,513.5,295.9,513.5,293.6z M521.2,293.2v-1.9
			c-2.3,0.3-3,1.1-3,1.8c0,0.6,0.4,1,1.3,1C520.2,294.2,520.7,293.8,521.2,293.2z"/>
		<path class="st9" d="M532.8,296h-0.1l-0.4,1.5h-3.8v-19.5h4.8v4.5l-0.1,2c1-0.9,2.2-1.4,3.4-1.4c3.3,0,5.5,2.8,5.5,7.1
			c0,4.8-2.9,7.6-5.8,7.6C535.1,297.9,533.9,297.3,532.8,296z M537.2,290.4c0-2.3-0.7-3.2-2-3.2c-0.7,0-1.3,0.3-1.9,1v5.2
			c0.6,0.5,1.2,0.7,1.8,0.7C536.3,294,537.2,293.1,537.2,290.4z"/>
		<path class="st9" d="M543.4,293.6c0-2.9,2.2-4.5,7.6-5.1c-0.1-1-0.7-1.5-2-1.5c-1,0-2.1,0.4-3.5,1.2l-1.7-3.1c2-1.2,4-1.8,6.2-1.8
			c3.6,0,5.8,2,5.8,6.6v7.8h-3.9l-0.3-1.3h-0.1c-1.1,1-2.4,1.7-3.9,1.7C545,297.9,543.4,295.9,543.4,293.6z M551,293.2v-1.9
			c-2.3,0.3-3,1.1-3,1.8c0,0.6,0.4,1,1.3,1C550.1,294.2,550.5,293.8,551,293.2z"/>
		<path class="st9" d="M557.3,295.9l2.1-3c1.3,1,2.4,1.4,3.4,1.4c1,0,1.4-0.3,1.4-0.8c0-0.7-1.3-1.1-2.7-1.6
			c-1.6-0.6-3.5-1.8-3.5-4.1c0-2.7,2.2-4.5,5.5-4.5c2.3,0,3.9,0.9,5.2,1.8l-2.1,2.9c-1-0.7-2-1.2-2.9-1.2c-0.8,0-1.2,0.2-1.2,0.8
			c0,0.7,1.2,1,2.6,1.5c1.7,0.6,3.6,1.7,3.6,4.2c0,2.6-2.1,4.6-6,4.6C560.9,297.9,558.7,297.1,557.3,295.9z"/>
		<path class="st9" d="M569.8,290.5c0-4.5,3.3-7.3,6.7-7.3c4.1,0,6.1,3,6.1,6.8c0,0.8-0.1,1.7-0.2,2h-8c0.4,1.7,1.7,2.2,3.2,2.2
			c1,0,1.8-0.3,2.9-0.8l1.6,2.9c-1.5,1.1-3.5,1.6-5.1,1.6C572.9,297.9,569.8,295.2,569.8,290.5z M578.5,288.9c0-1.1-0.4-2-1.9-2
			c-1.1,0-2,0.6-2.2,2H578.5z"/>
	</g>
</g>
</svg>
