<?xml version="1.0" encoding="utf-8"?>
<!-- Generator: Adobe Illustrator 22.1.0, SVG Export Plug-In . SVG Version: 6.00 Build 0)  -->
<svg version="1.1" id="Layer_1" xmlns="http://www.w3.org/2000/svg" xmlns:xlink="http://www.w3.org/1999/xlink" x="0px" y="0px"
	 viewBox="0 0 866 373" style="enable-background:new 0 0 866 373;" xml:space="preserve">
<style type="text/css">
	.st0{fill:#EF7C15;}
	.st1{fill:#333333;}
	.st2{opacity:0.5;}
	.st3{fill:#FFBE88;}
	.st4{fill:none;}
	.st5{fill:#FFFFFF;}
	.st6{clip-path:url(#SVGID_2_);}
	.st7{fill:none;stroke:#333333;stroke-width:1.7172;stroke-linecap:round;stroke-linejoin:round;stroke-miterlimit:10;}
	.st8{fill:#5DC0FF;}
</style>
<g>
	<path class="st0" d="M378.2,302.6H29.7c-4.9,0-8.9-4-8.9-8.9V45.9c0-4.9,4-8.9,8.9-8.9h348.4c4.9,0,8.9,4,8.9,8.9v247.9
		C387.1,298.7,383.1,302.6,378.2,302.6z"/>
</g>
<rect x="20.8" y="69.8" class="st1" width="365" height="5"/>
<rect x="96.2" y="72.3" class="st1" width="5" height="230.3"/>
<rect x="165.3" y="72.3" class="st1" width="5" height="230.3"/>
<rect x="303.4" y="72.3" class="st1" width="5" height="230.3"/>
<rect x="234.4" y="72.3" class="st1" width="5" height="230.3"/>
<rect x="22" y="269.5" class="st1" width="360.6" height="5"/>
<rect x="22" y="241" class="st1" width="360.6" height="5"/>
<rect x="22" y="212.5" class="st1" width="360.6" height="5"/>
<rect x="22" y="183.9" class="st1" width="360.6" height="5"/>
<rect x="22" y="98.4" class="st1" width="360.6" height="5"/>
<rect x="22" y="126.9" class="st1" width="360.6" height="5"/>
<rect x="22" y="155.4" class="st1" width="360.6" height="5"/>
<g>
	<path class="st1" d="M378.7,307.6H28.5c-7.7,0-13.9-6.2-13.9-13.9V45.9c0-7.7,6.2-13.9,13.9-13.9h350.2c7.7,0,13.9,6.2,13.9,13.9
		v247.9C392.6,301.4,386.4,307.6,378.7,307.6z M28.5,42c-2.1,0-3.9,1.7-3.9,3.9v247.9c0,2.1,1.7,3.9,3.9,3.9h350.2
		c2.1,0,3.9-1.7,3.9-3.9V45.9c0-2.1-1.7-3.9-3.9-3.9H28.5z"/>
</g>
<g class="st2">
	<g>
		<g>
			<path class="st3" d="M838.4,302.6H488.2c-4.9,0-8.9-4-8.9-8.9V45.9c0-4.9,4-8.9,8.9-8.9h350.2c4.9,0,8.9,4,8.9,8.9v247.9
				C847.3,298.7,843.3,302.6,838.4,302.6z"/>
			<path class="st1" d="M838.4,307.6H488.2c-7.7,0-13.9-6.2-13.9-13.9V45.9c0-7.7,6.2-13.9,13.9-13.9h350.2
				c7.7,0,13.9,6.2,13.9,13.9v247.9C852.3,301.4,846.1,307.6,838.4,307.6z M488.2,42c-2.1,0-3.9,1.7-3.9,3.9v247.9
				c0,2.1,1.7,3.9,3.9,3.9h350.2c2.1,0,3.9-1.7,3.9-3.9V45.9c0-2.1-1.7-3.9-3.9-3.9H488.2z"/>
		</g>
	</g>
	<g>
		<path class="st4" d="M837.9,302.6H489.4c-4.9,0-8.9-4-8.9-8.9V45.9c0-4.9,4-8.9,8.9-8.9h348.4c4.9,0,8.9,4,8.9,8.9v247.9
			C846.8,298.7,842.8,302.6,837.9,302.6z"/>
	</g>
	<rect x="480.5" y="69.8" class="st1" width="365" height="5"/>
	<rect x="555.9" y="72.3" class="st1" width="5" height="230.3"/>
	<rect x="625" y="72.3" class="st1" width="5" height="230.3"/>
	<rect x="763.1" y="72.3" class="st1" width="5" height="230.3"/>
	<rect x="694.1" y="72.3" class="st1" width="5" height="230.3"/>
	<rect x="481.7" y="269.5" class="st1" width="360.6" height="5"/>
	<rect x="481.7" y="241" class="st1" width="360.6" height="5"/>
	<rect x="481.7" y="212.5" class="st1" width="360.6" height="5"/>
	<rect x="481.7" y="183.9" class="st1" width="360.6" height="5"/>
	<rect x="481.7" y="98.4" class="st1" width="360.6" height="5"/>
	<rect x="481.7" y="126.9" class="st1" width="360.6" height="5"/>
	<rect x="481.7" y="155.4" class="st1" width="360.6" height="5"/>
</g>
<circle class="st5" cx="717.9" cy="192.6" r="95.5"/>
<g>
	<defs>
		<circle id="SVGID_1_" cx="717.9" cy="192.6" r="95.5"/>
	</defs>
	<clipPath id="SVGID_2_">
		<use xlink:href="#SVGID_1_"  style="overflow:visible;"/>
	</clipPath>
	<g class="st6">
		<path class="st7" d="M745.3,211.8"/>
		<path class="st7" d="M690.2,211.8"/>
		<path class="st7" d="M745.3,220.9"/>
		<path class="st7" d="M690.2,220.9"/>
		<path class="st7" d="M690.2,202.2"/>
		<g>
			<g>
				<path class="st8" d="M739.1,213h-42.7c-3.4,0-6.2-2.8-6.2-6.2v-28.6c0-3.4,2.8-6.2,6.2-6.2h42.7c3.4,0,6.2,2.8,6.2,6.2v28.6
					C745.3,210.3,742.5,213,739.1,213z"/>
				<path class="st1" d="M739.1,215.5h-42.7c-4.8,0-8.7-3.9-8.7-8.7v-28.6c0-4.8,3.9-8.7,8.7-8.7h42.7c4.8,0,8.7,3.9,8.7,8.7v28.6
					C747.8,211.6,743.9,215.5,739.1,215.5z M696.4,174.6c-2,0-3.7,1.6-3.7,3.7v28.6c0,2,1.6,3.7,3.7,3.7h42.7c2,0,3.7-1.6,3.7-3.7
					v-28.6c0-2-1.6-3.7-3.7-3.7H696.4z"/>
			</g>
			<path class="st1" d="M745.3,185.2h-55.1c-0.7,0-1.3-0.6-1.3-1.3s0.6-1.3,1.3-1.3h55.1c0.7,0,1.3,0.6,1.3,1.3
				S746,185.2,745.3,185.2z"/>
			<path class="st1" d="M745.3,194.2h-55.1c-0.5,0-0.9-0.4-0.9-0.9s0.4-0.9,0.9-0.9h55.1c0.5,0,0.9,0.4,0.9,0.9
				S745.7,194.2,745.3,194.2z"/>
			<path class="st1" d="M745.3,203.5h-55.1c-0.5,0-0.9-0.4-0.9-0.9s0.4-0.9,0.9-0.9h55.1c0.5,0,0.9,0.4,0.9,0.9
				S745.7,203.5,745.3,203.5z"/>
			<path class="st7" d="M745.3,202.2"/>
			<path class="st1" d="M717.7,212.7c-0.5,0-0.9-0.4-0.9-0.9V184c0-0.5,0.4-0.9,0.9-0.9s0.9,0.4,0.9,0.9v27.8
				C718.6,212.3,718.2,212.7,717.7,212.7z"/>
		</g>
		<path class="st7" d="M768.4,220.9"/>
		<g>
			<g>
				<path class="st5" d="M817.2,213h-42.7c-3.4,0-6.2-2.8-6.2-6.2v-28.6c0-3.4,2.8-6.2,6.2-6.2h42.7c3.4,0,6.2,2.8,6.2,6.2v28.6
					C823.4,210.3,820.6,213,817.2,213z"/>
				<path class="st1" d="M817.2,215.5h-42.7c-4.8,0-8.7-3.9-8.7-8.7v-28.6c0-4.8,3.9-8.7,8.7-8.7h42.7c4.8,0,8.7,3.9,8.7,8.7v28.6
					C825.9,211.6,822,215.5,817.2,215.5z M774.5,174.6c-2,0-3.7,1.6-3.7,3.7v28.6c0,2,1.6,3.7,3.7,3.7h42.7c2,0,3.7-1.6,3.7-3.7
					v-28.6c0-2-1.6-3.7-3.7-3.7H774.5z"/>
			</g>
			<path class="st1" d="M823.4,185.2h-55.1c-0.7,0-1.3-0.6-1.3-1.3s0.6-1.3,1.3-1.3h55.1c0.7,0,1.3,0.6,1.3,1.3
				S824.1,185.2,823.4,185.2z"/>
			<path class="st1" d="M823.4,194.2h-55.1c-0.5,0-0.9-0.4-0.9-0.9s0.4-0.9,0.9-0.9h55.1c0.5,0,0.9,0.4,0.9,0.9
				S823.9,194.2,823.4,194.2z"/>
			<path class="st1" d="M823.4,203.5h-55.1c-0.5,0-0.9-0.4-0.9-0.9s0.4-0.9,0.9-0.9h55.1c0.5,0,0.9,0.4,0.9,0.9
				S823.9,203.5,823.4,203.5z"/>
			<path class="st7" d="M823.4,211.8"/>
			<path class="st7" d="M768.4,211.8"/>
			<path class="st7" d="M823.4,202.2"/>
			<path class="st7" d="M768.4,202.2"/>
			<path class="st1" d="M795.9,212.7c-0.5,0-0.9-0.4-0.9-0.9V184c0-0.5,0.4-0.9,0.9-0.9s0.9,0.4,0.9,0.9v27.8
				C796.7,212.3,796.4,212.7,795.9,212.7z"/>
		</g>
		<path class="st7" d="M745.3,150.9"/>
		<path class="st7" d="M690.2,150.9"/>
		<path class="st7" d="M745.3,160"/>
		<path class="st7" d="M690.2,160"/>
		<path class="st7" d="M745.3,141.3"/>
		<g>
			<g>
				<path class="st5" d="M739.1,152.1h-42.7c-3.4,0-6.2-2.8-6.2-6.2v-28.6c0-3.4,2.8-6.2,6.2-6.2h42.7c3.4,0,6.2,2.8,6.2,6.2v28.6
					C745.3,149.3,742.5,152.1,739.1,152.1z"/>
				<path class="st1" d="M739.1,154.6h-42.7c-4.8,0-8.7-3.9-8.7-8.7v-28.6c0-4.8,3.9-8.7,8.7-8.7h42.7c4.8,0,8.7,3.9,8.7,8.7v28.6
					C747.8,150.7,743.9,154.6,739.1,154.6z M696.4,113.7c-2,0-3.7,1.6-3.7,3.7v28.6c0,2,1.6,3.7,3.7,3.7h42.7c2,0,3.7-1.6,3.7-3.7
					v-28.6c0-2-1.6-3.7-3.7-3.7H696.4z"/>
			</g>
			<path class="st1" d="M745.3,124.2h-55.1c-0.7,0-1.3-0.6-1.3-1.3s0.6-1.3,1.3-1.3h55.1c0.7,0,1.3,0.6,1.3,1.3
				S746,124.2,745.3,124.2z"/>
			<path class="st1" d="M745.3,133.2h-55.1c-0.5,0-0.9-0.4-0.9-0.9s0.4-0.9,0.9-0.9h55.1c0.5,0,0.9,0.4,0.9,0.9
				S745.7,133.2,745.3,133.2z"/>
			<path class="st1" d="M745.3,142.6h-55.1c-0.5,0-0.9-0.4-0.9-0.9s0.4-0.9,0.9-0.9h55.1c0.5,0,0.9,0.4,0.9,0.9
				S745.7,142.6,745.3,142.6z"/>
			<path class="st7" d="M690.2,141.3"/>
			<path class="st1" d="M717.7,151.7c-0.5,0-0.9-0.4-0.9-0.9v-27.8c0-0.5,0.4-0.9,0.9-0.9s0.9,0.4,0.9,0.9v27.8
				C718.6,151.3,718.2,151.7,717.7,151.7z"/>
		</g>
		<path class="st7" d="M768.4,150.9"/>
		<path class="st7" d="M768.4,160"/>
		<path class="st7" d="M768.4,141.3"/>
		<g>
			<g>
				<path class="st5" d="M817.2,152.1h-42.7c-3.4,0-6.2-2.8-6.2-6.2v-28.6c0-3.4,2.8-6.2,6.2-6.2h42.7c3.4,0,6.2,2.8,6.2,6.2v28.6
					C823.4,149.3,820.6,152.1,817.2,152.1z"/>
				<path class="st1" d="M817.2,154.6h-42.7c-4.8,0-8.7-3.9-8.7-8.7v-28.6c0-4.8,3.9-8.7,8.7-8.7h42.7c4.8,0,8.7,3.9,8.7,8.7v28.6
					C825.9,150.7,822,154.6,817.2,154.6z M774.5,113.7c-2,0-3.7,1.6-3.7,3.7v28.6c0,2,1.6,3.7,3.7,3.7h42.7c2,0,3.7-1.6,3.7-3.7
					v-28.6c0-2-1.6-3.7-3.7-3.7H774.5z"/>
			</g>
			<path class="st1" d="M823.4,124.2h-55.1c-0.7,0-1.3-0.6-1.3-1.3s0.6-1.3,1.3-1.3h55.1c0.7,0,1.3,0.6,1.3,1.3
				S824.1,124.2,823.4,124.2z"/>
			<path class="st1" d="M823.4,133.2h-55.1c-0.5,0-0.9-0.4-0.9-0.9s0.4-0.9,0.9-0.9h55.1c0.5,0,0.9,0.4,0.9,0.9
				S823.9,133.2,823.4,133.2z"/>
			<path class="st1" d="M823.4,142.6h-55.1c-0.5,0-0.9-0.4-0.9-0.9s0.4-0.9,0.9-0.9h55.1c0.5,0,0.9,0.4,0.9,0.9
				S823.9,142.6,823.4,142.6z"/>
			<path class="st7" d="M823.4,150.9"/>
			<path class="st7" d="M823.4,141.3"/>
			<path class="st1" d="M795.9,151.7c-0.5,0-0.9-0.4-0.9-0.9v-27.8c0-0.5,0.4-0.9,0.9-0.9s0.9,0.4,0.9,0.9v27.8
				C796.7,151.3,796.4,151.7,795.9,151.7z"/>
		</g>
		<path class="st7" d="M745.3,272.8"/>
		<path class="st7" d="M690.2,272.8"/>
		<path class="st7" d="M690.2,263.2"/>
		<g>
			<g>
				<path class="st5" d="M739.1,274h-42.7c-3.4,0-6.2-2.8-6.2-6.2v-28.6c0-3.4,2.8-6.2,6.2-6.2h42.7c3.4,0,6.2,2.8,6.2,6.2v28.6
					C745.3,271.2,742.5,274,739.1,274z"/>
				<path class="st1" d="M739.1,276.5h-42.7c-4.8,0-8.7-3.9-8.7-8.7v-28.6c0-4.8,3.9-8.7,8.7-8.7h42.7c4.8,0,8.7,3.9,8.7,8.7v28.6
					C747.8,272.6,743.9,276.5,739.1,276.5z M696.4,235.6c-2,0-3.7,1.6-3.7,3.7v28.6c0,2,1.6,3.7,3.7,3.7h42.7c2,0,3.7-1.6,3.7-3.7
					v-28.6c0-2-1.6-3.7-3.7-3.7H696.4z"/>
			</g>
			<path class="st1" d="M745.3,246.1h-55.1c-0.7,0-1.3-0.6-1.3-1.3s0.6-1.3,1.3-1.3h55.1c0.7,0,1.3,0.6,1.3,1.3
				S746,246.1,745.3,246.1z"/>
			<path class="st1" d="M745.3,255.1h-55.1c-0.5,0-0.9-0.4-0.9-0.9s0.4-0.9,0.9-0.9h55.1c0.5,0,0.9,0.4,0.9,0.9
				S745.7,255.1,745.3,255.1z"/>
			<path class="st1" d="M745.3,264.5h-55.1c-0.5,0-0.9-0.4-0.9-0.9s0.4-0.9,0.9-0.9h55.1c0.5,0,0.9,0.4,0.9,0.9
				S745.7,264.5,745.3,264.5z"/>
			<path class="st7" d="M745.3,263.2"/>
			<path class="st1" d="M717.7,273.6c-0.5,0-0.9-0.4-0.9-0.9V245c0-0.5,0.4-0.9,0.9-0.9s0.9,0.4,0.9,0.9v27.8
				C718.6,273.2,718.2,273.6,717.7,273.6z"/>
		</g>
		<path class="st7" d="M768.4,272.8"/>
		<path class="st7" d="M768.4,263.2"/>
		<g>
			<g>
				<path class="st5" d="M817.2,274h-42.7c-3.4,0-6.2-2.8-6.2-6.2v-28.6c0-3.4,2.8-6.2,6.2-6.2h42.7c3.4,0,6.2,2.8,6.2,6.2v28.6
					C823.4,271.2,820.6,274,817.2,274z"/>
				<path class="st1" d="M817.2,276.5h-42.7c-4.8,0-8.7-3.9-8.7-8.7v-28.6c0-4.8,3.9-8.7,8.7-8.7h42.7c4.8,0,8.7,3.9,8.7,8.7v28.6
					C825.9,272.6,822,276.5,817.2,276.5z M774.5,235.6c-2,0-3.7,1.6-3.7,3.7v28.6c0,2,1.6,3.7,3.7,3.7h42.7c2,0,3.7-1.6,3.7-3.7
					v-28.6c0-2-1.6-3.7-3.7-3.7H774.5z"/>
			</g>
			<path class="st1" d="M823.4,246.1h-55.1c-0.7,0-1.3-0.6-1.3-1.3s0.6-1.3,1.3-1.3h55.1c0.7,0,1.3,0.6,1.3,1.3
				S824.1,246.1,823.4,246.1z"/>
			<path class="st1" d="M823.4,255.1h-55.1c-0.5,0-0.9-0.4-0.9-0.9s0.4-0.9,0.9-0.9h55.1c0.5,0,0.9,0.4,0.9,0.9
				S823.9,255.1,823.4,255.1z"/>
			<path class="st1" d="M823.4,264.5h-55.1c-0.5,0-0.9-0.4-0.9-0.9s0.4-0.9,0.9-0.9h55.1c0.5,0,0.9,0.4,0.9,0.9
				S823.9,264.5,823.4,264.5z"/>
			<path class="st7" d="M823.4,263.2"/>
			<path class="st1" d="M795.9,273.6c-0.5,0-0.9-0.4-0.9-0.9V245c0-0.5,0.4-0.9,0.9-0.9s0.9,0.4,0.9,0.9v27.8
				C796.7,273.2,796.4,273.6,795.9,273.6z"/>
		</g>
		<g>
			<g>
				<path class="st5" d="M662.2,213h-42.7c-3.4,0-6.2-2.8-6.2-6.2v-28.6c0-3.4,2.8-6.2,6.2-6.2h42.7c3.4,0,6.2,2.8,6.2,6.2v28.6
					C668.3,210.3,665.6,213,662.2,213z"/>
				<path class="st1" d="M662.2,215.5h-42.7c-4.8,0-8.7-3.9-8.7-8.7v-28.6c0-4.8,3.9-8.7,8.7-8.7h42.7c4.8,0,8.7,3.9,8.7,8.7v28.6
					C670.8,211.6,666.9,215.5,662.2,215.5z M619.4,174.6c-2,0-3.7,1.6-3.7,3.7v28.6c0,2,1.6,3.7,3.7,3.7h42.7c2,0,3.7-1.6,3.7-3.7
					v-28.6c0-2-1.6-3.7-3.7-3.7H619.4z"/>
			</g>
			<path class="st1" d="M668.3,185.2h-55.1c-0.7,0-1.3-0.6-1.3-1.3s0.6-1.3,1.3-1.3h55.1c0.7,0,1.3,0.6,1.3,1.3
				S669,185.2,668.3,185.2z"/>
			<path class="st1" d="M668.3,194.2h-55.1c-0.5,0-0.9-0.4-0.9-0.9s0.4-0.9,0.9-0.9h55.1c0.5,0,0.9,0.4,0.9,0.9
				S668.8,194.2,668.3,194.2z"/>
			<path class="st1" d="M668.3,203.5h-55.1c-0.5,0-0.9-0.4-0.9-0.9s0.4-0.9,0.9-0.9h55.1c0.5,0,0.9,0.4,0.9,0.9
				S668.8,203.5,668.3,203.5z"/>
			<path class="st7" d="M668.3,211.8"/>
			<path class="st7" d="M613.3,211.8"/>
			<path class="st7" d="M668.3,202.2"/>
			<path class="st7" d="M613.3,202.2"/>
			<path class="st1" d="M640.8,212.7c-0.5,0-0.9-0.4-0.9-0.9V184c0-0.5,0.4-0.9,0.9-0.9s0.9,0.4,0.9,0.9v27.8
				C641.7,212.3,641.3,212.7,640.8,212.7z"/>
		</g>
		<g>
			<g>
				<path class="st5" d="M662.2,152.1h-42.7c-3.4,0-6.2-2.8-6.2-6.2v-28.6c0-3.4,2.8-6.2,6.2-6.2h42.7c3.4,0,6.2,2.8,6.2,6.2v28.6
					C668.3,149.3,665.6,152.1,662.2,152.1z"/>
				<path class="st1" d="M662.2,154.6h-42.7c-4.8,0-8.7-3.9-8.7-8.7v-28.6c0-4.8,3.9-8.7,8.7-8.7h42.7c4.8,0,8.7,3.9,8.7,8.7v28.6
					C670.8,150.7,666.9,154.6,662.2,154.6z M619.4,113.7c-2,0-3.7,1.6-3.7,3.7v28.6c0,2,1.6,3.7,3.7,3.7h42.7c2,0,3.7-1.6,3.7-3.7
					v-28.6c0-2-1.6-3.7-3.7-3.7H619.4z"/>
			</g>
			<path class="st1" d="M668.3,124.2h-55.1c-0.7,0-1.3-0.6-1.3-1.3s0.6-1.3,1.3-1.3h55.1c0.7,0,1.3,0.6,1.3,1.3
				S669,124.2,668.3,124.2z"/>
			<path class="st1" d="M668.3,133.2h-55.1c-0.5,0-0.9-0.4-0.9-0.9s0.4-0.9,0.9-0.9h55.1c0.5,0,0.9,0.4,0.9,0.9
				S668.8,133.2,668.3,133.2z"/>
			<path class="st1" d="M668.3,142.6h-55.1c-0.5,0-0.9-0.4-0.9-0.9s0.4-0.9,0.9-0.9h55.1c0.5,0,0.9,0.4,0.9,0.9
				S668.8,142.6,668.3,142.6z"/>
			<path class="st7" d="M668.3,150.9"/>
			<path class="st7" d="M668.3,141.3"/>
			<path class="st1" d="M640.8,151.7c-0.5,0-0.9-0.4-0.9-0.9v-27.8c0-0.5,0.4-0.9,0.9-0.9s0.9,0.4,0.9,0.9v27.8
				C641.7,151.3,641.3,151.7,640.8,151.7z"/>
		</g>
		<g>
			<g>
				<path class="st5" d="M662.2,274h-42.7c-3.4,0-6.2-2.8-6.2-6.2v-28.6c0-3.4,2.8-6.2,6.2-6.2h42.7c3.4,0,6.2,2.8,6.2,6.2v28.6
					C668.3,271.2,665.6,274,662.2,274z"/>
				<path class="st1" d="M662.2,276.5h-42.7c-4.8,0-8.7-3.9-8.7-8.7v-28.6c0-4.8,3.9-8.7,8.7-8.7h42.7c4.8,0,8.7,3.9,8.7,8.7v28.6
					C670.8,272.6,666.9,276.5,662.2,276.5z M619.4,235.6c-2,0-3.7,1.6-3.7,3.7v28.6c0,2,1.6,3.7,3.7,3.7h42.7c2,0,3.7-1.6,3.7-3.7
					v-28.6c0-2-1.6-3.7-3.7-3.7H619.4z"/>
			</g>
			<path class="st1" d="M668.3,246.1h-55.1c-0.7,0-1.3-0.6-1.3-1.3s0.6-1.3,1.3-1.3h55.1c0.7,0,1.3,0.6,1.3,1.3
				S669,246.1,668.3,246.1z"/>
			<path class="st1" d="M668.3,255.1h-55.1c-0.5,0-0.9-0.4-0.9-0.9s0.4-0.9,0.9-0.9h55.1c0.5,0,0.9,0.4,0.9,0.9
				S668.8,255.1,668.3,255.1z"/>
			<path class="st1" d="M668.3,264.5h-55.1c-0.5,0-0.9-0.4-0.9-0.9s0.4-0.9,0.9-0.9h55.1c0.5,0,0.9,0.4,0.9,0.9
				S668.8,264.5,668.3,264.5z"/>
			<path class="st7" d="M668.3,263.2"/>
			<path class="st1" d="M640.8,273.6c-0.5,0-0.9-0.4-0.9-0.9V245c0-0.5,0.4-0.9,0.9-0.9s0.9,0.4,0.9,0.9v27.8
				C641.7,273.2,641.3,273.6,640.8,273.6z"/>
		</g>
		<path class="st7" d="M668.3,211.8"/>
		<path class="st7" d="M668.3,220.9"/>
		<g>
			<g>
				<path class="st5" d="M739.1,91.1h-42.7c-3.4,0-6.2-2.8-6.2-6.2V56.4c0-3.4,2.8-6.2,6.2-6.2h42.7c3.4,0,6.2,2.8,6.2,6.2V85
					C745.3,88.4,742.5,91.1,739.1,91.1z"/>
				<path class="st1" d="M739.1,93.6h-42.7c-4.8,0-8.7-3.9-8.7-8.7V56.4c0-4.8,3.9-8.7,8.7-8.7h42.7c4.8,0,8.7,3.9,8.7,8.7V85
					C747.8,89.7,743.9,93.6,739.1,93.6z M696.4,52.7c-2,0-3.7,1.6-3.7,3.7V85c0,2,1.6,3.7,3.7,3.7h42.7c2,0,3.7-1.6,3.7-3.7V56.4
					c0-2-1.6-3.7-3.7-3.7H696.4z"/>
			</g>
			<path class="st1" d="M745.3,63.3h-55.1c-0.7,0-1.3-0.6-1.3-1.3s0.6-1.3,1.3-1.3h55.1c0.7,0,1.3,0.6,1.3,1.3S746,63.3,745.3,63.3z
				"/>
			<path class="st1" d="M745.3,72.3h-55.1c-0.5,0-0.9-0.4-0.9-0.9s0.4-0.9,0.9-0.9h55.1c0.5,0,0.9,0.4,0.9,0.9
				S745.7,72.3,745.3,72.3z"/>
			<path class="st1" d="M745.3,81.7h-55.1c-0.5,0-0.9-0.4-0.9-0.9s0.4-0.9,0.9-0.9h55.1c0.5,0,0.9,0.4,0.9,0.9
				S745.7,81.7,745.3,81.7z"/>
			<path class="st7" d="M690.2,80.3"/>
			<path class="st1" d="M717.7,90.8c-0.5,0-0.9-0.4-0.9-0.9V62.1c0-0.5,0.4-0.9,0.9-0.9s0.9,0.4,0.9,0.9v27.8
				C718.6,90.4,718.2,90.8,717.7,90.8z"/>
		</g>
		<g>
			<g>
				<path class="st5" d="M817.2,91.1h-42.7c-3.4,0-6.2-2.8-6.2-6.2V56.4c0-3.4,2.8-6.2,6.2-6.2h42.7c3.4,0,6.2,2.8,6.2,6.2V85
					C823.4,88.4,820.6,91.1,817.2,91.1z"/>
				<path class="st1" d="M817.2,93.6h-42.7c-4.8,0-8.7-3.9-8.7-8.7V56.4c0-4.8,3.9-8.7,8.7-8.7h42.7c4.8,0,8.7,3.9,8.7,8.7V85
					C825.9,89.7,822,93.6,817.2,93.6z M774.5,52.7c-2,0-3.7,1.6-3.7,3.7V85c0,2,1.6,3.7,3.7,3.7h42.7c2,0,3.7-1.6,3.7-3.7V56.4
					c0-2-1.6-3.7-3.7-3.7H774.5z"/>
			</g>
			<path class="st1" d="M823.4,63.3h-55.1c-0.7,0-1.3-0.6-1.3-1.3s0.6-1.3,1.3-1.3h55.1c0.7,0,1.3,0.6,1.3,1.3
				S824.1,63.3,823.4,63.3z"/>
			<path class="st1" d="M823.4,72.3h-55.1c-0.5,0-0.9-0.4-0.9-0.9s0.4-0.9,0.9-0.9h55.1c0.5,0,0.9,0.4,0.9,0.9
				S823.9,72.3,823.4,72.3z"/>
			<path class="st1" d="M823.4,81.7h-55.1c-0.5,0-0.9-0.4-0.9-0.9s0.4-0.9,0.9-0.9h55.1c0.5,0,0.9,0.4,0.9,0.9
				S823.9,81.7,823.4,81.7z"/>
			<path class="st7" d="M823.4,89.9"/>
			<path class="st7" d="M823.4,80.3"/>
			<path class="st1" d="M795.9,90.8c-0.5,0-0.9-0.4-0.9-0.9V62.1c0-0.5,0.4-0.9,0.9-0.9s0.9,0.4,0.9,0.9v27.8
				C796.7,90.4,796.4,90.8,795.9,90.8z"/>
		</g>
		<g>
			<g>
				<path class="st5" d="M662.2,91.1h-42.7c-3.4,0-6.2-2.8-6.2-6.2V56.4c0-3.4,2.8-6.2,6.2-6.2h42.7c3.4,0,6.2,2.8,6.2,6.2V85
					C668.3,88.4,665.6,91.1,662.2,91.1z"/>
				<path class="st1" d="M662.2,93.6h-42.7c-4.8,0-8.7-3.9-8.7-8.7V56.4c0-4.8,3.9-8.7,8.7-8.7h42.7c4.8,0,8.7,3.9,8.7,8.7V85
					C670.8,89.7,666.9,93.6,662.2,93.6z M619.4,52.7c-2,0-3.7,1.6-3.7,3.7V85c0,2,1.6,3.7,3.7,3.7h42.7c2,0,3.7-1.6,3.7-3.7V56.4
					c0-2-1.6-3.7-3.7-3.7H619.4z"/>
			</g>
			<path class="st1" d="M668.3,63.3h-55.1c-0.7,0-1.3-0.6-1.3-1.3s0.6-1.3,1.3-1.3h55.1c0.7,0,1.3,0.6,1.3,1.3S669,63.3,668.3,63.3z
				"/>
			<path class="st1" d="M668.3,72.3h-55.1c-0.5,0-0.9-0.4-0.9-0.9s0.4-0.9,0.9-0.9h55.1c0.5,0,0.9,0.4,0.9,0.9
				S668.8,72.3,668.3,72.3z"/>
			<path class="st1" d="M668.3,81.7h-55.1c-0.5,0-0.9-0.4-0.9-0.9s0.4-0.9,0.9-0.9h55.1c0.5,0,0.9,0.4,0.9,0.9
				S668.8,81.7,668.3,81.7z"/>
			<path class="st7" d="M668.3,80.3"/>
			<path class="st7" d="M613.3,80.3"/>
			<path class="st1" d="M640.8,90.8c-0.5,0-0.9-0.4-0.9-0.9V62.1c0-0.5,0.4-0.9,0.9-0.9s0.9,0.4,0.9,0.9v27.8
				C641.7,90.4,641.3,90.8,640.8,90.8z"/>
		</g>
		<path class="st7" d="M668.3,272.8"/>
		<path class="st7" d="M668.3,263.2"/>
		<g>
			<g>
				<path class="st5" d="M739.1,334.9h-42.7c-3.4,0-6.2-2.8-6.2-6.2v-28.6c0-3.4,2.8-6.2,6.2-6.2h42.7c3.4,0,6.2,2.8,6.2,6.2v28.6
					C745.3,332.2,742.5,334.9,739.1,334.9z"/>
				<path class="st1" d="M739.1,337.4h-42.7c-4.8,0-8.7-3.9-8.7-8.7v-28.6c0-4.8,3.9-8.7,8.7-8.7h42.7c4.8,0,8.7,3.9,8.7,8.7v28.6
					C747.8,333.5,743.9,337.4,739.1,337.4z M696.4,296.5c-2,0-3.7,1.6-3.7,3.7v28.6c0,2,1.6,3.7,3.7,3.7h42.7c2,0,3.7-1.6,3.7-3.7
					v-28.6c0-2-1.6-3.7-3.7-3.7H696.4z"/>
			</g>
			<path class="st1" d="M745.3,307.1h-55.1c-0.7,0-1.3-0.6-1.3-1.3s0.6-1.3,1.3-1.3h55.1c0.7,0,1.3,0.6,1.3,1.3
				S746,307.1,745.3,307.1z"/>
			<path class="st1" d="M745.3,316h-55.1c-0.5,0-0.9-0.4-0.9-0.9s0.4-0.9,0.9-0.9h55.1c0.5,0,0.9,0.4,0.9,0.9S745.7,316,745.3,316z"
				/>
			<path class="st1" d="M745.3,325.4h-55.1c-0.5,0-0.9-0.4-0.9-0.9s0.4-0.9,0.9-0.9h55.1c0.5,0,0.9,0.4,0.9,0.9
				S745.7,325.4,745.3,325.4z"/>
			<path class="st7" d="M745.3,324.1"/>
			<path class="st1" d="M717.7,334.6c-0.5,0-0.9-0.4-0.9-0.9v-27.8c0-0.5,0.4-0.9,0.9-0.9s0.9,0.4,0.9,0.9v27.8
				C718.6,334.2,718.2,334.6,717.7,334.6z"/>
		</g>
		<g>
			<g>
				<path class="st5" d="M817.2,334.9h-42.7c-3.4,0-6.2-2.8-6.2-6.2v-28.6c0-3.4,2.8-6.2,6.2-6.2h42.7c3.4,0,6.2,2.8,6.2,6.2v28.6
					C823.4,332.2,820.6,334.9,817.2,334.9z"/>
				<path class="st1" d="M817.2,337.4h-42.7c-4.8,0-8.7-3.9-8.7-8.7v-28.6c0-4.8,3.9-8.7,8.7-8.7h42.7c4.8,0,8.7,3.9,8.7,8.7v28.6
					C825.9,333.5,822,337.4,817.2,337.4z M774.5,296.5c-2,0-3.7,1.6-3.7,3.7v28.6c0,2,1.6,3.7,3.7,3.7h42.7c2,0,3.7-1.6,3.7-3.7
					v-28.6c0-2-1.6-3.7-3.7-3.7H774.5z"/>
			</g>
			<path class="st1" d="M823.4,307.1h-55.1c-0.7,0-1.3-0.6-1.3-1.3s0.6-1.3,1.3-1.3h55.1c0.7,0,1.3,0.6,1.3,1.3
				S824.1,307.1,823.4,307.1z"/>
			<path class="st1" d="M823.4,316h-55.1c-0.5,0-0.9-0.4-0.9-0.9s0.4-0.9,0.9-0.9h55.1c0.5,0,0.9,0.4,0.9,0.9S823.9,316,823.4,316z"
				/>
			<path class="st1" d="M823.4,325.4h-55.1c-0.5,0-0.9-0.4-0.9-0.9s0.4-0.9,0.9-0.9h55.1c0.5,0,0.9,0.4,0.9,0.9
				S823.9,325.4,823.4,325.4z"/>
			<path class="st7" d="M823.4,324.1"/>
			<path class="st1" d="M795.9,334.6c-0.5,0-0.9-0.4-0.9-0.9v-27.8c0-0.5,0.4-0.9,0.9-0.9s0.9,0.4,0.9,0.9v27.8
				C796.7,334.2,796.4,334.6,795.9,334.6z"/>
		</g>
		<g>
			<g>
				<path class="st5" d="M662.2,334.9h-42.7c-3.4,0-6.2-2.8-6.2-6.2v-28.6c0-3.4,2.8-6.2,6.2-6.2h42.7c3.4,0,6.2,2.8,6.2,6.2v28.6
					C668.3,332.2,665.6,334.9,662.2,334.9z"/>
				<path class="st1" d="M662.2,337.4h-42.7c-4.8,0-8.7-3.9-8.7-8.7v-28.6c0-4.8,3.9-8.7,8.7-8.7h42.7c4.8,0,8.7,3.9,8.7,8.7v28.6
					C670.8,333.5,666.9,337.4,662.2,337.4z M619.4,296.5c-2,0-3.7,1.6-3.7,3.7v28.6c0,2,1.6,3.7,3.7,3.7h42.7c2,0,3.7-1.6,3.7-3.7
					v-28.6c0-2-1.6-3.7-3.7-3.7H619.4z"/>
			</g>
			<path class="st1" d="M668.3,307.1h-55.1c-0.7,0-1.3-0.6-1.3-1.3s0.6-1.3,1.3-1.3h55.1c0.7,0,1.3,0.6,1.3,1.3
				S669,307.1,668.3,307.1z"/>
			<path class="st1" d="M668.3,316h-55.1c-0.5,0-0.9-0.4-0.9-0.9s0.4-0.9,0.9-0.9h55.1c0.5,0,0.9,0.4,0.9,0.9S668.8,316,668.3,316z"
				/>
			<path class="st1" d="M668.3,325.4h-55.1c-0.5,0-0.9-0.4-0.9-0.9s0.4-0.9,0.9-0.9h55.1c0.5,0,0.9,0.4,0.9,0.9
				S668.8,325.4,668.3,325.4z"/>
			<path class="st7" d="M613.3,324.1"/>
			<path class="st1" d="M640.8,334.6c-0.5,0-0.9-0.4-0.9-0.9v-27.8c0-0.5,0.4-0.9,0.9-0.9s0.9,0.4,0.9,0.9v27.8
				C641.7,334.2,641.3,334.6,640.8,334.6z"/>
		</g>
		<g>
			<line class="st5" x1="795.9" y1="150.9" x2="795.9" y2="172.1"/>
			<rect x="793.4" y="150.9" class="st1" width="5" height="21.3"/>
		</g>
		<g>
			<line class="st5" x1="768" y1="193.3" x2="746.7" y2="193.3"/>
			<rect x="746.7" y="190.8" class="st1" width="21.3" height="5"/>
		</g>
		<g>
			<line class="st5" x1="768" y1="132.3" x2="746.7" y2="132.3"/>
			<rect x="746.7" y="129.8" class="st1" width="21.3" height="5"/>
		</g>
		<g>
			<line class="st5" x1="689.6" y1="132.3" x2="668.3" y2="132.3"/>
			<rect x="668.3" y="129.8" class="st1" width="21.3" height="5"/>
		</g>
		<g>
			<line class="st5" x1="768" y1="71.4" x2="746.7" y2="71.4"/>
			<rect x="746.7" y="68.9" class="st1" width="21.3" height="5"/>
		</g>
		<g>
			<line class="st5" x1="689.6" y1="71.4" x2="668.3" y2="71.4"/>
			<rect x="668.3" y="68.9" class="st1" width="21.3" height="5"/>
		</g>
		<g>
			<line class="st5" x1="689.6" y1="193.3" x2="668.3" y2="193.3"/>
			<rect x="668.3" y="190.8" class="st1" width="21.3" height="5"/>
		</g>
		<g>
			<line class="st5" x1="768" y1="254.2" x2="746.7" y2="254.2"/>
			<rect x="746.7" y="251.7" class="st1" width="21.3" height="5"/>
		</g>
		<g>
			<line class="st5" x1="844.7" y1="193.3" x2="823.4" y2="193.3"/>
			<rect x="823.4" y="190.8" class="st1" width="21.3" height="5"/>
		</g>
		<g>
			<line class="st5" x1="844.7" y1="132.3" x2="823.4" y2="132.3"/>
			<rect x="823.4" y="129.8" class="st1" width="21.3" height="5"/>
		</g>
		<g>
			<line class="st5" x1="844.7" y1="254.2" x2="823.4" y2="254.2"/>
			<rect x="823.4" y="251.7" class="st1" width="21.3" height="5"/>
		</g>
		<g>
			<line class="st5" x1="611.4" y1="193.3" x2="590.2" y2="193.3"/>
			<rect x="590.2" y="190.8" class="st1" width="21.3" height="5"/>
		</g>
		<g>
			<line class="st5" x1="611.4" y1="132.3" x2="590.2" y2="132.3"/>
			<rect x="590.2" y="129.8" class="st1" width="21.3" height="5"/>
		</g>
		<g>
			<line class="st5" x1="611.4" y1="254.2" x2="590.2" y2="254.2"/>
			<rect x="590.2" y="251.7" class="st1" width="21.3" height="5"/>
		</g>
		<g>
			<line class="st5" x1="689.6" y1="254.2" x2="668.3" y2="254.2"/>
			<rect x="668.3" y="251.7" class="st1" width="21.3" height="5"/>
		</g>
		<g>
			<line class="st5" x1="768" y1="315.2" x2="746.7" y2="315.2"/>
			<rect x="746.7" y="312.7" class="st1" width="21.3" height="5"/>
		</g>
		<g>
			<line class="st5" x1="689.6" y1="315.2" x2="668.3" y2="315.2"/>
			<rect x="668.3" y="312.7" class="st1" width="21.3" height="5"/>
		</g>
		<g>
			<line class="st5" x1="717.7" y1="150.9" x2="717.7" y2="172.1"/>
			<rect x="715.2" y="150.9" class="st1" width="5" height="21.3"/>
		</g>
		<g>
			<line class="st5" x1="795.9" y1="213.1" x2="795.9" y2="234.4"/>
			<rect x="793.4" y="213.1" class="st1" width="5" height="21.3"/>
		</g>
		<g>
			<line class="st5" x1="717.7" y1="213.1" x2="717.7" y2="234.4"/>
			<rect x="715.2" y="213.1" class="st1" width="5" height="21.3"/>
		</g>
		<g>
			<line class="st5" x1="640.8" y1="213.1" x2="640.8" y2="234.4"/>
			<rect x="638.3" y="213.1" class="st1" width="5" height="21.3"/>
		</g>
		<g>
			<line class="st5" x1="795.9" y1="274" x2="795.9" y2="295.2"/>
			<rect x="793.4" y="274" class="st1" width="5" height="21.3"/>
		</g>
		<g>
			<line class="st5" x1="717.7" y1="274" x2="717.7" y2="295.2"/>
			<rect x="715.2" y="274" class="st1" width="5" height="21.3"/>
		</g>
		<g>
			<line class="st5" x1="640.8" y1="274" x2="640.8" y2="295.2"/>
			<rect x="638.3" y="274" class="st1" width="5" height="21.3"/>
		</g>
		<g>
			<line class="st5" x1="640.8" y1="152.9" x2="640.8" y2="174.1"/>
			<rect x="638.3" y="152.9" class="st1" width="5" height="21.3"/>
		</g>
		<g>
			<line class="st5" x1="795.9" y1="89.9" x2="795.9" y2="111.2"/>
			<rect x="793.4" y="89.9" class="st1" width="5" height="21.3"/>
		</g>
		<g>
			<line class="st5" x1="717.7" y1="89.9" x2="717.7" y2="111.2"/>
			<rect x="715.2" y="89.9" class="st1" width="5" height="21.3"/>
		</g>
		<g>
			<line class="st5" x1="640.8" y1="91.9" x2="640.8" y2="113.2"/>
			<rect x="638.3" y="91.9" class="st1" width="5" height="21.3"/>
		</g>
	</g>
</g>
<path class="st1" d="M717.9,291c-54.3,0-98.5-44.2-98.5-98.5c0-54.3,44.2-98.5,98.5-98.5c54.3,0,98.5,44.2,98.5,98.5
	C816.4,246.9,772.2,291,717.9,291z M717.9,100.1c-51,0-92.5,41.5-92.5,92.5s41.5,92.5,92.5,92.5s92.5-41.5,92.5-92.5
	S768.9,100.1,717.9,100.1z"/>
<g>
	<g>
		<path class="st0" d="M134.7,332.3h4.8v6.8h5.4v-6.8h4.8v18.2H145v-7.2h-5.4v7.2h-4.8V332.3z"/>
		<path class="st0" d="M154,352.1c1.3,0,1.9-0.6,2.2-1.4l0.2-0.6l-5.3-13.5h4.8l1.7,5.4c0.4,1.3,0.7,2.6,1,4h0.1
			c0.3-1.3,0.6-2.6,0.9-4l1.4-5.4h4.6l-4.7,13.8c-1.5,3.8-3,5.5-6.4,5.5c-1,0-1.5-0.1-2.1-0.3l0.8-3.6
			C153.3,352,153.7,352.1,154,352.1z"/>
		<path class="st0" d="M171.7,351.6v3.9h-4.8v-18.9h3.9l0.3,1.3h0.1c1-1,2.4-1.6,3.8-1.6c3.3,0,5.4,2.8,5.4,7.1
			c0,4.8-2.9,7.6-5.8,7.6c-1.2,0-2.2-0.5-3.1-1.4L171.7,351.6z M173.5,347c1.1,0,2.1-0.9,2.1-3.6c0-2.3-0.7-3.2-2-3.2
			c-0.7,0-1.3,0.3-1.9,1v5.2C172.3,346.8,172.9,347,173.5,347z"/>
		<path class="st0" d="M188.6,336.2c4.1,0,6.1,3,6.1,6.8c0,0.8-0.1,1.6-0.2,1.9h-8c0.4,1.8,1.7,2.4,3.2,2.4c1,0,1.8-0.3,2.9-0.8
			l1.6,2.9c-1.5,1.1-3.5,1.6-5.1,1.6c-4.1,0-7.2-2.7-7.2-7.3C181.9,339,185.2,336.2,188.6,336.2z M190.6,342c0-1.2-0.4-2.1-1.9-2.1
			c-1.1,0-2,0.6-2.2,2.1H190.6z"/>
		<path class="st0" d="M196.8,336.5h3.9l0.3,2.4h0.1c1-1.9,2.6-2.7,4-2.7c0.9,0,1.3,0.1,1.7,0.3l-0.8,4.1c-0.5-0.1-1-0.2-1.6-0.2
			c-1,0-2.2,0.6-2.9,2.4v7.8h-4.8V336.5z"/>
		<path class="st0" d="M209.6,340.3h-1.8v-3.6l2.1-0.2l0.6-3.6h4v3.6h3.2v3.8h-3.2v4.8c0,1.5,0.8,2,1.7,2c0.4,0,0.9-0.1,1.2-0.2
			l0.7,3.5c-0.7,0.2-1.8,0.5-3.3,0.5c-3.6,0-5.2-2.3-5.2-5.7V340.3z"/>
		<path class="st0" d="M226.5,341.5c-0.1-1-0.7-1.5-2-1.5c-1,0-2.1,0.4-3.5,1.2l-1.7-3.1c2-1.2,4-1.8,6.2-1.8c3.6,0,5.8,2,5.8,6.6
			v7.8h-3.9l-0.3-1.3H227c-1.1,1-2.4,1.7-3.9,1.7c-2.6,0-4.2-2-4.2-4.3C218.9,343.7,221.2,342,226.5,341.5z M224.8,347.2
			c0.8,0,1.2-0.4,1.7-1v-1.9c-2.3,0.3-3,1.1-3,1.8C223.5,346.8,224,347.2,224.8,347.2z"/>
		<path class="st0" d="M233.4,331.1h4.8v4.5l-0.1,2c1-0.9,2.2-1.4,3.4-1.4c3.3,0,5.5,2.8,5.5,7.1c0,4.8-2.9,7.6-5.8,7.6
			c-1.2,0-2.5-0.6-3.5-1.8h-0.1l-0.4,1.5h-3.8V331.1z M240,347c1.1,0,2.1-0.9,2.1-3.6c0-2.3-0.7-3.2-2-3.2c-0.7,0-1.3,0.3-1.9,1v5.2
			C238.8,346.8,239.4,347,240,347z"/>
		<path class="st0" d="M249.1,331.1h4.8v14.7c0,1,0.4,1.2,0.8,1.2c0.2,0,0.3,0,0.5-0.1l0.6,3.5c-0.5,0.2-1.3,0.4-2.4,0.4
			c-3.2,0-4.3-2.1-4.3-5.3V331.1z"/>
		<path class="st0" d="M262.9,336.2c4.1,0,6.1,3,6.1,6.8c0,0.8-0.1,1.6-0.2,1.9h-8c0.4,1.8,1.7,2.4,3.2,2.4c1,0,1.8-0.3,2.9-0.8
			l1.6,2.9c-1.5,1.1-3.5,1.6-5.1,1.6c-4.1,0-7.2-2.7-7.2-7.3C256.2,339,259.5,336.2,262.9,336.2z M264.9,342c0-1.2-0.4-2.1-1.9-2.1
			c-1.1,0-2,0.6-2.2,2.1H264.9z"/>
	</g>
</g>
<g>
	<path class="st8" d="M634.1,332c2.3,0,4.3,1.1,5.5,2.4l-2.6,3c-0.9-0.8-1.7-1.2-2.9-1.2c-2.2,0-4,2-4,5.3c0,3.4,1.6,5.3,3.9,5.3
		c1.4,0,2.4-0.6,3.2-1.5l2.6,2.9c-1.5,1.8-3.6,2.7-5.9,2.7c-4.8,0-8.8-3.1-8.8-9.3C625.2,335.5,629.4,332,634.1,332z"/>
	<path class="st8" d="M641.4,331.1h4.8v4.5L646,338c1-0.8,2.3-1.8,4.2-1.8c3.1,0,4.4,2.2,4.4,5.7v8.6h-4.8v-8c0-1.8-0.4-2.2-1.4-2.2
		c-0.9,0-1.4,0.4-2.1,1.1v9.2h-4.8V331.1z"/>
	<path class="st8" d="M657,336.5h4.8v8c0,1.8,0.4,2.2,1.4,2.2c0.9,0,1.4-0.3,2-1.2v-9h4.8v14h-3.9l-0.3-1.8h-0.1
		c-1.1,1.3-2.4,2.2-4.3,2.2c-3.1,0-4.4-2.2-4.4-5.7V336.5z"/>
	<path class="st8" d="M672.8,336.5h3.9l0.3,1.7h0.1c1.1-1.1,2.5-2,4.4-2c3.1,0,4.4,2.2,4.4,5.7v8.6h-4.8v-8c0-1.8-0.4-2.2-1.4-2.2
		c-0.9,0-1.4,0.4-2.1,1.1v9.2h-4.8V336.5z"/>
	<path class="st8" d="M688.5,331.1h4.7v10.4h0.1l3.9-4.9h5.2l-5,5.8l5.3,8.2h-5.2l-2.8-5l-1.5,1.6v3.4h-4.7V331.1z"/>
</g>
</svg>
