<?xml version="1.0" encoding="utf-8"?>
<!-- Generator: Adobe Illustrator 22.1.0, SVG Export Plug-In . SVG Version: 6.00 Build 0)  -->
<svg version="1.1" id="Layer_1" xmlns="http://www.w3.org/2000/svg" xmlns:xlink="http://www.w3.org/1999/xlink" x="0px" y="0px"
	 viewBox="0 0 885 377" style="enable-background:new 0 0 885 377;" xml:space="preserve">
<style type="text/css">
	.st0{opacity:0.25;fill:#B3DBFA;}
	.st1{fill:#FFFFFF;}
	.st2{opacity:0.25;fill:#333333;}
	.st3{fill:#B3DBFA;}
	.st4{fill:#333333;}
	.st5{fill:#2DA5E8;}
	.st6{fill:#DCF1FF;}
	.st7{fill:#89C0E5;}
	.st8{opacity:0.15;fill:#333333;}
	.st9{fill:#B2B2B2;}
	.st10{fill:#336791;}
	.st11{fill:none;stroke:#FFFFFF;stroke-width:0.2863;stroke-linecap:round;stroke-linejoin:round;}
	.st12{fill:#EF7C15;}
	.st13{opacity:0.6;}
	.st14{opacity:0.62;}
	.st15{fill:#FFA561;}
	.st16{fill:#D16C28;}
	.st17{clip-path:url(#SVGID_2_);}
	.st18{clip-path:url(#SVGID_4_);fill:#F9EFD0;}
	.st19{clip-path:url(#SVGID_4_);fill:#EF7C15;}
	.st20{clip-path:url(#SVGID_4_);fill:#17517E;}
	.st21{clip-path:url(#SVGID_6_);}
	.st22{clip-path:url(#SVGID_8_);fill:#F9EFD0;}
	.st23{clip-path:url(#SVGID_8_);fill:#EF7C15;}
	.st24{clip-path:url(#SVGID_8_);fill:#17517E;}
	.st25{fill:#95BFDB;}
	.st26{fill:none;stroke:#FFFFFF;stroke-width:0.2676;stroke-linecap:round;stroke-linejoin:round;}
	.st27{fill:#5DC0FF;}
	.st28{fill:none;stroke:#333333;stroke-width:1.2427;stroke-linecap:round;stroke-linejoin:round;stroke-miterlimit:10;}
</style>
<path class="st0" d="M788.1,330.6H123.4c-7.1,0-12.9-5.8-12.9-12.9V23.9c0-7.1,5.8-12.9,12.9-12.9h664.7c7.1,0,12.9,5.8,12.9,12.9
	v293.8C801,324.8,795.2,330.6,788.1,330.6z"/>
<path class="st1" d="M752.1,300.4H157.3c-6,0-10.9-4.9-10.9-10.9V52c0-6,4.9-10.9,10.9-10.9h594.8c6,0,10.9,4.9,10.9,10.9v237.6
	C763,295.6,758.1,300.4,752.1,300.4z"/>
<path class="st2" d="M752,41.1c6.1,0,11,4.9,11,11v237.3c0,6.1-4.9,11-11,11H157.5c-6.1,0-11-4.9-11-11V52.1c0-6.1,4.9-11,11-11H752
	 M752,35.9H157.5c-9,0-16.3,7.3-16.3,16.3v237.3c0,9,7.3,16.3,16.3,16.3H752c9,0,16.3-7.3,16.3-16.3V52.1
	C768.3,43.2,761,35.9,752,35.9L752,35.9z"/>
<path class="st1" d="M718.6,258.2H377.9c-4.1,0-7.4-3.3-7.4-7.4v-162c0-4.1,3.3-7.4,7.4-7.4h340.7c4.1,0,7.4,3.3,7.4,7.4v162
	C726,254.9,722.7,258.2,718.6,258.2z"/>
<path class="st2" d="M718.5,81.4c4.1,0,7.5,3.4,7.5,7.5v161.9c0,4.1-3.4,7.5-7.5,7.5H378c-4.1,0-7.5-3.4-7.5-7.5V88.9
	c0-4.1,3.4-7.5,7.5-7.5H718.5 M718.5,77.4H378c-6.3,0-11.5,5.2-11.5,11.5v161.9c0,6.3,5.2,11.5,11.5,11.5h340.5
	c6.3,0,11.5-5.2,11.5-11.5V88.9C730,82.5,724.8,77.4,718.5,77.4L718.5,77.4z"/>
<g>
	<path class="st3" d="M162.7,354.8H76.9V292c0-2.1,1.7-3.9,3.9-3.9h78.1c2.1,0,3.9,1.7,3.9,3.9V354.8z"/>
	<path class="st4" d="M154.8,312.5h-78c-0.9,0-1.6-0.7-1.6-1.6s0.7-1.6,1.6-1.6h78c0.9,0,1.6,0.7,1.6,1.6S155.7,312.5,154.8,312.5z"
		/>
	<path class="st4" d="M154.8,334.4h-78c-0.9,0-1.6-0.7-1.6-1.6s0.7-1.6,1.6-1.6h78c0.9,0,1.6,0.7,1.6,1.6S155.7,334.4,154.8,334.4z"
		/>
	<circle class="st5" cx="86.6" cy="298.8" r="2.5"/>
	<circle class="st5" cx="86.6" cy="321.4" r="2.5"/>
	<circle class="st5" cx="86.6" cy="342.6" r="2.5"/>
	<path class="st4" d="M149.8,301.1H99.2c-0.6,0-1.1-0.5-1.1-1.1s0.5-1.1,1.1-1.1h50.6c0.6,0,1.1,0.5,1.1,1.1
		S150.4,301.1,149.8,301.1z"/>
	<path class="st4" d="M149.8,323H99.2c-0.6,0-1.1-0.5-1.1-1.1s0.5-1.1,1.1-1.1h50.6c0.6,0,1.1,0.5,1.1,1.1S150.4,323,149.8,323z"/>
	<path class="st4" d="M149.8,344.9H99.2c-0.6,0-1.1-0.5-1.1-1.1s0.5-1.1,1.1-1.1h50.6c0.6,0,1.1,0.5,1.1,1.1
		S150.4,344.9,149.8,344.9z"/>
	<path class="st6" d="M159,356.7c-1.1,0-1.9-0.9-1.9-1.9V295c0-2.7-2.2-5-5-5c-1.1,0-1.9-0.9-1.9-1.9s0.9-1.9,1.9-1.9
		c4.8,0,8.8,3.9,8.8,8.8v59.8C161,355.8,160.1,356.7,159,356.7z"/>
	<path class="st7" d="M145.7,331.2H77c-0.9,0-1.6-0.7-1.6-1.6c0-0.9,0.7-1.6,1.6-1.6h68.7c0.9,0,1.6,0.7,1.6,1.6
		C147.3,330.5,146.6,331.2,145.7,331.2z"/>
	<path class="st7" d="M145.7,353.2H77c-0.9,0-1.6-0.7-1.6-1.6c0-0.9,0.7-1.6,1.6-1.6h68.7c0.9,0,1.6,0.7,1.6,1.6
		C147.3,352.5,146.6,353.2,145.7,353.2z"/>
	<path class="st7" d="M145.7,309.3H77c-0.9,0-1.6-0.7-1.6-1.6c0-0.9,0.7-1.6,1.6-1.6h68.7c0.9,0,1.6,0.7,1.6,1.6
		C147.3,308.6,146.6,309.3,145.7,309.3z"/>
	<path class="st4" d="M162.7,356.4H76.9c-0.9,0-1.6-0.7-1.6-1.6V292c0-3,2.5-5.5,5.5-5.5h78.1c3,0,5.5,2.5,5.5,5.5v62.8
		C164.3,355.7,163.6,356.4,162.7,356.4z M78.5,353.2h82.7V292c0-1.3-1-2.3-2.3-2.3H80.7c-1.3,0-2.3,1-2.3,2.3V353.2z"/>
	<path class="st8" d="M160.4,303.9c-13.5,4.2-23.4,17.4-23.4,33.1c0,5.6,1.3,10.9,3.5,15.6h20.3L160.4,303.9z"/>
	<g>
		<circle class="st1" cx="172.9" cy="337.4" r="32.6"/>
		<path class="st9" d="M172.9,306.8c16.9,0,30.6,13.7,30.6,30.6S189.8,368,172.9,368s-30.6-13.7-30.6-30.6S156.1,306.8,172.9,306.8
			 M172.9,304.8c-18,0-32.6,14.6-32.6,32.6s14.6,32.6,32.6,32.6c18,0,32.6-14.6,32.6-32.6S190.9,304.8,172.9,304.8L172.9,304.8z"/>
	</g>
	<g id="Layer_x0020_3">
		<g>
			<path d="M183,348.6c0.3-2.3,0.2-2.6,1.9-2.2l0.4,0c1.3,0.1,3-0.2,4-0.7c2.1-1,3.4-2.6,1.3-2.2c-4.8,1-5.1-0.6-5.1-0.6
				c5.1-7.5,7.2-17.1,5.4-19.4c-5-6.4-13.6-3.4-13.8-3.3l0,0c-0.9-0.2-2-0.3-3.2-0.3c-2.2,0-3.8,0.6-5.1,1.5c0,0-15.4-6.3-14.7,8
				c0.2,3,4.4,23.1,9.4,17c1.8-2.2,3.6-4.1,3.6-4.1c0.9,0.6,1.9,0.9,3,0.8l0.1-0.1c0,0.3,0,0.5,0,0.9c-1.3,1.4-0.9,1.7-3.5,2.2
				c-2.6,0.5-1.1,1.5-0.1,1.8c1.2,0.3,4,0.7,5.9-1.9l-0.1,0.3c0.5,0.4,0.5,2.9,0.5,4.7c0.1,1.8,0.2,3.5,0.6,4.5
				c0.4,1,0.8,3.5,4.2,2.8C180.6,357.6,182.8,356.7,183,348.6"/>
			<path d="M176.6,360.1c-2.2,0-3.8-1.3-4.6-3.8c0-0.1-0.1-0.2-0.1-0.3c-0.4-1.2-0.6-2.9-0.7-5c0-0.3,0-0.7,0-1c0-0.2,0-0.5,0-0.7
				c-1.5,0.6-3.2,0.8-5,0.3c-0.8-0.2-1.7-0.6-2.2-1.3c-1.5,1.2-2.8,1-3.6,0.8c-5.4-1.8-8.1-18.3-8.1-19.7c-0.2-4.5,1-7.7,3.6-9.6
				c4.1-2.9,10.3-1.2,12.6-0.5c1.5-0.9,3.3-1.4,5.3-1.3c1.1,0,2.1,0.1,3,0.3c2.5-0.8,10.5-2.2,15.4,4c2.6,3.3,0,12.7-4.1,19.7
				c0.5,0,1.2-0.1,2.1-0.3c2.3-0.5,3,0.9,3.1,1.3c0.7,2.2-2.3,3.8-3.3,4.3c-1.2,0.6-3.2,0.9-4.8,0.8l-0.4,0c0,0.1,0,0.1,0,0.2l0,0.3
				c-0.2,8.3-2.5,10.4-6.6,11.3C177.6,360.1,177.1,360.1,176.6,360.1z M173.6,344.8c1,0.8,1.1,2.3,1.2,5.1c0,0.3,0,0.7,0,1
				c0,0.9,0.1,3,0.4,3.9c0,0.1,0.1,0.3,0.1,0.4c0.4,1.1,0.5,1.6,2,1.3c2.1-0.5,3.6-0.8,3.8-7.9l0.1-0.6c0.2-1.3,0.3-2.4,1.2-3.1
				c0.6-0.4,1.3-0.5,1.9-0.4c-0.5-0.5-0.6-1-0.7-1.2l-0.1-0.7l0.4-0.6c5-7.5,6.4-16,5.4-17.3c-4-5.1-10.9-3-11.6-2.8l-0.1,0.1
				L177,322l-0.4-0.1c-0.9-0.2-1.8-0.3-2.9-0.3c-1.6,0-2.9,0.4-4,1.2l-0.8,0.6L168,323c-1.8-0.8-7.3-2.3-10.1-0.3
				c-1.6,1.1-2.3,3.3-2.1,6.5c0.2,4,3.6,16,5.7,16.5c0,0,0.2-0.1,0.5-0.5c1.9-2.2,3.6-4.1,3.7-4.2l1-1.1l1.2,0.8
				c0.4,0.3,0.9,0.5,1.4,0.5l3-2.5l-0.4,4.4c0,0.1,0,0.2,0,0.4l0.1,0.8l-0.6,0.6c0,0,0,0,0,0l1.4,0.6L173.6,344.8z"/>
		</g>
		<path class="st10" d="M190.6,343.5c-4.8,1-5.1-0.6-5.1-0.6c5.1-7.5,7.2-17.1,5.4-19.4c-5-6.4-13.6-3.4-13.8-3.3l0,0
			c-0.9-0.2-2-0.3-3.2-0.3c-2.2,0-3.8,0.6-5.1,1.5c0,0-15.4-6.3-14.7,8c0.2,3,4.4,23.1,9.4,17c1.8-2.2,3.6-4.1,3.6-4.1
			c0.9,0.6,1.9,0.9,3,0.8l0.1-0.1c0,0.3,0,0.5,0,0.9c-1.3,1.4-0.9,1.7-3.5,2.2c-2.6,0.5-1.1,1.5-0.1,1.8c1.2,0.3,4,0.7,5.9-1.9
			l-0.1,0.3c0.5,0.4,0.9,2.6,0.8,4.7c-0.1,2-0.1,3.4,0.3,4.5c0.4,1.1,0.8,3.5,4.2,2.8c2.8-0.6,4.3-2.2,4.5-4.8
			c0.1-1.9,0.5-1.6,0.5-3.3l0.3-0.8c0.3-2.5,0-3.4,1.8-3l0.4,0c1.3,0.1,3-0.2,4-0.7C191.4,344.7,192.7,343.1,190.6,343.5
			L190.6,343.5z"/>
		<path class="st1" d="M176.9,359c-2.9,0-3.8-2.3-4.1-3.2c-0.5-1.4-0.7-6.4-0.5-10.9c0-0.3,0.3-0.6,0.6-0.6c0.3,0,0.6,0.3,0.6,0.6
			c-0.1,4.9,0.1,9.4,0.5,10.4c0.6,1.5,1.5,2.9,4.2,2.3c2.5-0.5,3.4-1.5,3.9-3.9c0.3-1.9,1-7.2,1-8.3c0-0.3,0.3-0.6,0.6-0.5
			c0.3,0,0.6,0.3,0.5,0.6c-0.1,1.1-0.7,6.4-1.1,8.4c-0.5,2.9-1.8,4.2-4.8,4.9C177.7,359,177.3,359,176.9,359z"/>
		<path class="st1" d="M161.5,348.1c-0.3,0-0.5-0.1-0.7-0.1c-4.4-1.5-7.2-16.7-7.3-18.6c-0.2-4.1,0.8-7,3.1-8.6
			c4.5-3.2,12.1-0.2,12.4,0c0.3,0.1,0.4,0.5,0.3,0.8c-0.1,0.3-0.5,0.5-0.8,0.3c-0.1,0-7.3-2.9-11.3-0.1c-1.9,1.4-2.8,3.9-2.6,7.5
			c0.1,2.7,3.1,16.4,6.5,17.5c0.2,0.1,0.9,0.3,1.8-0.9c1.8-2.2,3.5-4,3.5-4c0.2-0.2,0.6-0.2,0.8,0c0.2,0.2,0.2,0.6,0,0.8
			c0,0-1.7,1.7-3.5,3.9C163,347.8,162.1,348.1,161.5,348.1z"/>
		<path class="st1" d="M185.4,343.4c-0.1,0-0.2,0-0.3-0.1c-0.3-0.2-0.3-0.6-0.2-0.8c5.1-7.6,6.9-16.7,5.4-18.7
			c-4.6-5.8-12.3-3.4-13-3.1c0,0-0.1,0-0.1,0c-0.3,0.1-0.6,0-0.7-0.3c-0.1-0.3,0-0.6,0.2-0.8c0,0,0.1,0,0.2-0.1l0,0c0,0,0.1,0,0.1,0
			c1.5-0.5,9.5-2.6,14.3,3.5c2.2,2.8-0.5,12.9-5.3,20.1C185.8,343.3,185.6,343.4,185.4,343.4z"/>
		<path class="st1" d="M185.7,346.9c-0.9,0-1.7-0.1-2.2-0.4c-0.5-0.3-0.6-0.7-0.6-0.9c-0.1-2.3,1.1-2.7,1.8-2.9
			c-0.1-0.1-0.2-0.3-0.3-0.4c-0.4-0.5-0.9-1.1-1.3-2.1c-0.1-0.2-0.2-0.5-0.5-0.9c-1.2-2.2-3.8-6.8-2.1-9.2c0.8-1.1,2.3-1.5,4.5-1.3
			c-0.7-2.1-3.9-8.2-11.2-8.3c-2.2,0-4.1,0.6-5.4,2c-3.1,3.1-3,8.7-3,8.8c0,0.3-0.3,0.6-0.6,0.6c-0.3,0-0.6-0.2-0.6-0.6
			c0-0.3-0.1-6.2,3.3-9.7c1.6-1.6,3.7-2.4,6.3-2.4c9.1,0.1,12.4,8.8,12.5,10c0.1,0.7-0.4,0.8-0.5,0.8l-0.2,0
			c-1.5-0.2-3.4-0.3-4.1,0.7c-1.2,1.8,1.2,6.1,2.2,8c0.3,0.5,0.5,0.8,0.5,1c0.3,0.8,0.8,1.4,1.1,1.8c0.3,0.4,0.6,0.7,0.7,1.1
			c0.1,0.1,0.7,1,4.4,0.2c1-0.2,1.6,0,1.8,0.5c0.4,1.1-1.6,2.3-2.7,2.8C188.5,346.7,187,346.9,185.7,346.9z M185.3,343.7
			c-0.1,0-0.2,0.1-0.2,0.1c-0.6,0.2-1.1,0.3-1,1.7c0.3,0.4,3.3,0.3,4.9-0.4c0.8-0.4,1.4-0.8,1.7-1.1c0,0,0,0,0,0
			c-2.4,0.5-4.2,0.4-5.1-0.2C185.4,343.8,185.4,343.8,185.3,343.7z"/>
		<path class="st1" d="M168.3,348.6c-0.6,0-1.2-0.1-1.9-0.2c-0.2,0-1.8-0.5-1.8-1.6c0-1,1.4-1.3,1.9-1.4c1.8-0.4,1.9-0.5,2.5-1.2
			c0.2-0.2,0.4-0.5,0.7-0.8c1-1.1,1.9-0.7,2.2-0.5c0.6,0.2,1.1,0.8,1.3,1.6c0.2,0.7,0.1,1.3-0.3,1.8
			C171.9,347.8,170.3,348.6,168.3,348.6z M165.9,346.9c0.2,0.1,0.5,0.3,0.8,0.3c1.6,0.4,3.8,0.4,5.3-1.7c0.2-0.3,0.1-0.6,0.1-0.7
			c-0.1-0.4-0.4-0.7-0.6-0.8c-0.3-0.1-0.5-0.2-0.9,0.2l0,0c-0.3,0.3-0.5,0.5-0.6,0.7c-0.7,0.9-1.1,1.2-3.2,1.7
			C166.3,346.7,166.1,346.8,165.9,346.9z M170.2,343.8L170.2,343.8L170.2,343.8z"/>
		<path class="st1" d="M170.1,344.4c-0.3,0-0.5-0.2-0.6-0.5c0-0.1,0-0.2,0-0.2c-1.4,0-2.7-0.6-3.8-1.7c-1.3-1.4-1.9-3.3-1.6-5.2
			c0.3-2.1,0.2-3.9,0.1-4.9c0-0.3,0-0.5,0-0.6c0-1,2.8-2.2,4.4-2.4c2-0.2,3.3,0.7,3.7,2.5c1.1,4.9,0.1,7.1-0.6,8.7
			c-0.1,0.3-0.3,0.6-0.4,0.8l-0.1,0.2c-0.4,1-0.7,1.9-0.6,2.5C170.7,344,170.5,344.3,170.1,344.4
			C170.1,344.4,170.1,344.4,170.1,344.4z M165.4,331.4c0,0.1,0,0.2,0,0.4c0.1,1,0.2,2.9-0.1,5.1c-0.2,1.6,0.3,3.1,1.3,4.2
			c0.8,0.9,1.9,1.3,3,1.3c0.1-0.5,0.3-1.1,0.6-1.7l0.1-0.2c0.1-0.3,0.2-0.6,0.4-0.9c0.7-1.5,1.5-3.4,0.6-7.9
			c-0.2-0.9-0.6-1.4-1.4-1.6C168.1,329.7,165.8,331,165.4,331.4z"/>
		<g>
			<path class="st1" d="M168.6,331.2c0,0.2,0.4,0.7,0.9,0.8c0.5,0.1,0.9-0.3,1-0.5c0-0.2-0.4-0.4-0.9-0.5
				C169.1,330.9,168.7,331,168.6,331.2L168.6,331.2z"/>
			<path class="st1" d="M169.6,332.2c0,0-0.1,0-0.1,0c-0.3,0-0.6-0.2-0.8-0.5c-0.1-0.1-0.2-0.3-0.2-0.5c0-0.1,0-0.2,0.2-0.2
				c0.2-0.1,0.6-0.2,1-0.1c0.4,0.1,0.8,0.2,0.9,0.4c0.1,0.1,0.1,0.2,0.1,0.3c0,0.1-0.1,0.3-0.3,0.5
				C170.2,332,169.9,332.2,169.6,332.2z M168.8,331.2c0,0.1,0.3,0.5,0.7,0.5c0.4,0.1,0.7-0.3,0.7-0.4c0,0-0.3-0.2-0.7-0.3
				C169.2,331.1,168.9,331.2,168.8,331.2z M168.8,331.2C168.8,331.2,168.8,331.2,168.8,331.2L168.8,331.2L168.8,331.2z"/>
		</g>
		<g>
			<path class="st1" d="M183.8,330.8c0,0.2-0.4,0.7-0.9,0.8c-0.5,0.1-0.9-0.3-1-0.5c0-0.2,0.4-0.4,0.9-0.5
				C183.4,330.5,183.8,330.6,183.8,330.8L183.8,330.8z"/>
			<path class="st1" d="M182.9,331.7c-0.5,0-0.9-0.4-0.9-0.6c0-0.3,0.4-0.5,0.9-0.6c0.4-0.1,0.8,0,0.9,0.1c0.1,0.1,0.1,0.1,0.1,0.2
				l0,0c0,0.1-0.1,0.3-0.2,0.4c-0.2,0.3-0.5,0.5-0.8,0.5C183,331.7,182.9,331.7,182.9,331.7z M183.2,330.6c-0.1,0-0.2,0-0.3,0
				c-0.5,0.1-0.8,0.3-0.8,0.4c0,0.1,0.4,0.5,0.8,0.4c0.3,0,0.5-0.2,0.7-0.4c0.1-0.1,0.1-0.2,0.1-0.3l0,0c0,0,0,0,0-0.1
				C183.6,330.7,183.4,330.6,183.2,330.6z"/>
		</g>
		<path class="st1" d="M184.6,342c-0.1,0-0.2,0-0.3-0.1c-0.3-0.2-0.3-0.6-0.2-0.8c1.2-1.7,0.9-3.5,0.7-5.2c-0.1-0.7-0.2-1.5-0.2-2.2
			c0-0.8,0.1-1.4,0.2-2c0.1-0.7,0.2-1.4,0.2-2.2c0-0.3,0.2-0.6,0.6-0.6c0.3,0,0.6,0.2,0.6,0.6c0,0.9-0.1,1.7-0.2,2.4
			c-0.1,0.6-0.2,1.1-0.2,1.8c0,0.6,0.1,1.3,0.1,2.1c0.2,1.8,0.5,3.9-0.9,6C184.9,341.9,184.8,342,184.6,342z"/>
		<path class="st11" d="M152.2,323.4"/>
	</g>
</g>
<g>
	<g>
		<path class="st12" d="M439.1,213.4h2.4v3.4h2.7v-3.4h2.4v9.1h-2.4v-3.6h-2.7v3.6h-2.4V213.4z"/>
		<path class="st12" d="M449.1,223.3c0.6,0,1-0.3,1.1-0.7l0.1-0.3l-2.7-6.8h2.4l0.8,2.7c0.2,0.6,0.3,1.3,0.5,2h0.1
			c0.1-0.7,0.3-1.3,0.4-2l0.7-2.7h2.3l-2.4,6.9c-0.7,1.9-1.5,2.7-3.2,2.7c-0.5,0-0.8-0.1-1.1-0.1l0.4-1.8
			C448.7,223.2,448.9,223.3,449.1,223.3z"/>
		<path class="st12" d="M457.9,223.1v1.9h-2.4v-9.5h2l0.2,0.6h0.1c0.5-0.5,1.2-0.8,1.9-0.8c1.7,0,2.7,1.4,2.7,3.6
			c0,2.4-1.4,3.8-2.9,3.8c-0.6,0-1.1-0.3-1.6-0.7L457.9,223.1z M458.8,220.8c0.6,0,1-0.4,1-1.8c0-1.1-0.3-1.6-1-1.6
			c-0.4,0-0.6,0.1-1,0.5v2.6C458.2,220.7,458.5,220.8,458.8,220.8z"/>
		<path class="st12" d="M466.4,215.4c2.1,0,3.1,1.5,3.1,3.4c0,0.4-0.1,0.8-0.1,1h-4c0.2,0.9,0.8,1.2,1.6,1.2c0.5,0,0.9-0.1,1.4-0.4
			l0.8,1.4c-0.8,0.5-1.8,0.8-2.5,0.8c-2,0-3.6-1.3-3.6-3.7C463,216.8,464.6,215.4,466.4,215.4z M467.4,218.3c0-0.6-0.2-1.1-1-1.1
			c-0.5,0-1,0.3-1.1,1.1H467.4z"/>
		<path class="st12" d="M470.4,215.5h2l0.2,1.2h0.1c0.5-1,1.3-1.4,2-1.4c0.4,0,0.7,0.1,0.9,0.1l-0.4,2.1c-0.3-0.1-0.5-0.1-0.8-0.1
			c-0.5,0-1.1,0.3-1.5,1.2v3.9h-2.4V215.5z"/>
		<path class="st12" d="M476.3,217.4h-0.9v-1.8l1.1-0.1l0.3-1.8h2v1.8h1.6v1.9h-1.6v2.4c0,0.8,0.4,1,0.8,1c0.2,0,0.4-0.1,0.6-0.1
			l0.4,1.7c-0.4,0.1-0.9,0.3-1.7,0.3c-1.8,0-2.6-1.1-2.6-2.9V217.4z"/>
		<path class="st12" d="M484.8,218c-0.1-0.5-0.4-0.7-1-0.7c-0.5,0-1,0.2-1.8,0.6l-0.8-1.6c1-0.6,2-0.9,3.1-0.9c1.8,0,2.9,1,2.9,3.3
			v3.9h-2l-0.2-0.7H485c-0.6,0.5-1.2,0.8-1.9,0.8c-1.3,0-2.1-1-2.1-2.2C481,219.1,482.1,218.3,484.8,218z M483.9,220.9
			c0.4,0,0.6-0.2,0.9-0.5v-1c-1.1,0.2-1.5,0.5-1.5,0.9C483.3,220.7,483.5,220.9,483.9,220.9z"/>
		<path class="st12" d="M488.5,212.8h2.4v2.3l-0.1,1c0.5-0.4,1.1-0.7,1.7-0.7c1.7,0,2.7,1.4,2.7,3.5c0,2.4-1.4,3.8-2.9,3.8
			c-0.6,0-1.2-0.3-1.8-0.9h-0.1l-0.2,0.8h-1.9V212.8z M491.8,220.8c0.6,0,1-0.4,1-1.8c0-1.1-0.3-1.6-1-1.6c-0.4,0-0.6,0.1-1,0.5v2.6
			C491.2,220.7,491.5,220.8,491.8,220.8z"/>
		<path class="st12" d="M496.3,212.8h2.4v7.4c0,0.5,0.2,0.6,0.4,0.6c0.1,0,0.1,0,0.3,0l0.3,1.8c-0.3,0.1-0.6,0.2-1.2,0.2
			c-1.6,0-2.2-1.1-2.2-2.6V212.8z"/>
		<path class="st12" d="M503.2,215.4c2.1,0,3.1,1.5,3.1,3.4c0,0.4-0.1,0.8-0.1,1h-4c0.2,0.9,0.8,1.2,1.6,1.2c0.5,0,0.9-0.1,1.4-0.4
			l0.8,1.4c-0.8,0.5-1.8,0.8-2.5,0.8c-2,0-3.6-1.3-3.6-3.7C499.9,216.8,501.5,215.4,503.2,215.4z M504.2,218.3c0-0.6-0.2-1.1-1-1.1
			c-0.5,0-1,0.3-1.1,1.1H504.2z"/>
	</g>
</g>
<g>
	<g>
		<path class="st4" d="M563.5,198.5h-2.4v-2h7.2v2H566v7.1h-2.4V198.5z"/>
		<path class="st4" d="M572,201c-0.1-0.5-0.4-0.7-1-0.7c-0.5,0-1,0.2-1.8,0.6l-0.8-1.6c1-0.6,2-0.9,3.1-0.9c1.8,0,2.9,1,2.9,3.3v3.9
			h-2l-0.2-0.7h-0.1c-0.6,0.5-1.2,0.8-1.9,0.8c-1.3,0-2.1-1-2.1-2.2C568.2,202.1,569.3,201.3,572,201z M571.1,203.9
			c0.4,0,0.6-0.2,0.9-0.5v-1c-1.1,0.2-1.5,0.5-1.5,0.9C570.5,203.7,570.7,203.9,571.1,203.9z"/>
		<path class="st4" d="M575.7,195.8h2.4v2.3l-0.1,1c0.5-0.4,1.1-0.7,1.7-0.7c1.7,0,2.7,1.4,2.7,3.5c0,2.4-1.4,3.8-2.9,3.8
			c-0.6,0-1.2-0.3-1.8-0.9h-0.1l-0.2,0.8h-1.9V195.8z M579,203.8c0.6,0,1-0.4,1-1.8c0-1.1-0.3-1.6-1-1.6c-0.4,0-0.6,0.1-1,0.5v2.6
			C578.4,203.7,578.7,203.8,579,203.8z"/>
		<path class="st4" d="M583.5,195.8h2.4v7.4c0,0.5,0.2,0.6,0.4,0.6c0.1,0,0.1,0,0.3,0l0.3,1.8c-0.3,0.1-0.6,0.2-1.2,0.2
			c-1.6,0-2.2-1.1-2.2-2.6V195.8z"/>
		<path class="st4" d="M590.4,198.4c2.1,0,3.1,1.5,3.1,3.4c0,0.4-0.1,0.8-0.1,1h-4c0.2,0.9,0.8,1.2,1.6,1.2c0.5,0,0.9-0.1,1.4-0.4
			l0.8,1.4c-0.8,0.5-1.8,0.8-2.5,0.8c-2,0-3.6-1.3-3.6-3.7C587.1,199.8,588.7,198.4,590.4,198.4z M591.4,201.3c0-0.6-0.2-1.1-1-1.1
			c-0.5,0-1,0.3-1.1,1.1H591.4z"/>
	</g>
</g>
<g class="st13">
	<g>
		<path class="st4" d="M28,322.8c0.6,0.5,1.5,0.9,2.1,0.9c0.7,0,1-0.2,1-0.6c0-0.4-0.5-0.6-1.2-0.9l-1.1-0.5c-1-0.4-1.8-1.2-1.8-2.5
			c0-1.6,1.4-2.8,3.4-2.8c1,0,2.2,0.4,3,1.2l-1.2,1.5c-0.6-0.4-1.1-0.7-1.8-0.7c-0.6,0-1,0.2-1,0.6c0,0.4,0.5,0.6,1.3,0.9l1.1,0.4
			c1.1,0.4,1.8,1.2,1.8,2.5c0,1.5-1.3,2.9-3.6,2.9c-1.1,0-2.5-0.4-3.4-1.3L28,322.8z"/>
		<path class="st4" d="M37.6,318.4c2.1,0,3.1,1.5,3.1,3.4c0,0.4-0.1,0.8-0.1,1h-4c0.2,0.9,0.8,1.2,1.6,1.2c0.5,0,0.9-0.1,1.4-0.4
			l0.8,1.4c-0.8,0.5-1.8,0.8-2.5,0.8c-2,0-3.6-1.3-3.6-3.7C34.2,319.8,35.9,318.4,37.6,318.4z M38.6,321.3c0-0.6-0.2-1.1-1-1.1
			c-0.5,0-1,0.3-1.1,1.1H38.6z"/>
		<path class="st4" d="M41.7,318.5h2l0.2,1.2h0.1c0.5-1,1.3-1.4,2-1.4c0.4,0,0.7,0.1,0.9,0.1l-0.4,2.1c-0.3-0.1-0.5-0.1-0.8-0.1
			c-0.5,0-1.1,0.3-1.5,1.2v3.9h-2.4V318.5z"/>
		<path class="st4" d="M46.6,318.5H49l0.8,3.1c0.2,0.7,0.3,1.4,0.5,2.2h0.1c0.2-0.8,0.3-1.5,0.5-2.2l0.8-3.1h2.3l-2.2,7h-2.8
			L46.6,318.5z"/>
		<path class="st4" d="M57.4,318.4c2.1,0,3.1,1.5,3.1,3.4c0,0.4-0.1,0.8-0.1,1h-4c0.2,0.9,0.8,1.2,1.6,1.2c0.5,0,0.9-0.1,1.4-0.4
			l0.8,1.4c-0.8,0.5-1.8,0.8-2.5,0.8c-2,0-3.6-1.3-3.6-3.7C54.1,319.8,55.7,318.4,57.4,318.4z M58.4,321.3c0-0.6-0.2-1.1-1-1.1
			c-0.5,0-1,0.3-1.1,1.1H58.4z"/>
		<path class="st4" d="M61.5,318.5h2l0.2,1.2h0.1c0.5-1,1.3-1.4,2-1.4c0.4,0,0.7,0.1,0.9,0.1l-0.4,2.1c-0.3-0.1-0.5-0.1-0.8-0.1
			c-0.5,0-1.1,0.3-1.5,1.2v3.9h-2.4V318.5z"/>
	</g>
</g>
<g>
	<g>
		<path class="st12" d="M494.9,100.9h-3.6v-3h10.8v3h-3.6v10.6h-3.6V100.9z"/>
		<path class="st12" d="M503.3,97.9c0-1,0.8-1.8,2-1.8s2,0.8,2,1.8s-0.8,1.8-2,1.8S503.3,99,503.3,97.9z M503.5,101.1h3.6v10.5h-3.6
			V101.1z"/>
		<path class="st12" d="M509.1,101.1h2.9l0.3,1.3h0.1c0.8-0.8,1.7-1.5,3.1-1.5s2.3,0.6,2.9,1.7c0.9-0.9,1.8-1.7,3.2-1.7
			c2.3,0,3.3,1.7,3.3,4.3v6.5h-3.6v-6c0-1.3-0.3-1.7-1.1-1.7c-0.4,0-0.9,0.3-1.5,0.8v6.9h-3.6v-6c0-1.3-0.3-1.7-1.1-1.7
			c-0.4,0-0.9,0.3-1.5,0.8v6.9h-3.6V101.1z"/>
		<path class="st12" d="M531.4,100.8c3.1,0,4.6,2.3,4.6,5.1c0,0.6-0.1,1.2-0.1,1.4h-6c0.3,1.3,1.3,1.8,2.4,1.8
			c0.7,0,1.4-0.2,2.1-0.6l1.2,2.1c-1.1,0.8-2.6,1.2-3.8,1.2c-3.1,0-5.4-2-5.4-5.5C526.4,102.9,528.8,100.8,531.4,100.8z
			 M532.9,105.1c0-0.9-0.3-1.6-1.4-1.6c-0.8,0-1.5,0.4-1.7,1.6H532.9z"/>
		<path class="st12" d="M538.3,108.1c1,0.7,1.8,1,2.6,1c0.8,0,1.1-0.2,1.1-0.6c0-0.5-1-0.8-2-1.2c-1.2-0.5-2.6-1.4-2.6-3.1
			c0-2.1,1.7-3.4,4.2-3.4c1.7,0,2.9,0.7,3.9,1.4l-1.6,2.1c-0.8-0.5-1.5-0.9-2.1-0.9c-0.6,0-0.9,0.2-0.9,0.6c0,0.5,0.9,0.8,2,1.1
			c1.3,0.5,2.7,1.3,2.7,3.1c0,2-1.6,3.5-4.5,3.5c-1.3,0-3-0.6-4.1-1.5L538.3,108.1z"/>
		<path class="st12" d="M551.7,100.8c1.3,0,2.4,0.5,3.1,1.2l-1.6,2.2c-0.5-0.4-0.8-0.5-1.2-0.5c-1.3,0-2.1,1-2.1,2.6s0.9,2.6,2,2.6
			c0.7,0,1.2-0.3,1.7-0.7l1.4,2.3c-1,0.9-2.4,1.3-3.5,1.3c-3,0-5.3-2-5.3-5.5S548.7,100.8,551.7,100.8z"/>
		<path class="st12" d="M561.3,104.7c-0.1-0.8-0.5-1.1-1.5-1.1c-0.8,0-1.6,0.3-2.6,0.9l-1.3-2.4c1.5-0.9,3-1.4,4.6-1.4
			c2.7,0,4.4,1.5,4.4,4.9v5.8h-2.9l-0.3-1h-0.1c-0.8,0.8-1.8,1.3-2.9,1.3c-2,0-3.2-1.5-3.2-3.2C555.5,106.4,557.2,105.2,561.3,104.7
			z M560,109c0.6,0,0.9-0.3,1.3-0.7v-1.4c-1.7,0.3-2.3,0.8-2.3,1.4C559,108.8,559.3,109,560,109z"/>
		<path class="st12" d="M566.8,96.9h3.6v11c0,0.7,0.3,0.9,0.6,0.9c0.1,0,0.2,0,0.4,0l0.4,2.6c-0.4,0.2-1,0.3-1.8,0.3
			c-2.4,0-3.2-1.6-3.2-3.9V96.9z"/>
		<path class="st12" d="M577.2,100.8c3.1,0,4.6,2.3,4.6,5.1c0,0.6-0.1,1.2-0.1,1.4h-6c0.3,1.3,1.3,1.8,2.4,1.8
			c0.7,0,1.4-0.2,2.1-0.6l1.2,2.1c-1.1,0.8-2.6,1.2-3.8,1.2c-3.1,0-5.4-2-5.4-5.5C572.1,102.9,574.6,100.8,577.2,100.8z
			 M578.7,105.1c0-0.9-0.3-1.6-1.4-1.6c-0.8,0-1.5,0.4-1.7,1.6H578.7z"/>
		<path class="st12" d="M583.6,97.9h4c4.2,0,7,1.9,7,6.8s-2.9,6.9-6.8,6.9h-4.2V97.9z M587.4,108.7c2,0,3.5-0.8,3.5-4
			s-1.6-3.9-3.5-3.9h-0.2v7.9H587.4z"/>
		<path class="st12" d="M596.7,97.9h4.9c2.9,0,5.2,0.7,5.2,3.4c0,1.2-0.7,2.5-2.3,2.9v0.1c1.9,0.4,2.9,1.4,2.9,3.2
			c0,2.8-2.4,4-5.4,4h-5.3V97.9z M601.5,103.3c1.2,0,1.7-0.6,1.7-1.4s-0.5-1.2-1.7-1.2h-1.2v2.6H601.5z M601.7,108.8
			c1.4,0,2.1-0.5,2.1-1.6s-0.7-1.4-2.1-1.4h-1.5v3H601.7z"/>
	</g>
</g>
<g>
	<g class="st13">
		<path class="st12" d="M209.6,272.5h-2.4v-2h7.2v2H212v7.1h-2.4V272.5z"/>
		<path class="st12" d="M215.1,270.5c0-0.7,0.6-1.2,1.3-1.2c0.8,0,1.3,0.5,1.3,1.2s-0.6,1.2-1.3,1.2
			C215.7,271.7,215.1,271.2,215.1,270.5z M215.3,272.5h2.4v7h-2.4V272.5z"/>
		<path class="st12" d="M219,272.5h2l0.2,0.9h0.1c0.6-0.5,1.1-1,2.1-1c1,0,1.6,0.4,1.9,1.1c0.6-0.6,1.2-1.1,2.2-1.1
			c1.5,0,2.2,1.1,2.2,2.9v4.3h-2.4v-4c0-0.9-0.2-1.1-0.7-1.1c-0.3,0-0.6,0.2-1,0.5v4.6h-2.4v-4c0-0.9-0.2-1.1-0.7-1.1
			c-0.3,0-0.6,0.2-1,0.5v4.6H219V272.5z"/>
		<path class="st12" d="M233.9,272.4c2.1,0,3.1,1.5,3.1,3.4c0,0.4-0.1,0.8-0.1,1h-4c0.2,0.9,0.8,1.2,1.6,1.2c0.5,0,0.9-0.1,1.4-0.4
			l0.8,1.4c-0.8,0.5-1.8,0.8-2.5,0.8c-2,0-3.6-1.3-3.6-3.7C230.5,273.8,232.2,272.4,233.9,272.4z M234.9,275.3c0-0.6-0.2-1.1-1-1.1
			c-0.5,0-1,0.3-1.1,1.1H234.9z"/>
		<path class="st12" d="M238.5,277.3c0.6,0.5,1.2,0.7,1.7,0.7c0.5,0,0.7-0.1,0.7-0.4c0-0.4-0.6-0.5-1.3-0.8
			c-0.8-0.3-1.8-0.9-1.8-2.1c0-1.4,1.1-2.3,2.8-2.3c1.1,0,2,0.5,2.6,0.9l-1.1,1.4c-0.5-0.4-1-0.6-1.4-0.6c-0.4,0-0.6,0.1-0.6,0.4
			c0,0.4,0.6,0.5,1.3,0.8c0.8,0.3,1.8,0.8,1.8,2.1c0,1.3-1,2.3-3,2.3c-0.9,0-2-0.4-2.7-1L238.5,277.3z"/>
		<path class="st12" d="M247.4,272.4c0.8,0,1.6,0.3,2,0.8l-1.1,1.5c-0.3-0.3-0.6-0.3-0.8-0.3c-0.9,0-1.4,0.7-1.4,1.7
			s0.6,1.7,1.3,1.7c0.4,0,0.8-0.2,1.1-0.4l1,1.5c-0.7,0.6-1.6,0.9-2.4,0.9c-2,0-3.5-1.3-3.5-3.7S245.4,272.4,247.4,272.4z"/>
		<path class="st12" d="M253.8,275c-0.1-0.5-0.4-0.7-1-0.7c-0.5,0-1,0.2-1.8,0.6l-0.8-1.6c1-0.6,2-0.9,3.1-0.9c1.8,0,2.9,1,2.9,3.3
			v3.9h-2l-0.2-0.7H254c-0.6,0.5-1.2,0.8-1.9,0.8c-1.3,0-2.1-1-2.1-2.2C250,276.1,251.1,275.3,253.8,275z M252.9,277.9
			c0.4,0,0.6-0.2,0.9-0.5v-1c-1.1,0.2-1.5,0.5-1.5,0.9C252.3,277.7,252.5,277.9,252.9,277.9z"/>
		<path class="st12" d="M257.5,269.8h2.4v7.4c0,0.5,0.2,0.6,0.4,0.6c0.1,0,0.1,0,0.3,0l0.3,1.8c-0.3,0.1-0.6,0.2-1.2,0.2
			c-1.6,0-2.2-1.1-2.2-2.6V269.8z"/>
		<path class="st12" d="M264.4,272.4c2.1,0,3.1,1.5,3.1,3.4c0,0.4-0.1,0.8-0.1,1h-4c0.2,0.9,0.8,1.2,1.6,1.2c0.5,0,0.9-0.1,1.4-0.4
			l0.8,1.4c-0.8,0.5-1.8,0.8-2.5,0.8c-2,0-3.6-1.3-3.6-3.7C261,273.8,262.7,272.4,264.4,272.4z M265.4,275.3c0-0.6-0.2-1.1-1-1.1
			c-0.5,0-1,0.3-1.1,1.1H265.4z"/>
		<path class="st12" d="M268.7,270.4h2.7c2.8,0,4.7,1.3,4.7,4.5s-1.9,4.6-4.5,4.6h-2.8V270.4z M271.2,277.6c1.3,0,2.4-0.5,2.4-2.7
			c0-2.1-1-2.6-2.4-2.6h-0.1v5.2H271.2z"/>
		<path class="st12" d="M277.4,270.4h3.3c1.9,0,3.4,0.5,3.4,2.3c0,0.8-0.4,1.7-1.5,2v0.1c1.3,0.3,1.9,0.9,1.9,2.1
			c0,1.9-1.6,2.7-3.6,2.7h-3.6V270.4z M280.6,274c0.8,0,1.1-0.4,1.1-1s-0.4-0.8-1.1-0.8h-0.8v1.7H280.6z M280.8,277.7
			c1,0,1.4-0.4,1.4-1c0-0.7-0.4-1-1.4-1h-1v2H280.8z"/>
	</g>
	<g class="st14">
		<g>
			<polygon class="st12" points="195.2,186.3 209.8,182.9 226.7,182.9 235.6,183.2 244.3,185.6 247.2,188.5 247.7,194.5 247.7,227 
				244.1,231.2 229.4,233.9 211.5,233.4 198.8,230.7 194.1,226.1 			"/>
		</g>
		<g>
			<ellipse class="st15" cx="218.9" cy="186.1" rx="21.6" ry="2.9"/>
		</g>
		<path class="st4" d="M221.1,194c-7.5,0-14.4-0.5-19.4-1.5c-5.9-1.1-8.7-2.7-8.7-5s2.8-3.9,8.7-5c5-1,11.9-1.5,19.4-1.5
			s14.4,0.5,19.4,1.5c5.9,1.1,8.7,2.7,8.7,5s-2.8,3.9-8.7,5C235.5,193.4,228.6,194,221.1,194z M196.1,187.5c1.3,1.3,9.4,3.5,25,3.5
			s23.7-2.2,25-3.5c-1.3-1.3-9.4-3.5-25-3.5S197.4,186.2,196.1,187.5z"/>
		<path class="st4" d="M221.1,207.6c-13.4,0-27.6-2.4-27.6-6.8c0-0.6,0.5-1.1,1.1-1.1s1.1,0.5,1.1,1.1c0.1,1.4,9,4.7,25.5,4.7
			s25.4-3.3,25.5-4.7c0-0.6,0.5-1,1.1-1c0.6,0,1,0.4,1,1C248.8,205.2,234.5,207.6,221.1,207.6z"/>
		<path class="st15" d="M221.1,209.1c-13.4,0-27.3-2.4-27.3-6.5c0-0.4,0.3-0.7,0.7-0.7s0.7,0.3,0.7,0.7c0,1.7,9.1,5,25.9,5
			s25.9-3.3,25.9-5c0-0.4,0.3-0.7,0.7-0.7s0.7,0.3,0.7,0.7C248.4,206.7,234.5,209.1,221.1,209.1z"/>
		<path class="st16" d="M221.1,205.7c-13.4,0-27.3-2.4-27.3-6.5c0-0.4,0.3-0.7,0.7-0.7s0.7,0.3,0.7,0.7c0,1.7,9.1,5,25.9,5
			s25.9-3.3,25.9-5c0-0.4,0.3-0.7,0.7-0.7s0.7,0.3,0.7,0.7C248.4,203.3,234.5,205.7,221.1,205.7z"/>
		<path class="st4" d="M221.1,221.7c-15,0-27.6-3.4-27.6-7.5c0-0.6,0.5-1.1,1.1-1.1s1.1,0.5,1.1,1.1c0.1,1.4,9,5.4,25.5,5.4
			s25.5-4,25.5-5.4c0-0.6,0.5-1,1.1-1c0.6,0,1,0.5,1,1C248.8,218.2,236.1,221.7,221.1,221.7z"/>
		<path class="st16" d="M221.1,219.6c-14.5,0-27.3-3.4-27.3-7.2c0-0.4,0.3-0.7,0.7-0.7s0.7,0.3,0.7,0.7c0,1.7,9.1,5.8,25.9,5.8
			s25.9-4.1,25.9-5.8c0-0.4,0.3-0.7,0.7-0.7s0.7,0.3,0.7,0.7C248.4,216.2,235.7,219.6,221.1,219.6z"/>
		<path class="st15" d="M221.1,223.1c-14.5,0-27.3-3.4-27.3-7.2c0-0.4,0.3-0.7,0.7-0.7s0.7,0.3,0.7,0.7c0,1.7,9.1,5.8,25.9,5.8
			s25.9-4.1,25.9-5.8c0-0.4,0.3-0.7,0.7-0.7s0.7,0.3,0.7,0.7C248.4,219.7,235.7,223.1,221.1,223.1z"/>
		<path class="st4" d="M221.1,235.4c-13.5,0-28.1-3-28.1-8h3c0-0.1,0-0.1,0-0.1c0.6,1.5,9.9,5.1,25.1,5.1s24.5-3.6,25.1-5.1
			c0,0,0,0,0,0.1h3C249.2,232.4,234.6,235.4,221.1,235.4z"/>
		<path class="st16" d="M220.8,232.1c-14.5,0-27.3-3.4-27.3-7.2c0-0.4,0.3-0.7,0.7-0.7s0.7,0.3,0.7,0.7c0,1.7,9.1,5.8,25.9,5.8
			s25.9-4.1,25.9-5.8c0-0.4,0.3-0.7,0.7-0.7s0.7,0.3,0.7,0.7C248.1,228.7,235.4,232.1,220.8,232.1z"/>
		<path class="st8" d="M235,234.5l6.4-0.6l8-25.7v-3.5c0,0-7.7,3.4-12.1,12.7s-3.9,17.1-3.9,17.1H235z"/>
		<rect x="246.2" y="187.5" class="st4" width="3" height="40"/>
		<g>
			<circle class="st1" cx="266.9" cy="232.5" r="30.5"/>
			<path class="st9" d="M266.9,204c15.8,0,28.6,12.8,28.6,28.6c0,15.8-12.8,28.6-28.6,28.6s-28.6-12.8-28.6-28.6
				C238.3,216.8,251.1,204,266.9,204 M266.9,202.1c-16.8,0-30.5,13.6-30.5,30.5c0,16.8,13.6,30.5,30.5,30.5s30.5-13.6,30.5-30.5
				C297.4,215.7,283.7,202.1,266.9,202.1L266.9,202.1z"/>
		</g>
		<rect x="193.1" y="187.5" class="st4" width="3" height="40.5"/>
		<g id="Mark__x28_full_color_x29__14_">
			<g>
				<defs>
					<rect id="SVGID_1_" x="245.5" y="211.1" width="42.9" height="42.9"/>
				</defs>
				<clipPath id="SVGID_2_">
					<use xlink:href="#SVGID_1_"  style="overflow:visible;"/>
				</clipPath>
				<g class="st17">
					<defs>
						<rect id="SVGID_3_" x="245.5" y="211.1" width="42.9" height="42.9"/>
					</defs>
					<clipPath id="SVGID_4_">
						<use xlink:href="#SVGID_3_"  style="overflow:visible;"/>
					</clipPath>
					<path class="st18" d="M285,244c6.4-10,3.4-23.3-6.6-29.6c-10-6.4-23.3-3.4-29.6,6.6c-6.4,10-3.4,23.3,6.6,29.6
						C265.4,257,278.7,254,285,244"/>
					<path class="st19" d="M282.2,232.2c0-8.4-6.8-15.3-15.3-15.3c-8.4,0-15.3,6.8-15.3,15.3s6.8,15.3,15.3,15.3
						C275.4,247.5,282.2,240.7,282.2,232.2"/>
					<path class="st18" d="M270.7,228.1c-0.9,2.2-0.2,4.6,1.5,5.3c1.7,0.7,3.9-0.5,4.8-2.8c0.9-2.2,0.2-4.6-1.5-5.3
						C273.8,224.7,271.6,225.9,270.7,228.1"/>
					<path class="st18" d="M262.6,246.4c0,2.6,2,4.7,4.4,4.7c2.4,0,4.4-2.1,4.4-4.7c0-2.6-2-4.7-4.4-4.7
						C264.5,241.7,262.6,243.8,262.6,246.4"/>
					<path class="st18" d="M256.9,230.7c-0.9-2.2-0.2-4.6,1.5-5.3c1.7-0.7,3.9,0.5,4.8,2.8c0.9,2.2,0.2,4.6-1.5,5.3
						C260,234.2,257.9,233,256.9,230.7"/>
					<path class="st20" d="M274.7,246.9c4.7-2.5,8.1-7.3,8.6-12.9l2.6,3c-1.5,6-5.7,10.9-11.3,13.3c0.1-0.5,0.1-1,0.1-1.6
						C274.8,248.2,274.7,247.6,274.7,246.9 M261.6,248c1.7,0.6,3.4,0.9,5.3,0.9c1.9,0,3.8-0.3,5.5-0.9c-0.4,1.4-0.9,2.7-1.6,3.7
						c-1.3,0.3-2.5,0.4-3.9,0.4c-1.2,0-2.5-0.1-3.6-0.3C262.5,250.7,261.9,249.5,261.6,248 M259.2,247c-4.8-2.5-8.2-7.4-8.7-13
						l-2.6,3.4c1.5,5.9,5.8,10.8,11.3,13.2c-0.1-0.5-0.1-1-0.1-1.7C259.1,248.2,259.1,247.6,259.2,247 M280.1,222.5l1.9-2.7
						c-1.3-1.6-2.9-3-4.7-4.1l-3.2,1.8C276.5,218.7,278.6,220.4,280.1,222.5 M256.6,215.6c-1.9,1.1-3.5,2.6-4.9,4.2l2.1,2.4
						c1.5-2,3.5-3.6,5.8-4.7L256.6,215.6z"/>
					<path class="st20" d="M256,232.2c0-5,3.3-9.1,7.8-10.5c0.2-0.6,0.5-1.1,0.7-1.5c-5.6,1.1-9.8,6-9.8,11.9
						c0,4.2,2.1,7.9,5.3,10.1c0.1-0.4,0.3-0.8,0.5-1.2C257.8,239.1,256,235.9,256,232.2"/>
					<path class="st20" d="M258.2,228.6l0.9,0.2c0.8-1.9,2.3-3.5,4.2-4.4c0-0.4,0.1-0.7,0.1-1.1C261,224.4,259.1,226.2,258.2,228.6"
						/>
					<path class="st20" d="M258.5,233.6h-1c0.4,2.5,1.7,4.7,3.7,6.2c0.2-0.3,0.3-0.5,0.5-0.8C260,237.7,258.8,235.8,258.5,233.6"/>
					<path class="st20" d="M274.8,228.9l0.9-0.2c-1.1-2.7-3.4-4.7-6.2-5.5c0.1,0.3,0.1,0.7,0.2,1C272,224.9,273.8,226.7,274.8,228.9
						"/>
					<polygon class="st20" points="276.4,231.1 275.4,230 272.1,230.6 271.6,232.1 273.1,233.1 275.9,232.1 					"/>
					<polygon class="st20" points="257.6,231.1 258.5,230 261.8,230.6 262.3,232.1 260.8,233.1 258.1,232.1 					"/>
					<path class="st20" d="M275.9,235.1c0.2-0.5,0.3-1,0.4-1.5h-0.9c0,0.3-0.1,0.6-0.2,0.9C275.4,234.7,275.7,234.9,275.9,235.1"/>
					<path class="st20" d="M272.9,238.3c-0.2,0.2-0.5,0.5-0.8,0.7c0.2,0.3,0.3,0.5,0.5,0.8c0.4-0.3,0.8-0.7,1.2-1.1
						C273.5,238.6,273.2,238.4,272.9,238.3"/>
					<path class="st20" d="M277.8,232.2c0,1.4-0.3,2.8-0.8,4c0.4,0.4,0.6,0.9,0.8,1.2c0.8-1.6,1.2-3.4,1.2-5.3
						c0-6.3-4.8-11.4-10.9-12.1c0.3,0.4,0.6,0.8,0.8,1.4C274,222.5,277.8,226.9,277.8,232.2"/>
					<path class="st20" d="M275.3,239.2c-0.6,0.7-1.2,1.3-2,1.9c0.2,0.4,0.3,0.8,0.5,1.2c1.1-0.8,2.1-1.8,2.9-2.9
						C276.3,239.4,275.8,239.3,275.3,239.2"/>
					<path class="st20" d="M268,230.8L268,230.8C267.9,230.8,267.9,230.8,268,230.8l-1-10.7h-1l-0.9,10.8l0,0c0,0,0,0,0,0.1
						c0,0.2,0,0.4,0.1,0.5c0,0.2,0.1,0.4,0.2,0.6c0.2,0.5,0.5,0.8,0.8,1c0.1,0.1,0.2,0.1,0.3,0.2c0,0,0,0,0.1,0l0,0L277,239l0.6-0.8
						L268,230.8z"/>
					<path class="st20" d="M269.3,245.4c-0.8,0-1.5-0.6-1.7-1.3l3.9-1.5l-0.9-2.3l-3.7,1.5l-3.7-1.5l-0.9,2.3l3.9,1.5
						c-0.2,0.7-0.9,1.3-1.7,1.3c-0.1,0-0.1,0-0.2,0l-0.8,1.1c0.3,0.1,0.6,0.2,1,0.2c1,0,1.9-0.5,2.4-1.2c0.6,0.7,1.4,1.2,2.4,1.2
						c0.4,0,0.7-0.1,1.1-0.2l-0.8-1.1C269.5,245.4,269.4,245.4,269.3,245.4"/>
					<path class="st20" d="M279.1,223l-1.3,1.5c1.6,2.2,2.5,4.9,2.5,7.7c0,4.7-2.4,8.9-6.2,11.3c0.2,0.6,0.3,1.3,0.4,2
						c4.6-2.6,7.6-7.6,7.6-13.2C282.2,228.8,281.1,225.6,279.1,223"/>
					<path class="st20" d="M253.5,232.2c0-2.9,0.9-5.6,2.5-7.7l-1.3-1.5c-1.9,2.6-3.1,5.7-3.1,9.2c0,5.7,3.1,10.7,7.7,13.3
						c0.1-0.7,0.2-1.3,0.4-2C256,241.2,253.5,237,253.5,232.2"/>
					<path class="st20" d="M266.9,216.9c-2.3,0-4.6,0.5-6.6,1.5l0.9,1.6c1.7-0.8,3.6-1.2,5.6-1.2c2,0,3.9,0.4,5.6,1.2l0.9-1.6
						C271.5,217.5,269.3,216.9,266.9,216.9"/>
				</g>
			</g>
		</g>
	</g>
</g>
<g>
	<g>
		<polygon class="st12" points="345.9,214.3 360.5,210.9 377.4,210.9 386.3,211.2 395,213.6 397.9,216.5 398.4,222.5 398.4,255 
			394.8,259.2 380.1,261.9 362.2,261.4 349.5,258.7 344.7,254.1 		"/>
	</g>
	<g>
		<ellipse class="st15" cx="369.6" cy="214.1" rx="21.6" ry="2.9"/>
	</g>
	<path class="st4" d="M371.8,222c-7.5,0-14.4-0.5-19.4-1.5c-5.9-1.1-8.7-2.7-8.7-5s2.8-3.9,8.7-5c5-1,11.9-1.5,19.4-1.5
		s14.4,0.5,19.4,1.5c5.9,1.1,8.7,2.7,8.7,5s-2.8,3.9-8.7,5C386.2,221.4,379.3,222,371.8,222z M346.8,215.5c1.3,1.3,9.4,3.5,25,3.5
		c15.6,0,23.7-2.2,25-3.5c-1.3-1.3-9.4-3.5-25-3.5C356.2,212,348.1,214.2,346.8,215.5z"/>
	<path class="st4" d="M371.8,235.6c-13.4,0-27.6-2.4-27.6-6.8c0-0.6,0.5-1.1,1.1-1.1s1.1,0.5,1.1,1.1c0.1,1.4,9,4.7,25.5,4.7
		s25.4-3.3,25.5-4.7c0-0.6,0.5-1,1.1-1c0.6,0,1,0.4,1,1C399.5,233.2,385.2,235.6,371.8,235.6z"/>
	<path class="st15" d="M371.8,237.1c-13.4,0-27.3-2.4-27.3-6.5c0-0.4,0.3-0.7,0.7-0.7s0.7,0.3,0.7,0.7c0,1.7,9.1,5,25.9,5
		c16.7,0,25.9-3.3,25.9-5c0-0.4,0.3-0.7,0.7-0.7s0.7,0.3,0.7,0.7C399.1,234.7,385.2,237.1,371.8,237.1z"/>
	<path class="st16" d="M371.8,233.7c-13.4,0-27.3-2.4-27.3-6.5c0-0.4,0.3-0.7,0.7-0.7s0.7,0.3,0.7,0.7c0,1.7,9.1,5,25.9,5
		c16.7,0,25.9-3.3,25.9-5c0-0.4,0.3-0.7,0.7-0.7s0.7,0.3,0.7,0.7C399.1,231.3,385.2,233.7,371.8,233.7z"/>
	<path class="st4" d="M371.8,249.7c-15,0-27.6-3.4-27.6-7.5c0-0.6,0.5-1.1,1.1-1.1s1.1,0.5,1.1,1.1c0.1,1.4,9,5.4,25.5,5.4
		s25.5-4,25.5-5.4c0-0.6,0.5-1.1,1.1-1c0.6,0,1,0.5,1,1C399.5,246.2,386.8,249.7,371.8,249.7z"/>
	<path class="st16" d="M371.8,247.6c-14.5,0-27.3-3.4-27.3-7.2c0-0.4,0.3-0.7,0.7-0.7s0.7,0.3,0.7,0.7c0,1.7,9.1,5.8,25.9,5.8
		s25.9-4.1,25.9-5.8c0-0.4,0.3-0.7,0.7-0.7s0.7,0.3,0.7,0.7C399.1,244.2,386.4,247.6,371.8,247.6z"/>
	<path class="st15" d="M371.8,251.1c-14.5,0-27.3-3.4-27.3-7.2c0-0.4,0.3-0.7,0.7-0.7s0.7,0.3,0.7,0.7c0,1.7,9.1,5.8,25.9,5.8
		s25.9-4.1,25.9-5.8c0-0.4,0.3-0.7,0.7-0.7s0.7,0.3,0.7,0.7C399.1,247.7,386.4,251.1,371.8,251.1z"/>
	<path class="st4" d="M371.8,263.4c-13.5,0-28.1-3-28.1-8h3c0-0.1,0-0.1,0-0.1c0.6,1.5,9.9,5.1,25.1,5.1c15.2,0,24.5-3.6,25.1-5.1
		c0,0,0,0,0,0.1h3C399.9,260.4,385.3,263.4,371.8,263.4z"/>
	<path class="st16" d="M371.5,260.1c-14.5,0-27.3-3.4-27.3-7.2c0-0.4,0.3-0.7,0.7-0.7s0.7,0.3,0.7,0.7c0,1.7,9.1,5.8,25.9,5.8
		s25.9-4.1,25.9-5.8c0-0.4,0.3-0.7,0.7-0.7s0.7,0.3,0.7,0.7C398.8,256.7,386.1,260.1,371.5,260.1z"/>
	<path class="st8" d="M385.6,262.5l6.4-0.6l8-25.7v-3.5c0,0-7.7,3.4-12.1,12.7s-3.9,17.1-3.9,17.1H385.6z"/>
	<rect x="396.9" y="215.5" class="st4" width="3" height="40"/>
	<g>
		<circle class="st1" cx="417.6" cy="260.5" r="30.5"/>
		<path class="st9" d="M417.6,232c15.8,0,28.6,12.8,28.6,28.6c0,15.8-12.8,28.6-28.6,28.6S389,276.3,389,260.5
			C389,244.8,401.8,232,417.6,232 M417.6,230.1c-16.8,0-30.5,13.6-30.5,30.5c0,16.8,13.6,30.5,30.5,30.5s30.5-13.6,30.5-30.5
			C448.1,243.7,434.4,230.1,417.6,230.1L417.6,230.1z"/>
	</g>
	<rect x="343.7" y="215.5" class="st4" width="3" height="40.5"/>
	<g id="Mark__x28_full_color_x29__1_">
		<g>
			<defs>
				<rect id="SVGID_5_" x="396.1" y="239.1" width="42.9" height="42.9"/>
			</defs>
			<clipPath id="SVGID_6_">
				<use xlink:href="#SVGID_5_"  style="overflow:visible;"/>
			</clipPath>
			<g class="st21">
				<defs>
					<rect id="SVGID_7_" x="396.1" y="239.1" width="42.9" height="42.9"/>
				</defs>
				<clipPath id="SVGID_8_">
					<use xlink:href="#SVGID_7_"  style="overflow:visible;"/>
				</clipPath>
				<path class="st22" d="M435.7,272c6.4-10,3.4-23.3-6.6-29.6c-10-6.4-23.3-3.4-29.6,6.6c-6.4,10-3.4,23.3,6.6,29.6
					C416.1,285,429.4,282,435.7,272"/>
				<path class="st23" d="M432.9,260.2c0-8.4-6.8-15.3-15.3-15.3c-8.4,0-15.3,6.8-15.3,15.3c0,8.4,6.8,15.3,15.3,15.3
					C426,275.5,432.9,268.7,432.9,260.2"/>
				<path class="st22" d="M421.4,256.1c-0.9,2.2-0.2,4.6,1.5,5.3c1.7,0.7,3.9-0.5,4.8-2.8c0.9-2.2,0.2-4.6-1.5-5.3
					C424.5,252.7,422.3,253.9,421.4,256.1"/>
				<path class="st22" d="M413.3,274.4c0,2.6,2,4.7,4.4,4.7c2.4,0,4.4-2.1,4.4-4.7s-2-4.7-4.4-4.7
					C415.2,269.7,413.3,271.8,413.3,274.4"/>
				<path class="st22" d="M407.6,258.7c-0.9-2.2-0.2-4.6,1.5-5.3c1.7-0.7,3.9,0.5,4.8,2.8c0.9,2.2,0.2,4.6-1.5,5.3
					C410.7,262.2,408.5,261,407.6,258.7"/>
				<path class="st24" d="M425.4,274.9c4.7-2.5,8.1-7.3,8.6-12.9l2.6,3c-1.5,6-5.7,10.9-11.3,13.3c0.1-0.5,0.1-1,0.1-1.6
					C425.5,276.2,425.4,275.6,425.4,274.9 M412.3,276c1.7,0.6,3.4,0.9,5.3,0.9c1.9,0,3.8-0.3,5.5-0.9c-0.4,1.4-0.9,2.7-1.6,3.7
					c-1.3,0.3-2.5,0.4-3.9,0.4c-1.2,0-2.5-0.1-3.6-0.3C413.2,278.7,412.6,277.5,412.3,276 M409.9,275c-4.8-2.5-8.2-7.4-8.7-13
					l-2.6,3.4c1.5,5.9,5.8,10.8,11.3,13.2c-0.1-0.5-0.1-1-0.1-1.7C409.8,276.2,409.8,275.6,409.9,275 M430.8,250.5l1.9-2.7
					c-1.3-1.6-2.9-3-4.7-4.1l-3.2,1.8C427.2,246.7,429.3,248.4,430.8,250.5 M407.3,243.6c-1.9,1.1-3.5,2.6-4.9,4.2l2.1,2.4
					c1.5-2,3.5-3.6,5.8-4.7L407.3,243.6z"/>
				<path class="st24" d="M406.7,260.2c0-5,3.3-9.1,7.8-10.5c0.2-0.6,0.5-1.1,0.7-1.5c-5.6,1.1-9.8,6-9.8,11.9
					c0,4.2,2.1,7.9,5.3,10.1c0.1-0.4,0.3-0.8,0.5-1.2C408.5,267.1,406.7,263.9,406.7,260.2"/>
				<path class="st24" d="M408.8,256.6l0.9,0.2c0.8-1.9,2.3-3.5,4.2-4.4c0-0.4,0.1-0.7,0.1-1.1C411.7,252.4,409.8,254.2,408.8,256.6
					"/>
				<path class="st24" d="M409.2,261.6h-1c0.4,2.5,1.7,4.7,3.7,6.2c0.2-0.3,0.3-0.5,0.5-0.8C410.7,265.7,409.5,263.8,409.2,261.6"/>
				<path class="st24" d="M425.5,256.9l0.9-0.2c-1.1-2.7-3.4-4.7-6.2-5.5c0.1,0.3,0.1,0.7,0.2,1
					C422.6,252.9,424.5,254.7,425.5,256.9"/>
				<polygon class="st24" points="427.1,259.1 426.1,258 422.8,258.6 422.3,260.1 423.8,261.1 426.6,260.1 				"/>
				<polygon class="st24" points="408.2,259.1 409.2,258 412.5,258.6 413,260.1 411.5,261.1 408.7,260.1 				"/>
				<path class="st24" d="M426.6,263.1c0.2-0.5,0.3-1,0.4-1.5H426c0,0.3-0.1,0.6-0.2,0.9C426.1,262.7,426.4,262.9,426.6,263.1"/>
				<path class="st24" d="M423.6,266.3c-0.2,0.2-0.5,0.5-0.8,0.7c0.2,0.3,0.3,0.5,0.5,0.8c0.4-0.3,0.8-0.7,1.2-1.1
					C424.2,266.6,423.9,266.4,423.6,266.3"/>
				<path class="st24" d="M428.5,260.2c0,1.4-0.3,2.8-0.8,4c0.4,0.4,0.6,0.9,0.8,1.2c0.8-1.6,1.2-3.4,1.2-5.3
					c0-6.3-4.8-11.4-10.9-12.1c0.3,0.4,0.6,0.8,0.8,1.4C424.7,250.5,428.5,254.9,428.5,260.2"/>
				<path class="st24" d="M426,267.2c-0.6,0.7-1.2,1.3-2,1.9c0.2,0.4,0.3,0.8,0.5,1.2c1.1-0.8,2.1-1.8,2.9-2.9
					C427,267.4,426.5,267.3,426,267.2"/>
				<path class="st24" d="M418.6,258.8L418.6,258.8C418.6,258.8,418.6,258.8,418.6,258.8l-1-10.7h-1l-0.9,10.8l0,0c0,0,0,0,0,0.1
					c0,0.2,0,0.4,0.1,0.5c0,0.2,0.1,0.4,0.2,0.6c0.2,0.5,0.5,0.8,0.8,1c0.1,0.1,0.2,0.1,0.3,0.2c0,0,0,0,0.1,0l0,0l10.6,5.8l0.6-0.8
					L418.6,258.8z"/>
				<path class="st24" d="M420,273.4c-0.8,0-1.5-0.6-1.7-1.3l3.9-1.5l-0.9-2.3l-3.7,1.5l-3.7-1.5l-0.9,2.3l3.9,1.5
					c-0.2,0.7-0.9,1.3-1.7,1.3c-0.1,0-0.1,0-0.2,0l-0.8,1.1c0.3,0.1,0.6,0.2,1,0.2c1,0,1.9-0.5,2.4-1.2c0.6,0.7,1.4,1.2,2.4,1.2
					c0.4,0,0.7-0.1,1.1-0.2l-0.8-1.1C420.2,273.4,420.1,273.4,420,273.4"/>
				<path class="st24" d="M429.8,251l-1.3,1.5c1.6,2.2,2.5,4.9,2.5,7.7c0,4.7-2.4,8.9-6.2,11.3c0.2,0.6,0.3,1.3,0.4,2
					c4.6-2.6,7.6-7.6,7.6-13.2C432.9,256.8,431.7,253.6,429.8,251"/>
				<path class="st24" d="M404.2,260.2c0-2.9,0.9-5.6,2.5-7.7l-1.3-1.5c-1.9,2.6-3.1,5.7-3.1,9.2c0,5.7,3.1,10.7,7.7,13.3
					c0.1-0.7,0.2-1.3,0.4-2C406.7,269.2,404.2,265,404.2,260.2"/>
				<path class="st24" d="M417.6,244.9c-2.3,0-4.6,0.5-6.6,1.5l0.9,1.6c1.7-0.8,3.6-1.2,5.6-1.2c2,0,3.9,0.4,5.6,1.2l0.9-1.6
					C422.2,245.5,419.9,244.9,417.6,244.9"/>
			</g>
		</g>
	</g>
</g>
<g class="st13">
	<path class="st4" d="M182.4,150.4h3.5c2,0,3.6,0.7,3.6,3c0,2.2-1.7,3.2-3.6,3.2h-1.1v2.9h-2.4V150.4z M185.8,154.8
		c1,0,1.4-0.5,1.4-1.3s-0.5-1.1-1.4-1.1h-1v2.4H185.8z"/>
	<path class="st4" d="M193.4,152.4c1.8,0,3.5,1.3,3.5,3.7s-1.7,3.7-3.5,3.7s-3.5-1.3-3.5-3.7S191.6,152.4,193.4,152.4z M193.4,157.8
		c0.7,0,1-0.7,1-1.7s-0.3-1.7-1-1.7s-1,0.7-1,1.7S192.7,157.8,193.4,157.8z"/>
	<path class="st4" d="M198.3,157.3c0.6,0.5,1.2,0.7,1.7,0.7c0.5,0,0.7-0.1,0.7-0.4c0-0.4-0.6-0.5-1.3-0.8c-0.8-0.3-1.8-0.9-1.8-2.1
		c0-1.4,1.1-2.3,2.8-2.3c1.1,0,2,0.5,2.6,0.9l-1.1,1.4c-0.5-0.4-1-0.6-1.4-0.6c-0.4,0-0.6,0.1-0.6,0.4c0,0.4,0.6,0.5,1.3,0.8
		c0.8,0.3,1.8,0.8,1.8,2.1c0,1.3-1,2.3-3,2.3c-0.9,0-2-0.4-2.7-1L198.3,157.3z"/>
	<path class="st4" d="M204.1,154.4h-0.9v-1.8l1.1-0.1l0.3-1.8h2v1.8h1.6v1.9h-1.6v2.4c0,0.8,0.4,1,0.8,1c0.2,0,0.4-0.1,0.6-0.1
		l0.4,1.7c-0.4,0.1-0.9,0.3-1.7,0.3c-1.8,0-2.6-1.1-2.6-2.9V154.4z"/>
	<path class="st4" d="M209.6,159.4L209.6,159.4c-0.4-0.3-0.6-0.7-0.6-1.3c0-0.5,0.3-1,0.8-1.3v-0.1c-0.5-0.3-1-1-1-1.8
		c0-1.7,1.5-2.5,3-2.5c0.4,0,0.8,0.1,1.1,0.2h2.6v1.7h-1c0.1,0.2,0.1,0.4,0.1,0.7c0,1.7-1.3,2.3-2.8,2.3c-0.2,0-0.5,0-0.8-0.1
		c-0.1,0.1-0.2,0.2-0.2,0.4c0,0.3,0.3,0.4,1,0.4h1c1.8,0,2.8,0.5,2.8,1.8c0,1.5-1.6,2.5-4.1,2.5c-1.6,0-2.9-0.5-2.9-1.7
		C208.6,160.1,208.9,159.7,209.6,159.4z M211.9,161c0.8,0,1.4-0.3,1.4-0.6c0-0.4-0.3-0.4-0.9-0.4h-0.5c-0.6,0-0.8,0-1-0.1
		c-0.2,0.2-0.3,0.3-0.3,0.5C210.6,160.8,211.1,161,211.9,161z M212.5,154.9c0-0.6-0.3-1-0.8-1s-0.8,0.3-0.8,1c0,0.7,0.3,1,0.8,1
		S212.5,155.6,212.5,154.9z"/>
	<path class="st4" d="M216.4,152.5h2l0.2,1.2h0.1c0.5-1,1.3-1.4,2-1.4c0.4,0,0.7,0.1,0.9,0.1l-0.4,2.1c-0.3-0.1-0.5-0.1-0.8-0.1
		c-0.5,0-1.1,0.3-1.5,1.2v3.9h-2.4V152.5z"/>
	<path class="st4" d="M224.8,152.4c2.1,0,3.1,1.5,3.1,3.4c0,0.4-0.1,0.8-0.1,1h-4c0.2,0.9,0.8,1.2,1.6,1.2c0.5,0,0.9-0.1,1.4-0.4
		l0.8,1.4c-0.8,0.5-1.8,0.8-2.5,0.8c-2,0-3.6-1.3-3.6-3.7C221.4,153.8,223.1,152.4,224.8,152.4z M225.8,155.3c0-0.6-0.2-1.1-1-1.1
		c-0.5,0-1,0.3-1.1,1.1H225.8z"/>
	<path class="st4" d="M229.6,156.8c0.6,0.5,1.5,0.9,2.1,0.9c0.7,0,1-0.2,1-0.6c0-0.4-0.5-0.6-1.2-0.9l-1.1-0.5
		c-1-0.4-1.8-1.2-1.8-2.5c0-1.6,1.4-2.8,3.4-2.8c1,0,2.2,0.4,3,1.2l-1.2,1.5c-0.6-0.4-1.1-0.7-1.8-0.7c-0.6,0-1,0.2-1,0.6
		c0,0.4,0.5,0.6,1.3,0.9l1.1,0.4c1.1,0.4,1.8,1.2,1.8,2.5c0,1.5-1.3,2.9-3.6,2.9c-1.1,0-2.5-0.4-3.4-1.3L229.6,156.8z"/>
	<path class="st4" d="M245,161.8c-0.4,0.2-1,0.3-1.7,0.3c-2,0-3.5-1-4.2-2.5c-1.9-0.4-3.1-2.1-3.1-4.6c0-3,1.7-4.7,4.2-4.7
		c2.5,0,4.2,1.7,4.2,4.7c0,2.4-1.1,4-2.8,4.5c0.4,0.6,1.2,0.7,1.9,0.7c0.4,0,0.8-0.1,1-0.2L245,161.8z M238.4,155
		c0,1.7,0.7,2.7,1.8,2.7c1.1,0,1.8-1,1.8-2.7c0-1.7-0.7-2.6-1.8-2.6C239.1,152.3,238.4,153.3,238.4,155z"/>
	<path class="st4" d="M245.8,150.4h2.4v7.1h3.4v2h-5.9V150.4z"/>
	<path class="st4" d="M255.6,150.4h2.7c2.8,0,4.7,1.3,4.7,4.5s-1.9,4.6-4.5,4.6h-2.8V150.4z M258.2,157.6c1.3,0,2.4-0.5,2.4-2.7
		c0-2.1-1-2.6-2.4-2.6H258v5.2H258.2z"/>
	<path class="st4" d="M267.7,155c-0.1-0.5-0.4-0.7-1-0.7c-0.5,0-1,0.2-1.8,0.6l-0.8-1.6c1-0.6,2-0.9,3.1-0.9c1.8,0,2.9,1,2.9,3.3
		v3.9h-2l-0.2-0.7h-0.1c-0.6,0.5-1.2,0.8-1.9,0.8c-1.3,0-2.1-1-2.1-2.2C263.9,156.1,265,155.3,267.7,155z M266.8,157.9
		c0.4,0,0.6-0.2,0.9-0.5v-1c-1.1,0.2-1.5,0.5-1.5,0.9C266.2,157.7,266.4,157.9,266.8,157.9z"/>
	<path class="st4" d="M271.7,154.4h-0.9v-1.8l1.1-0.1l0.3-1.8h2v1.8h1.6v1.9h-1.6v2.4c0,0.8,0.4,1,0.8,1c0.2,0,0.4-0.1,0.6-0.1
		l0.4,1.7c-0.4,0.1-0.9,0.3-1.7,0.3c-1.8,0-2.6-1.1-2.6-2.9V154.4z"/>
	<path class="st4" d="M280.2,155c-0.1-0.5-0.4-0.7-1-0.7c-0.5,0-1,0.2-1.8,0.6l-0.8-1.6c1-0.6,2-0.9,3.1-0.9c1.8,0,2.9,1,2.9,3.3
		v3.9h-2l-0.2-0.7h-0.1c-0.6,0.5-1.2,0.8-1.9,0.8c-1.3,0-2.1-1-2.1-2.2C276.4,156.1,277.5,155.3,280.2,155z M279.3,157.9
		c0.4,0,0.6-0.2,0.9-0.5v-1c-1.1,0.2-1.5,0.5-1.5,0.9C278.7,157.7,278.9,157.9,279.3,157.9z"/>
	<path class="st4" d="M283.9,149.8h2.4v2.3l-0.1,1c0.5-0.4,1.1-0.7,1.7-0.7c1.7,0,2.7,1.4,2.7,3.5c0,2.4-1.4,3.8-2.9,3.8
		c-0.6,0-1.2-0.3-1.8-0.9H286l-0.2,0.8h-1.9V149.8z M287.2,157.8c0.6,0,1-0.4,1-1.8c0-1.1-0.3-1.6-1-1.6c-0.4,0-0.6,0.1-1,0.5v2.6
		C286.6,157.7,286.9,157.8,287.2,157.8z"/>
	<path class="st4" d="M295.2,155c-0.1-0.5-0.4-0.7-1-0.7c-0.5,0-1,0.2-1.8,0.6l-0.8-1.6c1-0.6,2-0.9,3.1-0.9c1.8,0,2.9,1,2.9,3.3
		v3.9h-2l-0.2-0.7h-0.1c-0.6,0.5-1.2,0.8-1.9,0.8c-1.3,0-2.1-1-2.1-2.2C291.4,156.1,292.5,155.3,295.2,155z M294.3,157.9
		c0.4,0,0.6-0.2,0.9-0.5v-1c-1.1,0.2-1.5,0.5-1.5,0.9C293.7,157.7,293.9,157.9,294.3,157.9z"/>
	<path class="st4" d="M299.4,157.3c0.6,0.5,1.2,0.7,1.7,0.7c0.5,0,0.7-0.1,0.7-0.4c0-0.4-0.6-0.5-1.3-0.8c-0.8-0.3-1.8-0.9-1.8-2.1
		c0-1.4,1.1-2.3,2.8-2.3c1.1,0,2,0.5,2.6,0.9l-1.1,1.4c-0.5-0.4-1-0.6-1.4-0.6c-0.4,0-0.6,0.1-0.6,0.4c0,0.4,0.6,0.5,1.3,0.8
		c0.8,0.3,1.8,0.8,1.8,2.1c0,1.3-1,2.3-3,2.3c-0.9,0-2-0.4-2.7-1L299.4,157.3z"/>
	<path class="st4" d="M308,152.4c2.1,0,3.1,1.5,3.1,3.4c0,0.4-0.1,0.8-0.1,1h-4c0.2,0.9,0.8,1.2,1.6,1.2c0.5,0,0.9-0.1,1.4-0.4
		l0.8,1.4c-0.8,0.5-1.8,0.8-2.5,0.8c-2,0-3.6-1.3-3.6-3.7C304.6,153.8,306.3,152.4,308,152.4z M309,155.3c0-0.6-0.2-1.1-1-1.1
		c-0.5,0-1,0.3-1.1,1.1H309z"/>
</g>
<g class="st14">
	<g>
		<polygon class="st3" points="195.2,68.3 209.8,64.9 226.7,64.9 235.6,65.2 244.3,67.6 247.2,70.5 247.7,76.5 247.7,109 
			244.1,113.2 229.4,115.9 211.5,115.4 198.8,112.7 194.1,108.1 		"/>
	</g>
	<g>
		<ellipse class="st6" cx="218.7" cy="68.1" rx="21.4" ry="2.9"/>
	</g>
	<path class="st4" d="M221.1,76c-7.5,0-14.4-0.5-19.4-1.5c-5.9-1.1-8.7-2.7-8.7-5c0-2.3,2.8-3.9,8.7-5c5-1,11.9-1.5,19.4-1.5
		c7.5,0,14.4,0.5,19.4,1.5c5.9,1.1,8.7,2.7,8.7,5c0,2.3-2.8,3.9-8.7,5C235.5,75.4,228.6,76,221.1,76z M196.1,69.5
		c1.3,1.3,9.4,3.5,25,3.5c15.6,0,23.7-2.2,25-3.5c-1.3-1.3-9.4-3.5-25-3.5C205.5,66,197.4,68.2,196.1,69.5z"/>
	<path class="st4" d="M221.1,89.6c-13.4,0-27.6-2.4-27.6-6.8c0-0.6,0.5-1.1,1.1-1.1s1.1,0.5,1.1,1.1c0.1,1.4,9,4.7,25.5,4.7
		s25.4-3.3,25.5-4.7c0-0.6,0.5-1,1.1-1c0.6,0,1,0.4,1,1C248.8,87.2,234.5,89.6,221.1,89.6z"/>
	<path class="st6" d="M221.1,91.1c-13.4,0-27.3-2.4-27.3-6.5c0-0.4,0.3-0.7,0.7-0.7s0.7,0.3,0.7,0.7c0,1.7,9.1,5,25.9,5
		c16.7,0,25.9-3.3,25.9-5c0-0.4,0.3-0.7,0.7-0.7s0.7,0.3,0.7,0.7C248.4,88.7,234.5,91.1,221.1,91.1z"/>
	<path class="st25" d="M221.1,87.7c-13.4,0-27.3-2.4-27.3-6.5c0-0.4,0.3-0.7,0.7-0.7s0.7,0.3,0.7,0.7c0,1.7,9.1,5,25.9,5
		c16.7,0,25.9-3.3,25.9-5c0-0.4,0.3-0.7,0.7-0.7s0.7,0.3,0.7,0.7C248.4,85.3,234.5,87.7,221.1,87.7z"/>
	<path class="st4" d="M221.1,103.7c-15,0-27.6-3.4-27.6-7.5c0-0.6,0.5-1.1,1.1-1.1s1.1,0.5,1.1,1.1c0.1,1.4,9,5.4,25.5,5.4
		s25.5-4,25.5-5.4c0-0.6,0.5-1,1.1-1c0.6,0,1,0.5,1,1C248.8,100.2,236.1,103.7,221.1,103.7z"/>
	<path class="st25" d="M221.1,101.6c-14.5,0-27.3-3.4-27.3-7.2c0-0.4,0.3-0.7,0.7-0.7s0.7,0.3,0.7,0.7c0,1.7,9.1,5.8,25.9,5.8
		s25.9-4.1,25.9-5.8c0-0.4,0.3-0.7,0.7-0.7s0.7,0.3,0.7,0.7C248.4,98.2,235.7,101.6,221.1,101.6z"/>
	<path class="st6" d="M221.1,105.1c-14.5,0-27.3-3.4-27.3-7.2c0-0.4,0.3-0.7,0.7-0.7s0.7,0.3,0.7,0.7c0,1.7,9.1,5.8,25.9,5.8
		s25.9-4.1,25.9-5.8c0-0.4,0.3-0.7,0.7-0.7s0.7,0.3,0.7,0.7C248.4,101.7,235.7,105.1,221.1,105.1z"/>
	<path class="st4" d="M221.1,117.4c-13.5,0-28.1-3-28.1-8h3c0-0.1,0-0.1,0-0.1c0.6,1.5,9.9,5.1,25.1,5.1s24.5-3.6,25.1-5.1
		c0,0,0,0,0,0.1h3C249.2,114.4,234.6,117.4,221.1,117.4z"/>
	<path class="st25" d="M220.8,114.1c-14.5,0-27.3-3.4-27.3-7.2c0-0.4,0.3-0.7,0.7-0.7s0.7,0.3,0.7,0.7c0,1.7,9.1,5.8,25.9,5.8
		s25.9-4.1,25.9-5.8c0-0.4,0.3-0.7,0.7-0.7s0.7,0.3,0.7,0.7C248.1,110.7,235.4,114.1,220.8,114.1z"/>
	<path class="st8" d="M235,116.5l6.4-0.6l8-25.7v-3.5c0,0-7.7,3.4-12.1,12.7s-3.9,17.1-3.9,17.1H235z"/>
	<rect x="246.2" y="69.5" class="st4" width="3" height="40"/>
	<g>
		<circle class="st1" cx="266.9" cy="114.5" r="30.5"/>
		<path class="st9" d="M266.9,86c15.8,0,28.6,12.8,28.6,28.6c0,15.8-12.8,28.6-28.6,28.6s-28.6-12.8-28.6-28.6
			C238.3,98.8,251.1,86,266.9,86 M266.9,84.1c-16.8,0-30.5,13.6-30.5,30.5c0,16.8,13.6,30.5,30.5,30.5s30.5-13.6,30.5-30.5
			C297.4,97.7,283.7,84.1,266.9,84.1L266.9,84.1z"/>
	</g>
	<rect x="193.1" y="69.5" class="st4" width="3" height="40.5"/>
	<g id="Layer_x0020_3_1_">
		<g>
			<path d="M276.3,125c0.3-2.1,0.2-2.4,1.7-2.1l0.4,0c1.2,0.1,2.8-0.2,3.7-0.6c2-0.9,3.2-2.5,1.2-2.1c-4.5,0.9-4.8-0.6-4.8-0.6
				c4.7-7,6.7-16,5-18.1c-4.7-6-12.7-3.1-12.9-3.1l0,0c-0.9-0.2-1.9-0.3-3-0.3c-2,0-3.6,0.5-4.7,1.4c0,0-14.4-5.9-13.7,7.5
				c0.1,2.8,4.1,21.6,8.8,15.9c1.7-2.1,3.4-3.8,3.4-3.8c0.8,0.5,1.8,0.8,2.8,0.7l0.1-0.1c0,0.3,0,0.5,0,0.8
				c-1.2,1.4-0.9,1.6-3.3,2.1c-2.4,0.5-1,1.4-0.1,1.6c1.1,0.3,3.8,0.7,5.6-1.8l-0.1,0.3c0.5,0.4,0.4,2.7,0.5,4.4
				c0.1,1.7,0.2,3.2,0.5,4.2c0.3,0.9,0.7,3.3,3.9,2.6C274,133.4,276.1,132.6,276.3,125"/>
			<path d="M270.3,135.8c-2.1,0-3.6-1.2-4.3-3.6c0-0.1-0.1-0.2-0.1-0.2c-0.4-1.1-0.5-2.7-0.6-4.7c0-0.3,0-0.6,0-0.9
				c0-0.2,0-0.4,0-0.7c-1.4,0.6-3,0.7-4.7,0.3c-0.8-0.2-1.6-0.6-2.1-1.2c-1.4,1.1-2.7,1-3.4,0.7c-5.1-1.7-7.5-17.1-7.6-18.4
				c-0.2-4.2,0.9-7.2,3.4-9c3.8-2.7,9.6-1.2,11.8-0.4c1.4-0.8,3.1-1.3,5-1.2c1,0,2,0.1,2.8,0.3c2.3-0.8,9.8-2.1,14.4,3.8
				c2.4,3,0,11.9-3.9,18.4c0.5,0,1.1-0.1,2-0.3c2.2-0.4,2.8,0.8,2.9,1.2c0.7,2-2.2,3.6-3.1,4c-1.1,0.5-3,0.8-4.5,0.8l-0.3,0
				c0,0.1,0,0.1,0,0.2l0,0.3c-0.2,7.8-2.3,9.7-6.2,10.5C271.2,135.7,270.8,135.8,270.3,135.8z M267.5,121.5c1,0.8,1,2.2,1.1,4.7
				c0,0.3,0,0.6,0,0.9c0,0.8,0.1,2.8,0.4,3.7c0,0.1,0.1,0.2,0.1,0.4c0.3,1.1,0.5,1.5,1.9,1.2c2-0.4,3.4-0.7,3.6-7.4l0.1-0.5
				c0.1-1.2,0.3-2.2,1.1-2.9c0.6-0.4,1.2-0.5,1.7-0.4c-0.5-0.5-0.6-0.9-0.6-1.1l-0.1-0.7l0.4-0.6c4.7-7,6-15,5.1-16.2
				c-3.7-4.7-10.2-2.8-10.9-2.6l-0.1,0.1l-0.6,0.1l-0.4-0.1c-0.8-0.2-1.7-0.3-2.7-0.3c-1.5,0-2.7,0.3-3.7,1.1l-0.8,0.6l-0.9-0.4
				c-1.7-0.7-6.8-2.1-9.4-0.2c-1.5,1-2.1,3.1-2,6.1c0.2,3.8,3.4,15,5.3,15.4c0,0,0.2-0.1,0.5-0.5c1.7-2.1,3.4-3.8,3.5-3.9l1-1
				l1.2,0.8c0.4,0.3,0.8,0.4,1.3,0.5l2.8-2.4l-0.4,4.1c0,0.1,0,0.2,0,0.4l0.1,0.8l-0.5,0.6c0,0,0,0,0,0l1.3,0.6L267.5,121.5z"/>
		</g>
		<path class="st10" d="M283.3,120.3c-4.5,0.9-4.8-0.6-4.8-0.6c4.7-7,6.7-16,5-18.1c-4.7-6-12.7-3.1-12.9-3.1l0,0
			c-0.9-0.2-1.9-0.3-3-0.3c-2,0-3.6,0.5-4.7,1.4c0,0-14.4-5.9-13.7,7.5c0.1,2.8,4.1,21.6,8.8,15.9c1.7-2.1,3.4-3.8,3.4-3.8
			c0.8,0.5,1.8,0.8,2.8,0.7l0.1-0.1c0,0.3,0,0.5,0,0.8c-1.2,1.4-0.9,1.6-3.3,2.1c-2.4,0.5-1,1.4-0.1,1.6c1.1,0.3,3.8,0.7,5.6-1.8
			l-0.1,0.3c0.5,0.4,0.8,2.5,0.8,4.4c-0.1,1.9-0.1,3.2,0.3,4.2c0.4,1,0.7,3.3,3.9,2.6c2.7-0.6,4-2,4.2-4.5c0.1-1.8,0.4-1.5,0.5-3.1
			l0.2-0.7c0.3-2.4,0-3.1,1.7-2.8l0.4,0c1.2,0.1,2.8-0.2,3.7-0.6C284.1,121.4,285.3,119.8,283.3,120.3L283.3,120.3z"/>
		<path class="st1" d="M270.5,134.8c-2.7,0-3.5-2.1-3.9-3c-0.5-1.3-0.6-6-0.5-10.2c0-0.3,0.3-0.5,0.6-0.5c0.3,0,0.5,0.3,0.5,0.6
			c-0.1,4.6,0.1,8.8,0.4,9.7c0.6,1.4,1.4,2.7,3.9,2.2c2.4-0.5,3.2-1.4,3.6-3.7c0.3-1.8,0.9-6.7,1-7.7c0-0.3,0.3-0.5,0.6-0.5
			c0.3,0,0.5,0.3,0.5,0.6c-0.1,1-0.7,6-1,7.8c-0.5,2.7-1.7,4-4.5,4.6C271.3,134.7,270.9,134.8,270.5,134.8z"/>
		<path class="st1" d="M256.1,124.5c-0.3,0-0.5,0-0.7-0.1c-4.1-1.4-6.8-15.6-6.9-17.4c-0.2-3.8,0.8-6.5,2.9-8c4.2-3,11.3-0.1,11.6,0
			c0.3,0.1,0.4,0.4,0.3,0.7c-0.1,0.3-0.4,0.4-0.7,0.3c-0.1,0-6.8-2.7-10.5-0.1c-1.8,1.3-2.6,3.6-2.5,7.1c0.1,2.5,2.9,15.3,6.1,16.4
			c0.2,0.1,0.8,0.3,1.7-0.8c1.7-2.1,3.3-3.7,3.3-3.7c0.2-0.2,0.6-0.2,0.8,0c0.2,0.2,0.2,0.6,0,0.8c0,0-1.6,1.6-3.2,3.7
			C257.5,124.2,256.8,124.5,256.1,124.5z"/>
		<path class="st1" d="M278.5,120.2c-0.1,0-0.2,0-0.3-0.1c-0.3-0.2-0.3-0.5-0.2-0.8c4.8-7.1,6.5-15.7,5-17.5
			c-4.3-5.5-11.5-3.1-12.2-2.9c0,0-0.1,0-0.1,0c-0.3,0.1-0.6,0-0.7-0.3c-0.1-0.3,0-0.6,0.2-0.7c0,0,0.1,0,0.1-0.1l0,0
			c0,0,0.1,0,0.1,0c1.4-0.4,8.9-2.5,13.4,3.3c2,2.6-0.5,12.1-5,18.8C278.8,120.1,278.7,120.2,278.5,120.2z"/>
		<path class="st1" d="M278.7,123.4c-0.8,0-1.6-0.1-2-0.4c-0.5-0.3-0.6-0.7-0.6-0.9c-0.1-2.1,1-2.6,1.7-2.7
			c-0.1-0.1-0.2-0.2-0.3-0.4c-0.4-0.4-0.8-1.1-1.2-2c-0.1-0.2-0.2-0.5-0.5-0.8c-1.2-2.1-3.6-6.4-2-8.6c0.7-1,2.1-1.4,4.2-1.2
			c-0.7-1.9-3.6-7.7-10.4-7.8c-2.1,0-3.8,0.6-5.1,1.9c-2.9,2.9-2.8,8.2-2.8,8.2c0,0.3-0.2,0.6-0.5,0.6c-0.3,0-0.6-0.2-0.6-0.5
			c0-0.2-0.1-5.8,3.1-9c1.5-1.5,3.5-2.3,5.9-2.2c8.5,0.1,11.6,8.2,11.7,9.3c0.1,0.6-0.4,0.7-0.5,0.7l-0.2,0
			c-1.4-0.2-3.2-0.3-3.9,0.7c-1.2,1.7,1.1,5.7,2.1,7.4c0.2,0.4,0.4,0.8,0.5,1c0.3,0.8,0.7,1.3,1.1,1.7c0.3,0.4,0.6,0.7,0.6,1.1
			c0,0.1,0.7,0.9,4.1,0.2c0.9-0.2,1.5,0,1.6,0.5c0.3,1-1.5,2.2-2.5,2.6C281.4,123.2,280,123.4,278.7,123.4z M278.4,120.4
			c-0.1,0-0.2,0.1-0.2,0.1c-0.5,0.1-1,0.3-0.9,1.6c0.3,0.3,3.1,0.3,4.6-0.4c0.7-0.3,1.3-0.7,1.6-1c0,0,0,0,0,0
			c-2.3,0.5-3.9,0.4-4.8-0.2C278.5,120.5,278.5,120.5,278.4,120.4z M283.9,120.7L283.9,120.7L283.9,120.7z"/>
		<path class="st1" d="M262.5,125c-0.6,0-1.2-0.1-1.8-0.2c-0.2,0-1.7-0.5-1.7-1.4c0-0.9,1.3-1.2,1.8-1.3c1.7-0.4,1.8-0.5,2.4-1.2
			c0.2-0.2,0.4-0.5,0.6-0.7l0,0c0.9-1,1.7-0.6,2.1-0.5c0.6,0.2,1,0.8,1.2,1.5c0.2,0.6,0.1,1.2-0.2,1.6
			C265.9,124.3,264.3,125,262.5,125z M260.3,123.4c0.2,0.1,0.4,0.2,0.7,0.3c1.5,0.4,3.5,0.4,5-1.6c0.2-0.2,0.1-0.5,0.1-0.7
			c-0.1-0.3-0.3-0.6-0.6-0.7c-0.3-0.1-0.5-0.2-0.8,0.2c0,0,0,0,0,0c-0.2,0.3-0.4,0.5-0.6,0.7c-0.7,0.9-1,1.2-3,1.6
			C260.7,123.3,260.4,123.3,260.3,123.4z M264.3,120.5L264.3,120.5L264.3,120.5z"/>
		<path class="st1" d="M264.2,121.1c-0.3,0-0.5-0.2-0.5-0.5c0-0.1,0-0.1,0-0.2c-1.3,0-2.6-0.6-3.5-1.6c-1.2-1.3-1.8-3-1.5-4.8
			c0.3-1.9,0.2-3.7,0.1-4.6c0-0.3,0-0.5,0-0.6c0-0.9,2.6-2,4.1-2.2c1.9-0.2,3.1,0.6,3.5,2.4c1,4.6,0.1,6.6-0.6,8.1
			c-0.1,0.3-0.2,0.5-0.3,0.8l-0.1,0.2c-0.4,0.9-0.7,1.8-0.6,2.3C264.8,120.7,264.6,121,264.2,121.1
			C264.2,121.1,264.2,121.1,264.2,121.1z M259.8,108.9c0,0.1,0,0.2,0,0.3c0.1,1,0.2,2.7-0.1,4.8c-0.2,1.5,0.2,2.9,1.2,3.9
			c0.8,0.8,1.8,1.3,2.8,1.3c0.1-0.5,0.3-1,0.5-1.6l0.1-0.2c0.1-0.3,0.2-0.6,0.4-0.9c0.6-1.4,1.4-3.2,0.5-7.4
			c-0.2-0.8-0.6-1.3-1.3-1.5C262.4,107.4,260.2,108.5,259.8,108.9z"/>
		<g>
			<path class="st1" d="M262.8,108.7c0,0.2,0.3,0.7,0.8,0.7c0.5,0.1,0.9-0.3,0.9-0.5c0-0.2-0.3-0.4-0.8-0.4
				C263.2,108.4,262.8,108.5,262.8,108.7L262.8,108.7z"/>
			<path class="st1" d="M263.7,109.6c0,0-0.1,0-0.1,0c-0.3,0-0.6-0.2-0.8-0.5c-0.1-0.1-0.2-0.3-0.2-0.4c0-0.1,0-0.2,0.1-0.2
				c0.2-0.1,0.6-0.2,1-0.1c0.2,0,0.5,0.1,0.6,0.2c0.3,0.2,0.3,0.4,0.3,0.5C264.7,109.2,264.2,109.6,263.7,109.6z M263,108.7
				c0,0.1,0.3,0.5,0.6,0.5c0.4,0.1,0.7-0.3,0.7-0.3c0,0-0.2-0.2-0.6-0.2C263.3,108.6,263.1,108.7,263,108.7z M263,108.7L263,108.7
				L263,108.7L263,108.7z"/>
		</g>
		<g>
			<path class="st1" d="M277,108.3c0,0.2-0.3,0.7-0.8,0.7c-0.5,0.1-0.9-0.3-0.9-0.5c0-0.2,0.3-0.4,0.8-0.4
				C276.6,108.1,277,108.1,277,108.3L277,108.3z"/>
			<path class="st1" d="M276.1,109.2c-0.5,0-0.8-0.4-0.9-0.6c0-0.3,0.4-0.5,0.9-0.6c0.2,0,0.5,0,0.6,0c0.2,0,0.3,0.1,0.4,0.3
				c0,0.1-0.1,0.3-0.2,0.5c-0.1,0.1-0.3,0.3-0.6,0.4C276.2,109.2,276.2,109.2,276.1,109.2z M276.4,108.2c-0.1,0-0.2,0-0.3,0
				c-0.5,0.1-0.7,0.3-0.7,0.3c0,0.1,0.4,0.5,0.8,0.4c0.3,0,0.4-0.2,0.5-0.3c0.1-0.1,0.2-0.3,0.2-0.3c0,0-0.1-0.1-0.2-0.1
				C276.6,108.2,276.5,108.2,276.4,108.2z"/>
		</g>
		<path class="st1" d="M277.7,118.8c-0.1,0-0.2,0-0.3-0.1c-0.3-0.2-0.3-0.5-0.2-0.8c1.1-1.6,0.9-3.3,0.7-4.9
			c-0.1-0.7-0.2-1.4-0.1-2.1c0-0.7,0.1-1.3,0.2-1.8c0.1-0.7,0.2-1.3,0.2-2c0-0.3,0.2-0.6,0.5-0.6c0.3,0,0.6,0.2,0.6,0.5
			c0,0.9-0.1,1.6-0.2,2.3c-0.1,0.5-0.2,1.1-0.2,1.7c0,0.6,0.1,1.2,0.1,1.9c0.2,1.7,0.4,3.7-0.9,5.6
			C278.1,118.7,277.9,118.8,277.7,118.8z"/>
		<path class="st26" d="M247.4,101.4"/>
	</g>
</g>
<g>
	<g>
		<path class="st12" d="M517.4,203.6h-88.7c-1.3,0-2.3-1-2.3-2.3v-63.1c0-1.3,1-2.3,2.3-2.3h88.7c1.3,0,2.3,1,2.3,2.3v63.1
			C519.7,202.6,518.6,203.6,517.4,203.6z"/>
	</g>
	<rect x="427.4" y="143" class="st4" width="92.9" height="2"/>
	<rect x="445.2" y="145" class="st4" width="2" height="58.6"/>
	<rect x="462.8" y="145" class="st4" width="2" height="58.6"/>
	<rect x="498" y="145" class="st4" width="2" height="58.6"/>
	<rect x="480.4" y="145" class="st4" width="2" height="58.6"/>
	<rect x="426.7" y="194.8" class="st4" width="91.8" height="2"/>
	<rect x="426.7" y="187.6" class="st4" width="91.8" height="2"/>
	<rect x="426.7" y="180.3" class="st4" width="91.8" height="2"/>
	<rect x="426.7" y="173.1" class="st4" width="91.8" height="2"/>
	<rect x="426.7" y="151.3" class="st4" width="91.8" height="2"/>
	<rect x="426.7" y="158.5" class="st4" width="91.8" height="2"/>
	<rect x="426.7" y="165.8" class="st4" width="91.8" height="2"/>
	<g>
		<path class="st4" d="M517.5,205.1h-89.2c-2.1,0-3.8-1.7-3.8-3.8v-63.1c0-2.1,1.7-3.8,3.8-3.8h89.2c2.1,0,3.8,1.7,3.8,3.8v63.1
			C521.3,203.5,519.6,205.1,517.5,205.1z M428.4,137.5c-0.4,0-0.8,0.3-0.8,0.8v63.1c0,0.4,0.3,0.8,0.8,0.8h89.2
			c0.4,0,0.8-0.3,0.8-0.8v-63.1c0-0.4-0.3-0.8-0.8-0.8H428.4z"/>
	</g>
</g>
<g>
	<g>
		<path class="st27" d="M595.1,185.5h-34.8c-3,0-5.4-2.4-5.4-5.4v-27.3c0-3,2.4-5.4,5.4-5.4h34.8c3,0,5.4,2.4,5.4,5.4v27.3
			C600.5,183.1,598.1,185.5,595.1,185.5z"/>
		<path class="st4" d="M595.1,187h-34.8c-3.8,0-6.9-3.1-6.9-6.9v-27.3c0-3.8,3.1-6.9,6.9-6.9h34.8c3.8,0,6.9,3.1,6.9,6.9v27.3
			C602,183.9,598.9,187,595.1,187z M560.3,148.9c-2.2,0-3.9,1.8-3.9,3.9v27.3c0,2.2,1.8,3.9,3.9,3.9h34.8c2.2,0,3.9-1.8,3.9-3.9
			v-27.3c0-2.2-1.8-3.9-3.9-3.9H560.3z"/>
	</g>
	<path class="st4" d="M600.7,158.9h-45.8c-0.6,0-1-0.4-1-1s0.4-1,1-1h45.8c0.6,0,1,0.4,1,1S601.2,158.9,600.7,158.9z"/>
	<path class="st4" d="M600.7,167.7h-45.8c-0.6,0-1-0.4-1-1s0.4-1,1-1h45.8c0.6,0,1,0.4,1,1S601.2,167.7,600.7,167.7z"/>
	<path class="st4" d="M600.7,176.5h-45.8c-0.6,0-1-0.4-1-1s0.4-1,1-1h45.8c0.6,0,1,0.4,1,1S601.2,176.5,600.7,176.5z"/>
	<path class="st28" d="M594.7,169.2"/>
	<path class="st4" d="M577,187c-0.6,0-1-0.4-1-1v-28c0-0.6,0.4-1,1-1s1,0.4,1,1v28C578,186.6,577.6,187,577,187z"/>
</g>
<g>
	<g>
		<path class="st4" d="M637.5,198.5h-2.4v-2h7.2v2H640v7.1h-2.4V198.5z"/>
		<path class="st4" d="M646,201c-0.1-0.5-0.4-0.7-1-0.7c-0.5,0-1,0.2-1.8,0.6l-0.8-1.6c1-0.6,2-0.9,3.1-0.9c1.8,0,2.9,1,2.9,3.3v3.9
			h-2l-0.2-0.7h-0.1c-0.6,0.5-1.2,0.8-1.9,0.8c-1.3,0-2.1-1-2.1-2.2C642.2,202.1,643.3,201.3,646,201z M645.1,203.9
			c0.4,0,0.6-0.2,0.9-0.5v-1c-1.1,0.2-1.5,0.5-1.5,0.9C644.5,203.7,644.7,203.9,645.1,203.9z"/>
		<path class="st4" d="M649.7,195.8h2.4v2.3l-0.1,1c0.5-0.4,1.1-0.7,1.7-0.7c1.7,0,2.7,1.4,2.7,3.5c0,2.4-1.4,3.8-2.9,3.8
			c-0.6,0-1.2-0.3-1.8-0.9h-0.1l-0.2,0.8h-1.9V195.8z M653,203.8c0.6,0,1-0.4,1-1.8c0-1.1-0.3-1.6-1-1.6c-0.4,0-0.6,0.1-1,0.5v2.6
			C652.4,203.7,652.7,203.8,653,203.8z"/>
		<path class="st4" d="M657.5,195.8h2.4v7.4c0,0.5,0.2,0.6,0.4,0.6c0.1,0,0.1,0,0.3,0l0.3,1.8c-0.3,0.1-0.6,0.2-1.2,0.2
			c-1.6,0-2.2-1.1-2.2-2.6V195.8z"/>
		<path class="st4" d="M664.4,198.4c2.1,0,3.1,1.5,3.1,3.4c0,0.4-0.1,0.8-0.1,1h-4c0.2,0.9,0.8,1.2,1.6,1.2c0.5,0,0.9-0.1,1.4-0.4
			l0.8,1.4c-0.8,0.5-1.8,0.8-2.5,0.8c-2,0-3.6-1.3-3.6-3.7C661.1,199.8,662.7,198.4,664.4,198.4z M665.4,201.3c0-0.6-0.2-1.1-1-1.1
			c-0.5,0-1,0.3-1.1,1.1H665.4z"/>
	</g>
</g>
<g>
	<g>
		<path class="st27" d="M669.1,185.5h-34.8c-3,0-5.4-2.4-5.4-5.4v-27.3c0-3,2.4-5.4,5.4-5.4h34.8c3,0,5.4,2.4,5.4,5.4v27.3
			C674.5,183.1,672.1,185.5,669.1,185.5z"/>
		<path class="st4" d="M669.1,187h-34.8c-3.8,0-6.9-3.1-6.9-6.9v-27.3c0-3.8,3.1-6.9,6.9-6.9h34.8c3.8,0,6.9,3.1,6.9,6.9v27.3
			C676,183.9,672.9,187,669.1,187z M634.3,148.9c-2.2,0-3.9,1.8-3.9,3.9v27.3c0,2.2,1.8,3.9,3.9,3.9h34.8c2.2,0,3.9-1.8,3.9-3.9
			v-27.3c0-2.2-1.8-3.9-3.9-3.9H634.3z"/>
	</g>
	<path class="st4" d="M674.7,158.9h-45.8c-0.6,0-1-0.4-1-1s0.4-1,1-1h45.8c0.6,0,1,0.4,1,1S675.2,158.9,674.7,158.9z"/>
	<path class="st4" d="M674.7,167.7h-45.8c-0.6,0-1-0.4-1-1s0.4-1,1-1h45.8c0.6,0,1,0.4,1,1S675.2,167.7,674.7,167.7z"/>
	<path class="st4" d="M674.7,176.5h-45.8c-0.6,0-1-0.4-1-1s0.4-1,1-1h45.8c0.6,0,1,0.4,1,1S675.2,176.5,674.7,176.5z"/>
	<path class="st28" d="M668.7,169.2"/>
	<path class="st4" d="M651,187c-0.6,0-1-0.4-1-1v-28c0-0.6,0.4-1,1-1s1,0.4,1,1v28C652,186.6,651.6,187,651,187z"/>
</g>
</svg>
