<?xml version="1.0" encoding="UTF-8"?>
<svg width="48px" height="42px" viewBox="0 0 48 42" version="1.1" xmlns="http://www.w3.org/2000/svg" xmlns:xlink="http://www.w3.org/1999/xlink">
    <!-- Generator: Sketch 58 (84663) - https://sketch.com -->
    <title>tag</title>
    <desc>Created with Sketch.</desc>
    <g id="Page-1" stroke="none" stroke-width="1" fill="none" fill-rule="evenodd">
        <g id="tag" fill-rule="nonzero">
            <polygon id="Rectangle" fill="#009975" points="0 0 48 0 48 42 24 36.5 0 42"></polygon>
            <path d="M17.323,18.568 L17.829,19.492 C16.883,19.822 15.838,20.02 14.694,20.097 L14.694,21.879 L18.093,21.879 L18.093,22.88 L17.037,22.88 L17.037,28.644 L16.014,28.644 L16.014,22.88 L14.694,22.88 L14.694,23.991 C14.639,25.927 14.21,27.467 13.407,28.622 L12.67,27.83 C13.297,26.906 13.638,25.63 13.682,23.991 L13.682,19.239 C15.035,19.217 16.245,18.986 17.323,18.568 Z M8.138,19.349 L10.096,19.349 C9.964,19.063 9.81,18.788 9.645,18.535 L10.723,18.359 C10.855,18.656 10.998,18.986 11.13,19.349 L13.165,19.349 L13.165,20.317 L8.138,20.317 L8.138,19.349 Z M8.028,21.846 L9.194,21.846 C9.051,21.461 8.886,21.098 8.699,20.768 L9.612,20.427 C9.788,20.823 9.964,21.296 10.118,21.846 L11.163,21.846 C11.339,21.384 11.493,20.911 11.625,20.416 L12.56,20.746 C12.428,21.153 12.274,21.516 12.109,21.846 L13.231,21.846 L13.231,22.803 L11.196,22.803 L11.196,23.793 L13.044,23.793 L13.044,24.739 L11.196,24.739 L11.196,27.687 C11.196,28.347 10.833,28.677 10.107,28.677 L9.535,28.677 L9.304,27.709 C9.469,27.753 9.623,27.775 9.766,27.775 C10.03,27.775 10.162,27.665 10.162,27.445 L10.162,24.739 L8.204,24.739 L8.204,23.793 L10.162,23.793 L10.162,22.803 L8.028,22.803 L8.028,21.846 Z M8.864,25.223 L9.81,25.421 C9.546,26.532 9.183,27.5 8.699,28.325 L7.841,27.775 C8.325,26.983 8.666,26.125 8.864,25.223 Z M12.307,25.146 C12.593,25.85 12.824,26.488 12.989,27.06 L12.109,27.39 C11.933,26.708 11.713,26.037 11.449,25.377 L12.307,25.146 Z M20.535,20.625 L19.039,20.625 L19.039,19.624 L23.076,19.624 L23.076,20.625 L21.58,20.625 L21.58,25.366 C22.13,25.201 22.669,25.025 23.208,24.827 L23.208,25.872 C21.943,26.323 20.601,26.708 19.171,27.016 L18.907,25.96 C19.457,25.872 19.996,25.762 20.535,25.641 L20.535,20.625 Z M24.946,18.513 L26.002,18.513 L26.002,20.647 L28.763,20.647 C28.763,24.233 28.708,26.455 28.598,27.302 C28.455,28.127 27.817,28.545 26.695,28.545 C26.497,28.545 26.145,28.523 25.65,28.49 L25.397,27.511 C25.837,27.544 26.211,27.566 26.519,27.566 C27.157,27.566 27.52,27.313 27.619,26.818 C27.685,26.301 27.718,24.585 27.74,21.659 L26.002,21.659 L26.002,21.692 C25.958,24.882 25.1,27.225 23.428,28.721 L22.57,27.962 C24.132,26.664 24.924,24.574 24.946,21.692 L24.946,21.659 L23.285,21.659 L23.285,20.647 L24.946,20.647 L24.946,18.513 Z M31.612,24.926 L31.612,25.729 L33.878,25.729 L33.878,24.926 L31.612,24.926 Z M33.878,24.068 L33.878,23.221 L31.612,23.221 L31.612,24.068 L33.878,24.068 Z M31.612,26.598 L31.612,28.655 L30.6,28.655 L30.6,22.308 L34.89,22.308 L34.89,27.434 C34.89,28.193 34.527,28.578 33.823,28.578 L32.965,28.578 L32.712,27.599 L33.493,27.643 C33.746,27.643 33.878,27.5 33.878,27.214 L33.878,26.598 L31.612,26.598 Z M38.641,23.353 L36.848,23.353 C36.078,23.353 35.704,22.935 35.704,22.099 L35.704,18.524 L36.738,18.524 L36.738,19.822 C37.871,19.646 38.795,19.47 39.51,19.272 L39.851,20.196 C38.949,20.405 37.915,20.603 36.738,20.779 L36.738,21.879 C36.738,22.231 36.87,22.418 37.134,22.418 L38.443,22.418 C38.619,22.418 38.74,22.363 38.817,22.253 C38.905,22.121 38.971,21.747 38.993,21.131 L39.972,21.45 C39.884,22.363 39.73,22.913 39.532,23.1 C39.334,23.265 39.037,23.353 38.641,23.353 Z M36.738,25.894 L36.738,27.236 C36.738,27.434 36.859,27.533 37.123,27.533 L38.454,27.533 C38.63,27.533 38.762,27.478 38.839,27.379 C38.927,27.247 38.993,26.873 39.026,26.257 L39.972,26.565 C39.884,27.489 39.741,28.039 39.543,28.215 C39.356,28.38 39.059,28.468 38.652,28.468 L36.826,28.468 C36.078,28.468 35.704,28.127 35.704,27.467 L35.704,23.738 L36.738,23.738 L36.738,24.948 C37.772,24.838 38.696,24.651 39.51,24.409 L39.851,25.344 C38.883,25.608 37.838,25.784 36.738,25.894 Z M34.098,19.25 C34.747,20.119 35.242,20.878 35.594,21.516 L34.736,22.132 C34.626,21.912 34.505,21.681 34.373,21.45 C33.229,21.626 31.854,21.758 30.248,21.846 L29.962,20.977 C30.149,20.911 30.303,20.823 30.435,20.713 C31.106,19.965 31.623,19.217 31.975,18.469 L32.976,18.766 C32.514,19.668 31.997,20.383 31.425,20.933 C32.195,20.889 33.031,20.801 33.922,20.691 C33.724,20.383 33.515,20.075 33.295,19.756 L34.098,19.25 Z" id="新功能" fill="#FFFFFF"></path>
        </g>
    </g>
</svg>